<?xml version="1.0" encoding="utf-8" standalone="no"?>
<!DOCTYPE svg PUBLIC "-//W3C//DTD SVG 1.1//EN"
  "http://www.w3.org/Graphics/SVG/1.1/DTD/svg11.dtd">
<svg xmlns:xlink="http://www.w3.org/1999/xlink" width="460.8pt" height="345.6pt" viewBox="0 0 460.8 345.6" xmlns="http://www.w3.org/2000/svg" version="1.1">
 <metadata>
  <rdf:RDF xmlns:dc="http://purl.org/dc/elements/1.1/" xmlns:cc="http://creativecommons.org/ns#" xmlns:rdf="http://www.w3.org/1999/02/22-rdf-syntax-ns#">
   <cc:Work>
    <dc:type rdf:resource="http://purl.org/dc/dcmitype/StillImage"/>
    <dc:date>2023-01-10T19:42:00.728243</dc:date>
    <dc:format>image/svg+xml</dc:format>
    <dc:creator>
     <cc:Agent>
      <dc:title>Matplotlib v3.6.2, https://matplotlib.org/</dc:title>
     </cc:Agent>
    </dc:creator>
   </cc:Work>
  </rdf:RDF>
 </metadata>
 <defs>
  <style type="text/css">*{stroke-linejoin: round; stroke-linecap: butt}</style>
 </defs>
 <g id="figure_1">
  <g id="patch_1">
   <path d="M 0 345.6 
L 460.8 345.6 
L 460.8 0 
L 0 0 
z
" style="fill: #ffffff"/>
  </g>
  <g id="axes_1">
   <g id="patch_2">
    <path d="M 57.6 307.584 
L 414.72 307.584 
L 414.72 41.472 
L 57.6 41.472 
z
" style="fill: #ffffff"/>
   </g>
   <g id="matplotlib.axis_1">
    <g id="xtick_1">
     <g id="line2d_1">
      <path d="M 89.805138 307.584 
L 89.805138 41.472 
" clip-path="url(#p4152945e3d)" style="fill: none; stroke: #b0b0b0; stroke-width: 0.8; stroke-linecap: square"/>
     </g>
     <g id="line2d_2">
      <defs>
       <path id="mbac6460fac" d="M 0 0 
L 0 3.5 
" style="stroke: #000000; stroke-width: 0.8"/>
      </defs>
      <g>
       <use xlink:href="#mbac6460fac" x="89.805138" y="307.584" style="stroke: #000000; stroke-width: 0.8"/>
      </g>
     </g>
     <g id="text_1">
      <!-- 40 -->
      <g transform="translate(83.442638 322.182437) scale(0.1 -0.1)">
       <defs>
        <path id="DejaVuSans-34" d="M 2419 4116 
L 825 1625 
L 2419 1625 
L 2419 4116 
z
M 2253 4666 
L 3047 4666 
L 3047 1625 
L 3713 1625 
L 3713 1100 
L 3047 1100 
L 3047 0 
L 2419 0 
L 2419 1100 
L 313 1100 
L 313 1709 
L 2253 4666 
z
" transform="scale(0.015625)"/>
        <path id="DejaVuSans-30" d="M 2034 4250 
Q 1547 4250 1301 3770 
Q 1056 3291 1056 2328 
Q 1056 1369 1301 889 
Q 1547 409 2034 409 
Q 2525 409 2770 889 
Q 3016 1369 3016 2328 
Q 3016 3291 2770 3770 
Q 2525 4250 2034 4250 
z
M 2034 4750 
Q 2819 4750 3233 4129 
Q 3647 3509 3647 2328 
Q 3647 1150 3233 529 
Q 2819 -91 2034 -91 
Q 1250 -91 836 529 
Q 422 1150 422 2328 
Q 422 3509 836 4129 
Q 1250 4750 2034 4750 
z
" transform="scale(0.015625)"/>
       </defs>
       <use xlink:href="#DejaVuSans-34"/>
       <use xlink:href="#DejaVuSans-30" x="63.623047"/>
      </g>
     </g>
    </g>
    <g id="xtick_2">
     <g id="line2d_3">
      <path d="M 145.559371 307.584 
L 145.559371 41.472 
" clip-path="url(#p4152945e3d)" style="fill: none; stroke: #b0b0b0; stroke-width: 0.8; stroke-linecap: square"/>
     </g>
     <g id="line2d_4">
      <g>
       <use xlink:href="#mbac6460fac" x="145.559371" y="307.584" style="stroke: #000000; stroke-width: 0.8"/>
      </g>
     </g>
     <g id="text_2">
      <!-- 60 -->
      <g transform="translate(139.196871 322.182437) scale(0.1 -0.1)">
       <defs>
        <path id="DejaVuSans-36" d="M 2113 2584 
Q 1688 2584 1439 2293 
Q 1191 2003 1191 1497 
Q 1191 994 1439 701 
Q 1688 409 2113 409 
Q 2538 409 2786 701 
Q 3034 994 3034 1497 
Q 3034 2003 2786 2293 
Q 2538 2584 2113 2584 
z
M 3366 4563 
L 3366 3988 
Q 3128 4100 2886 4159 
Q 2644 4219 2406 4219 
Q 1781 4219 1451 3797 
Q 1122 3375 1075 2522 
Q 1259 2794 1537 2939 
Q 1816 3084 2150 3084 
Q 2853 3084 3261 2657 
Q 3669 2231 3669 1497 
Q 3669 778 3244 343 
Q 2819 -91 2113 -91 
Q 1303 -91 875 529 
Q 447 1150 447 2328 
Q 447 3434 972 4092 
Q 1497 4750 2381 4750 
Q 2619 4750 2861 4703 
Q 3103 4656 3366 4563 
z
" transform="scale(0.015625)"/>
       </defs>
       <use xlink:href="#DejaVuSans-36"/>
       <use xlink:href="#DejaVuSans-30" x="63.623047"/>
      </g>
     </g>
    </g>
    <g id="xtick_3">
     <g id="line2d_5">
      <path d="M 201.313604 307.584 
L 201.313604 41.472 
" clip-path="url(#p4152945e3d)" style="fill: none; stroke: #b0b0b0; stroke-width: 0.8; stroke-linecap: square"/>
     </g>
     <g id="line2d_6">
      <g>
       <use xlink:href="#mbac6460fac" x="201.313604" y="307.584" style="stroke: #000000; stroke-width: 0.8"/>
      </g>
     </g>
     <g id="text_3">
      <!-- 80 -->
      <g transform="translate(194.951104 322.182437) scale(0.1 -0.1)">
       <defs>
        <path id="DejaVuSans-38" d="M 2034 2216 
Q 1584 2216 1326 1975 
Q 1069 1734 1069 1313 
Q 1069 891 1326 650 
Q 1584 409 2034 409 
Q 2484 409 2743 651 
Q 3003 894 3003 1313 
Q 3003 1734 2745 1975 
Q 2488 2216 2034 2216 
z
M 1403 2484 
Q 997 2584 770 2862 
Q 544 3141 544 3541 
Q 544 4100 942 4425 
Q 1341 4750 2034 4750 
Q 2731 4750 3128 4425 
Q 3525 4100 3525 3541 
Q 3525 3141 3298 2862 
Q 3072 2584 2669 2484 
Q 3125 2378 3379 2068 
Q 3634 1759 3634 1313 
Q 3634 634 3220 271 
Q 2806 -91 2034 -91 
Q 1263 -91 848 271 
Q 434 634 434 1313 
Q 434 1759 690 2068 
Q 947 2378 1403 2484 
z
M 1172 3481 
Q 1172 3119 1398 2916 
Q 1625 2713 2034 2713 
Q 2441 2713 2670 2916 
Q 2900 3119 2900 3481 
Q 2900 3844 2670 4047 
Q 2441 4250 2034 4250 
Q 1625 4250 1398 4047 
Q 1172 3844 1172 3481 
z
" transform="scale(0.015625)"/>
       </defs>
       <use xlink:href="#DejaVuSans-38"/>
       <use xlink:href="#DejaVuSans-30" x="63.623047"/>
      </g>
     </g>
    </g>
    <g id="xtick_4">
     <g id="line2d_7">
      <path d="M 257.067837 307.584 
L 257.067837 41.472 
" clip-path="url(#p4152945e3d)" style="fill: none; stroke: #b0b0b0; stroke-width: 0.8; stroke-linecap: square"/>
     </g>
     <g id="line2d_8">
      <g>
       <use xlink:href="#mbac6460fac" x="257.067837" y="307.584" style="stroke: #000000; stroke-width: 0.8"/>
      </g>
     </g>
     <g id="text_4">
      <!-- 100 -->
      <g transform="translate(247.524087 322.182437) scale(0.1 -0.1)">
       <defs>
        <path id="DejaVuSans-31" d="M 794 531 
L 1825 531 
L 1825 4091 
L 703 3866 
L 703 4441 
L 1819 4666 
L 2450 4666 
L 2450 531 
L 3481 531 
L 3481 0 
L 794 0 
L 794 531 
z
" transform="scale(0.015625)"/>
       </defs>
       <use xlink:href="#DejaVuSans-31"/>
       <use xlink:href="#DejaVuSans-30" x="63.623047"/>
       <use xlink:href="#DejaVuSans-30" x="127.246094"/>
      </g>
     </g>
    </g>
    <g id="xtick_5">
     <g id="line2d_9">
      <path d="M 312.82207 307.584 
L 312.82207 41.472 
" clip-path="url(#p4152945e3d)" style="fill: none; stroke: #b0b0b0; stroke-width: 0.8; stroke-linecap: square"/>
     </g>
     <g id="line2d_10">
      <g>
       <use xlink:href="#mbac6460fac" x="312.82207" y="307.584" style="stroke: #000000; stroke-width: 0.8"/>
      </g>
     </g>
     <g id="text_5">
      <!-- 120 -->
      <g transform="translate(303.27832 322.182437) scale(0.1 -0.1)">
       <defs>
        <path id="DejaVuSans-32" d="M 1228 531 
L 3431 531 
L 3431 0 
L 469 0 
L 469 531 
Q 828 903 1448 1529 
Q 2069 2156 2228 2338 
Q 2531 2678 2651 2914 
Q 2772 3150 2772 3378 
Q 2772 3750 2511 3984 
Q 2250 4219 1831 4219 
Q 1534 4219 1204 4116 
Q 875 4013 500 3803 
L 500 4441 
Q 881 4594 1212 4672 
Q 1544 4750 1819 4750 
Q 2544 4750 2975 4387 
Q 3406 4025 3406 3419 
Q 3406 3131 3298 2873 
Q 3191 2616 2906 2266 
Q 2828 2175 2409 1742 
Q 1991 1309 1228 531 
z
" transform="scale(0.015625)"/>
       </defs>
       <use xlink:href="#DejaVuSans-31"/>
       <use xlink:href="#DejaVuSans-32" x="63.623047"/>
       <use xlink:href="#DejaVuSans-30" x="127.246094"/>
      </g>
     </g>
    </g>
    <g id="xtick_6">
     <g id="line2d_11">
      <path d="M 368.576303 307.584 
L 368.576303 41.472 
" clip-path="url(#p4152945e3d)" style="fill: none; stroke: #b0b0b0; stroke-width: 0.8; stroke-linecap: square"/>
     </g>
     <g id="line2d_12">
      <g>
       <use xlink:href="#mbac6460fac" x="368.576303" y="307.584" style="stroke: #000000; stroke-width: 0.8"/>
      </g>
     </g>
     <g id="text_6">
      <!-- 140 -->
      <g transform="translate(359.032553 322.182437) scale(0.1 -0.1)">
       <use xlink:href="#DejaVuSans-31"/>
       <use xlink:href="#DejaVuSans-34" x="63.623047"/>
       <use xlink:href="#DejaVuSans-30" x="127.246094"/>
      </g>
     </g>
    </g>
    <g id="text_7">
     <!-- $\theta$ [deg] -->
     <g transform="translate(218.16 335.962125) scale(0.1 -0.1)">
      <defs>
       <path id="DejaVuSans-Oblique-3b8" d="M 2913 2219 
L 925 2219 
Q 791 1284 928 888 
Q 1100 400 1566 400 
Q 2034 400 2391 891 
Q 2703 1322 2913 2219 
z
M 3009 2750 
Q 3094 3638 2984 3950 
Q 2813 4444 2353 4444 
Q 1875 4444 1525 3956 
Q 1250 3563 1034 2750 
L 3009 2750 
z
M 2444 4913 
Q 3194 4913 3494 4250 
Q 3794 3591 3566 2422 
Q 3341 1256 2781 594 
Q 2225 -72 1475 -72 
Q 722 -72 425 594 
Q 128 1256 353 2422 
Q 581 3591 1134 4250 
Q 1691 4913 2444 4913 
z
" transform="scale(0.015625)"/>
       <path id="DejaVuSans-20" transform="scale(0.015625)"/>
       <path id="DejaVuSans-5b" d="M 550 4863 
L 1875 4863 
L 1875 4416 
L 1125 4416 
L 1125 -397 
L 1875 -397 
L 1875 -844 
L 550 -844 
L 550 4863 
z
" transform="scale(0.015625)"/>
       <path id="DejaVuSans-64" d="M 2906 2969 
L 2906 4863 
L 3481 4863 
L 3481 0 
L 2906 0 
L 2906 525 
Q 2725 213 2448 61 
Q 2172 -91 1784 -91 
Q 1150 -91 751 415 
Q 353 922 353 1747 
Q 353 2572 751 3078 
Q 1150 3584 1784 3584 
Q 2172 3584 2448 3432 
Q 2725 3281 2906 2969 
z
M 947 1747 
Q 947 1113 1208 752 
Q 1469 391 1925 391 
Q 2381 391 2643 752 
Q 2906 1113 2906 1747 
Q 2906 2381 2643 2742 
Q 2381 3103 1925 3103 
Q 1469 3103 1208 2742 
Q 947 2381 947 1747 
z
" transform="scale(0.015625)"/>
       <path id="DejaVuSans-65" d="M 3597 1894 
L 3597 1613 
L 953 1613 
Q 991 1019 1311 708 
Q 1631 397 2203 397 
Q 2534 397 2845 478 
Q 3156 559 3463 722 
L 3463 178 
Q 3153 47 2828 -22 
Q 2503 -91 2169 -91 
Q 1331 -91 842 396 
Q 353 884 353 1716 
Q 353 2575 817 3079 
Q 1281 3584 2069 3584 
Q 2775 3584 3186 3129 
Q 3597 2675 3597 1894 
z
M 3022 2063 
Q 3016 2534 2758 2815 
Q 2500 3097 2075 3097 
Q 1594 3097 1305 2825 
Q 1016 2553 972 2059 
L 3022 2063 
z
" transform="scale(0.015625)"/>
       <path id="DejaVuSans-67" d="M 2906 1791 
Q 2906 2416 2648 2759 
Q 2391 3103 1925 3103 
Q 1463 3103 1205 2759 
Q 947 2416 947 1791 
Q 947 1169 1205 825 
Q 1463 481 1925 481 
Q 2391 481 2648 825 
Q 2906 1169 2906 1791 
z
M 3481 434 
Q 3481 -459 3084 -895 
Q 2688 -1331 1869 -1331 
Q 1566 -1331 1297 -1286 
Q 1028 -1241 775 -1147 
L 775 -588 
Q 1028 -725 1275 -790 
Q 1522 -856 1778 -856 
Q 2344 -856 2625 -561 
Q 2906 -266 2906 331 
L 2906 616 
Q 2728 306 2450 153 
Q 2172 0 1784 0 
Q 1141 0 747 490 
Q 353 981 353 1791 
Q 353 2603 747 3093 
Q 1141 3584 1784 3584 
Q 2172 3584 2450 3431 
Q 2728 3278 2906 2969 
L 2906 3500 
L 3481 3500 
L 3481 434 
z
" transform="scale(0.015625)"/>
       <path id="DejaVuSans-5d" d="M 1947 4863 
L 1947 -844 
L 622 -844 
L 622 -397 
L 1369 -397 
L 1369 4416 
L 622 4416 
L 622 4863 
L 1947 4863 
z
" transform="scale(0.015625)"/>
      </defs>
      <use xlink:href="#DejaVuSans-Oblique-3b8" transform="translate(0 0.234375)"/>
      <use xlink:href="#DejaVuSans-20" transform="translate(61.181641 0.234375)"/>
      <use xlink:href="#DejaVuSans-5b" transform="translate(92.96875 0.234375)"/>
      <use xlink:href="#DejaVuSans-64" transform="translate(131.982422 0.234375)"/>
      <use xlink:href="#DejaVuSans-65" transform="translate(195.458984 0.234375)"/>
      <use xlink:href="#DejaVuSans-67" transform="translate(256.982422 0.234375)"/>
      <use xlink:href="#DejaVuSans-5d" transform="translate(320.458984 0.234375)"/>
     </g>
    </g>
   </g>
   <g id="matplotlib.axis_2">
    <g id="ytick_1">
     <g id="line2d_13">
      <path d="M 57.6 295.493718 
L 414.72 295.493718 
" clip-path="url(#p4152945e3d)" style="fill: none; stroke: #b0b0b0; stroke-width: 0.8; stroke-linecap: square"/>
     </g>
     <g id="line2d_14">
      <defs>
       <path id="m2336a01792" d="M 0 0 
L -3.5 0 
" style="stroke: #000000; stroke-width: 0.8"/>
      </defs>
      <g>
       <use xlink:href="#m2336a01792" x="57.6" y="295.493718" style="stroke: #000000; stroke-width: 0.8"/>
      </g>
     </g>
     <g id="text_8">
      <!-- 0 -->
      <g transform="translate(44.2375 299.292937) scale(0.1 -0.1)">
       <use xlink:href="#DejaVuSans-30"/>
      </g>
     </g>
    </g>
    <g id="ytick_2">
     <g id="line2d_15">
      <path d="M 57.6 264.7729 
L 414.72 264.7729 
" clip-path="url(#p4152945e3d)" style="fill: none; stroke: #b0b0b0; stroke-width: 0.8; stroke-linecap: square"/>
     </g>
     <g id="line2d_16">
      <g>
       <use xlink:href="#m2336a01792" x="57.6" y="264.7729" style="stroke: #000000; stroke-width: 0.8"/>
      </g>
     </g>
     <g id="text_9">
      <!-- 20 -->
      <g transform="translate(37.875 268.572119) scale(0.1 -0.1)">
       <use xlink:href="#DejaVuSans-32"/>
       <use xlink:href="#DejaVuSans-30" x="63.623047"/>
      </g>
     </g>
    </g>
    <g id="ytick_3">
     <g id="line2d_17">
      <path d="M 57.6 234.052082 
L 414.72 234.052082 
" clip-path="url(#p4152945e3d)" style="fill: none; stroke: #b0b0b0; stroke-width: 0.8; stroke-linecap: square"/>
     </g>
     <g id="line2d_18">
      <g>
       <use xlink:href="#m2336a01792" x="57.6" y="234.052082" style="stroke: #000000; stroke-width: 0.8"/>
      </g>
     </g>
     <g id="text_10">
      <!-- 40 -->
      <g transform="translate(37.875 237.851301) scale(0.1 -0.1)">
       <use xlink:href="#DejaVuSans-34"/>
       <use xlink:href="#DejaVuSans-30" x="63.623047"/>
      </g>
     </g>
    </g>
    <g id="ytick_4">
     <g id="line2d_19">
      <path d="M 57.6 203.331264 
L 414.72 203.331264 
" clip-path="url(#p4152945e3d)" style="fill: none; stroke: #b0b0b0; stroke-width: 0.8; stroke-linecap: square"/>
     </g>
     <g id="line2d_20">
      <g>
       <use xlink:href="#m2336a01792" x="57.6" y="203.331264" style="stroke: #000000; stroke-width: 0.8"/>
      </g>
     </g>
     <g id="text_11">
      <!-- 60 -->
      <g transform="translate(37.875 207.130482) scale(0.1 -0.1)">
       <use xlink:href="#DejaVuSans-36"/>
       <use xlink:href="#DejaVuSans-30" x="63.623047"/>
      </g>
     </g>
    </g>
    <g id="ytick_5">
     <g id="line2d_21">
      <path d="M 57.6 172.610446 
L 414.72 172.610446 
" clip-path="url(#p4152945e3d)" style="fill: none; stroke: #b0b0b0; stroke-width: 0.8; stroke-linecap: square"/>
     </g>
     <g id="line2d_22">
      <g>
       <use xlink:href="#m2336a01792" x="57.6" y="172.610446" style="stroke: #000000; stroke-width: 0.8"/>
      </g>
     </g>
     <g id="text_12">
      <!-- 80 -->
      <g transform="translate(37.875 176.409664) scale(0.1 -0.1)">
       <use xlink:href="#DejaVuSans-38"/>
       <use xlink:href="#DejaVuSans-30" x="63.623047"/>
      </g>
     </g>
    </g>
    <g id="ytick_6">
     <g id="line2d_23">
      <path d="M 57.6 141.889628 
L 414.72 141.889628 
" clip-path="url(#p4152945e3d)" style="fill: none; stroke: #b0b0b0; stroke-width: 0.8; stroke-linecap: square"/>
     </g>
     <g id="line2d_24">
      <g>
       <use xlink:href="#m2336a01792" x="57.6" y="141.889628" style="stroke: #000000; stroke-width: 0.8"/>
      </g>
     </g>
     <g id="text_13">
      <!-- 100 -->
      <g transform="translate(31.5125 145.688846) scale(0.1 -0.1)">
       <use xlink:href="#DejaVuSans-31"/>
       <use xlink:href="#DejaVuSans-30" x="63.623047"/>
       <use xlink:href="#DejaVuSans-30" x="127.246094"/>
      </g>
     </g>
    </g>
    <g id="ytick_7">
     <g id="line2d_25">
      <path d="M 57.6 111.16881 
L 414.72 111.16881 
" clip-path="url(#p4152945e3d)" style="fill: none; stroke: #b0b0b0; stroke-width: 0.8; stroke-linecap: square"/>
     </g>
     <g id="line2d_26">
      <g>
       <use xlink:href="#m2336a01792" x="57.6" y="111.16881" style="stroke: #000000; stroke-width: 0.8"/>
      </g>
     </g>
     <g id="text_14">
      <!-- 120 -->
      <g transform="translate(31.5125 114.968028) scale(0.1 -0.1)">
       <use xlink:href="#DejaVuSans-31"/>
       <use xlink:href="#DejaVuSans-32" x="63.623047"/>
       <use xlink:href="#DejaVuSans-30" x="127.246094"/>
      </g>
     </g>
    </g>
    <g id="ytick_8">
     <g id="line2d_27">
      <path d="M 57.6 80.447992 
L 414.72 80.447992 
" clip-path="url(#p4152945e3d)" style="fill: none; stroke: #b0b0b0; stroke-width: 0.8; stroke-linecap: square"/>
     </g>
     <g id="line2d_28">
      <g>
       <use xlink:href="#m2336a01792" x="57.6" y="80.447992" style="stroke: #000000; stroke-width: 0.8"/>
      </g>
     </g>
     <g id="text_15">
      <!-- 140 -->
      <g transform="translate(31.5125 84.24721) scale(0.1 -0.1)">
       <use xlink:href="#DejaVuSans-31"/>
       <use xlink:href="#DejaVuSans-34" x="63.623047"/>
       <use xlink:href="#DejaVuSans-30" x="127.246094"/>
      </g>
     </g>
    </g>
    <g id="ytick_9">
     <g id="line2d_29">
      <path d="M 57.6 49.727174 
L 414.72 49.727174 
" clip-path="url(#p4152945e3d)" style="fill: none; stroke: #b0b0b0; stroke-width: 0.8; stroke-linecap: square"/>
     </g>
     <g id="line2d_30">
      <g>
       <use xlink:href="#m2336a01792" x="57.6" y="49.727174" style="stroke: #000000; stroke-width: 0.8"/>
      </g>
     </g>
     <g id="text_16">
      <!-- 160 -->
      <g transform="translate(31.5125 53.526392) scale(0.1 -0.1)">
       <use xlink:href="#DejaVuSans-31"/>
       <use xlink:href="#DejaVuSans-36" x="63.623047"/>
       <use xlink:href="#DejaVuSans-30" x="127.246094"/>
      </g>
     </g>
    </g>
    <g id="text_17">
     <!-- I [$\mu$ Amper] -->
     <g transform="translate(25.4125 202.878) rotate(-90) scale(0.1 -0.1)">
      <defs>
       <path id="DejaVuSans-49" d="M 628 4666 
L 1259 4666 
L 1259 0 
L 628 0 
L 628 4666 
z
" transform="scale(0.015625)"/>
       <path id="DejaVuSans-Oblique-3bc" d="M -84 -1331 
L 856 3500 
L 1434 3500 
L 1009 1322 
Q 997 1256 987 1175 
Q 978 1094 978 1013 
Q 978 722 1161 565 
Q 1344 409 1684 409 
Q 2147 409 2431 671 
Q 2716 934 2816 1459 
L 3213 3500 
L 3788 3500 
L 3266 809 
Q 3253 750 3248 706 
Q 3244 663 3244 628 
Q 3244 531 3283 486 
Q 3322 441 3406 441 
Q 3438 441 3492 456 
Q 3547 472 3647 513 
L 3559 50 
Q 3422 -19 3297 -55 
Q 3172 -91 3053 -91 
Q 2847 -91 2730 40 
Q 2613 172 2613 403 
Q 2438 153 2195 31 
Q 1953 -91 1625 -91 
Q 1334 -91 1117 43 
Q 900 178 831 397 
L 494 -1331 
L -84 -1331 
z
" transform="scale(0.015625)"/>
       <path id="DejaVuSans-41" d="M 2188 4044 
L 1331 1722 
L 3047 1722 
L 2188 4044 
z
M 1831 4666 
L 2547 4666 
L 4325 0 
L 3669 0 
L 3244 1197 
L 1141 1197 
L 716 0 
L 50 0 
L 1831 4666 
z
" transform="scale(0.015625)"/>
       <path id="DejaVuSans-6d" d="M 3328 2828 
Q 3544 3216 3844 3400 
Q 4144 3584 4550 3584 
Q 5097 3584 5394 3201 
Q 5691 2819 5691 2113 
L 5691 0 
L 5113 0 
L 5113 2094 
Q 5113 2597 4934 2840 
Q 4756 3084 4391 3084 
Q 3944 3084 3684 2787 
Q 3425 2491 3425 1978 
L 3425 0 
L 2847 0 
L 2847 2094 
Q 2847 2600 2669 2842 
Q 2491 3084 2119 3084 
Q 1678 3084 1418 2786 
Q 1159 2488 1159 1978 
L 1159 0 
L 581 0 
L 581 3500 
L 1159 3500 
L 1159 2956 
Q 1356 3278 1631 3431 
Q 1906 3584 2284 3584 
Q 2666 3584 2933 3390 
Q 3200 3197 3328 2828 
z
" transform="scale(0.015625)"/>
       <path id="DejaVuSans-70" d="M 1159 525 
L 1159 -1331 
L 581 -1331 
L 581 3500 
L 1159 3500 
L 1159 2969 
Q 1341 3281 1617 3432 
Q 1894 3584 2278 3584 
Q 2916 3584 3314 3078 
Q 3713 2572 3713 1747 
Q 3713 922 3314 415 
Q 2916 -91 2278 -91 
Q 1894 -91 1617 61 
Q 1341 213 1159 525 
z
M 3116 1747 
Q 3116 2381 2855 2742 
Q 2594 3103 2138 3103 
Q 1681 3103 1420 2742 
Q 1159 2381 1159 1747 
Q 1159 1113 1420 752 
Q 1681 391 2138 391 
Q 2594 391 2855 752 
Q 3116 1113 3116 1747 
z
" transform="scale(0.015625)"/>
       <path id="DejaVuSans-72" d="M 2631 2963 
Q 2534 3019 2420 3045 
Q 2306 3072 2169 3072 
Q 1681 3072 1420 2755 
Q 1159 2438 1159 1844 
L 1159 0 
L 581 0 
L 581 3500 
L 1159 3500 
L 1159 2956 
Q 1341 3275 1631 3429 
Q 1922 3584 2338 3584 
Q 2397 3584 2469 3576 
Q 2541 3569 2628 3553 
L 2631 2963 
z
" transform="scale(0.015625)"/>
      </defs>
      <use xlink:href="#DejaVuSans-49" transform="translate(0 0.015625)"/>
      <use xlink:href="#DejaVuSans-20" transform="translate(29.492188 0.015625)"/>
      <use xlink:href="#DejaVuSans-5b" transform="translate(61.279297 0.015625)"/>
      <use xlink:href="#DejaVuSans-Oblique-3bc" transform="translate(100.292969 0.015625)"/>
      <use xlink:href="#DejaVuSans-20" transform="translate(163.916016 0.015625)"/>
      <use xlink:href="#DejaVuSans-41" transform="translate(195.703125 0.015625)"/>
      <use xlink:href="#DejaVuSans-6d" transform="translate(264.111328 0.015625)"/>
      <use xlink:href="#DejaVuSans-70" transform="translate(361.523438 0.015625)"/>
      <use xlink:href="#DejaVuSans-65" transform="translate(425 0.015625)"/>
      <use xlink:href="#DejaVuSans-72" transform="translate(486.523438 0.015625)"/>
      <use xlink:href="#DejaVuSans-5d" transform="translate(527.636719 0.015625)"/>
     </g>
    </g>
   </g>
   <g id="line2d_31">
    <defs>
     <path id="m35a1864df9" d="M 0 1.5 
C 0.397805 1.5 0.77937 1.341951 1.06066 1.06066 
C 1.341951 0.77937 1.5 0.397805 1.5 0 
C 1.5 -0.397805 1.341951 -0.77937 1.06066 -1.06066 
C 0.77937 -1.341951 0.397805 -1.5 0 -1.5 
C -0.397805 -1.5 -0.77937 -1.341951 -1.06066 -1.06066 
C -1.341951 -0.77937 -1.5 -0.397805 -1.5 0 
C -1.5 0.397805 -1.341951 0.77937 -1.06066 1.06066 
C -0.77937 1.341951 -0.397805 1.5 0 1.5 
z
" style="stroke: #0000ff"/>
    </defs>
    <g clip-path="url(#p4152945e3d)">
     <use xlink:href="#m35a1864df9" x="89.805138" y="85.056821" style="fill: #0000ff; stroke: #0000ff"/>
     <use xlink:href="#m35a1864df9" x="114.894543" y="69.696412" style="fill: #0000ff; stroke: #0000ff"/>
     <use xlink:href="#m35a1864df9" x="131.620813" y="65.088289" style="fill: #0000ff; stroke: #0000ff"/>
     <use xlink:href="#m35a1864df9" x="145.559371" y="74.304535" style="fill: #0000ff; stroke: #0000ff"/>
     <use xlink:href="#m35a1864df9" x="159.49793" y="89.664944" style="fill: #0000ff; stroke: #0000ff"/>
     <use xlink:href="#m35a1864df9" x="173.436488" y="101.953271" style="fill: #0000ff; stroke: #0000ff"/>
     <use xlink:href="#m35a1864df9" x="187.375046" y="121.921802" style="fill: #0000ff; stroke: #0000ff"/>
     <use xlink:href="#m35a1864df9" x="201.313604" y="137.282211" style="fill: #0000ff; stroke: #0000ff"/>
     <use xlink:href="#m35a1864df9" x="215.252163" y="157.250743" style="fill: #0000ff; stroke: #0000ff"/>
     <use xlink:href="#m35a1864df9" x="229.190721" y="175.683234" style="fill: #0000ff; stroke: #0000ff"/>
     <use xlink:href="#m35a1864df9" x="243.129279" y="195.651766" style="fill: #0000ff; stroke: #0000ff"/>
     <use xlink:href="#m35a1864df9" x="257.067837" y="211.012175" style="fill: #0000ff; stroke: #0000ff"/>
     <use xlink:href="#m35a1864df9" x="271.006396" y="232.516747" style="fill: #0000ff; stroke: #0000ff"/>
     <use xlink:href="#m35a1864df9" x="284.944954" y="244.805075" style="fill: #0000ff; stroke: #0000ff"/>
     <use xlink:href="#m35a1864df9" x="298.883512" y="263.237565" style="fill: #0000ff; stroke: #0000ff"/>
     <use xlink:href="#m35a1864df9" x="312.82207" y="273.52904" style="fill: #0000ff; stroke: #0000ff"/>
     <use xlink:href="#m35a1864df9" x="326.760629" y="282.745285" style="fill: #0000ff; stroke: #0000ff"/>
     <use xlink:href="#m35a1864df9" x="340.699187" y="290.271885" style="fill: #0000ff; stroke: #0000ff"/>
     <use xlink:href="#m35a1864df9" x="354.637745" y="294.910729" style="fill: #0000ff; stroke: #0000ff"/>
     <use xlink:href="#m35a1864df9" x="368.576303" y="295.425303" style="fill: #0000ff; stroke: #0000ff"/>
     <use xlink:href="#m35a1864df9" x="371.364015" y="294.803206" style="fill: #0000ff; stroke: #0000ff"/>
     <use xlink:href="#m35a1864df9" x="374.151727" y="292.69883" style="fill: #0000ff; stroke: #0000ff"/>
     <use xlink:href="#m35a1864df9" x="382.514862" y="292.622028" style="fill: #0000ff; stroke: #0000ff"/>
    </g>
   </g>
   <g id="LineCollection_1">
    <path d="M 89.805138 85.056821 
L 89.805138 85.056821 
" clip-path="url(#p4152945e3d)" style="fill: none; stroke: #008000; stroke-width: 1.5"/>
    <path d="M 114.894543 69.696412 
L 114.894543 69.696412 
" clip-path="url(#p4152945e3d)" style="fill: none; stroke: #008000; stroke-width: 1.5"/>
    <path d="M 131.620813 65.088289 
L 131.620813 65.088289 
" clip-path="url(#p4152945e3d)" style="fill: none; stroke: #008000; stroke-width: 1.5"/>
    <path d="M 145.559371 74.304535 
L 145.559371 74.304535 
" clip-path="url(#p4152945e3d)" style="fill: none; stroke: #008000; stroke-width: 1.5"/>
    <path d="M 159.49793 89.664944 
L 159.49793 89.664944 
" clip-path="url(#p4152945e3d)" style="fill: none; stroke: #008000; stroke-width: 1.5"/>
    <path d="M 173.436488 101.953271 
L 173.436488 101.953271 
" clip-path="url(#p4152945e3d)" style="fill: none; stroke: #008000; stroke-width: 1.5"/>
    <path d="M 187.375046 121.921802 
L 187.375046 121.921802 
" clip-path="url(#p4152945e3d)" style="fill: none; stroke: #008000; stroke-width: 1.5"/>
    <path d="M 201.313604 137.282211 
L 201.313604 137.282211 
" clip-path="url(#p4152945e3d)" style="fill: none; stroke: #008000; stroke-width: 1.5"/>
    <path d="M 215.252163 157.250743 
L 215.252163 157.250743 
" clip-path="url(#p4152945e3d)" style="fill: none; stroke: #008000; stroke-width: 1.5"/>
    <path d="M 229.190721 175.683234 
L 229.190721 175.683234 
" clip-path="url(#p4152945e3d)" style="fill: none; stroke: #008000; stroke-width: 1.5"/>
    <path d="M 243.129279 195.651766 
L 243.129279 195.651766 
" clip-path="url(#p4152945e3d)" style="fill: none; stroke: #008000; stroke-width: 1.5"/>
    <path d="M 257.067837 211.012175 
L 257.067837 211.012175 
" clip-path="url(#p4152945e3d)" style="fill: none; stroke: #008000; stroke-width: 1.5"/>
    <path d="M 271.006396 232.516747 
L 271.006396 232.516747 
" clip-path="url(#p4152945e3d)" style="fill: none; stroke: #008000; stroke-width: 1.5"/>
    <path d="M 284.944954 244.805075 
L 284.944954 244.805075 
" clip-path="url(#p4152945e3d)" style="fill: none; stroke: #008000; stroke-width: 1.5"/>
    <path d="M 298.883512 263.237565 
L 298.883512 263.237565 
" clip-path="url(#p4152945e3d)" style="fill: none; stroke: #008000; stroke-width: 1.5"/>
    <path d="M 312.82207 273.52904 
L 312.82207 273.52904 
" clip-path="url(#p4152945e3d)" style="fill: none; stroke: #008000; stroke-width: 1.5"/>
    <path d="M 326.760629 282.745285 
L 326.760629 282.745285 
" clip-path="url(#p4152945e3d)" style="fill: none; stroke: #008000; stroke-width: 1.5"/>
    <path d="M 340.699187 290.271885 
L 340.699187 290.271885 
" clip-path="url(#p4152945e3d)" style="fill: none; stroke: #008000; stroke-width: 1.5"/>
    <path d="M 354.637745 294.910729 
L 354.637745 294.910729 
" clip-path="url(#p4152945e3d)" style="fill: none; stroke: #008000; stroke-width: 1.5"/>
    <path d="M 368.576303 295.425303 
L 368.576303 295.425303 
" clip-path="url(#p4152945e3d)" style="fill: none; stroke: #008000; stroke-width: 1.5"/>
    <path d="M 371.364015 294.803206 
L 371.364015 294.803206 
" clip-path="url(#p4152945e3d)" style="fill: none; stroke: #008000; stroke-width: 1.5"/>
    <path d="M 374.151727 292.69883 
L 374.151727 292.69883 
" clip-path="url(#p4152945e3d)" style="fill: none; stroke: #008000; stroke-width: 1.5"/>
    <path d="M 382.514862 292.622028 
L 382.514862 292.622028 
" clip-path="url(#p4152945e3d)" style="fill: none; stroke: #008000; stroke-width: 1.5"/>
   </g>
   <g id="LineCollection_2">
    <path d="M 89.805138 95.578683 
L 89.805138 74.534958 
" clip-path="url(#p4152945e3d)" style="fill: none; stroke: #008000; stroke-width: 1.5"/>
    <path d="M 114.894543 80.986295 
L 114.894543 58.406529 
" clip-path="url(#p4152945e3d)" style="fill: none; stroke: #008000; stroke-width: 1.5"/>
    <path d="M 131.620813 76.608578 
L 131.620813 53.568 
" clip-path="url(#p4152945e3d)" style="fill: none; stroke: #008000; stroke-width: 1.5"/>
    <path d="M 145.559371 85.364011 
L 145.559371 63.245058 
" clip-path="url(#p4152945e3d)" style="fill: none; stroke: #008000; stroke-width: 1.5"/>
    <path d="M 159.49793 99.9564 
L 159.49793 79.373487 
" clip-path="url(#p4152945e3d)" style="fill: none; stroke: #008000; stroke-width: 1.5"/>
    <path d="M 173.436488 111.630311 
L 173.436488 92.276231 
" clip-path="url(#p4152945e3d)" style="fill: none; stroke: #008000; stroke-width: 1.5"/>
    <path d="M 187.375046 130.600416 
L 187.375046 113.243189 
" clip-path="url(#p4152945e3d)" style="fill: none; stroke: #008000; stroke-width: 1.5"/>
    <path d="M 201.313604 145.192804 
L 201.313604 129.371619 
" clip-path="url(#p4152945e3d)" style="fill: none; stroke: #008000; stroke-width: 1.5"/>
    <path d="M 215.252163 164.16291 
L 215.252163 150.338577 
" clip-path="url(#p4152945e3d)" style="fill: none; stroke: #008000; stroke-width: 1.5"/>
    <path d="M 229.190721 181.673776 
L 229.190721 169.692692 
" clip-path="url(#p4152945e3d)" style="fill: none; stroke: #008000; stroke-width: 1.5"/>
    <path d="M 243.129279 200.643881 
L 243.129279 190.659651 
" clip-path="url(#p4152945e3d)" style="fill: none; stroke: #008000; stroke-width: 1.5"/>
    <path d="M 257.067837 215.23627 
L 257.067837 206.78808 
" clip-path="url(#p4152945e3d)" style="fill: none; stroke: #008000; stroke-width: 1.5"/>
    <path d="M 271.006396 235.665614 
L 271.006396 229.367881 
" clip-path="url(#p4152945e3d)" style="fill: none; stroke: #008000; stroke-width: 1.5"/>
    <path d="M 284.944954 247.339524 
L 284.944954 242.270625 
" clip-path="url(#p4152945e3d)" style="fill: none; stroke: #008000; stroke-width: 1.5"/>
    <path d="M 298.883512 264.850391 
L 298.883512 261.62474 
" clip-path="url(#p4152945e3d)" style="fill: none; stroke: #008000; stroke-width: 1.5"/>
    <path d="M 312.82207 274.627291 
L 312.82207 272.430788 
" clip-path="url(#p4152945e3d)" style="fill: none; stroke: #008000; stroke-width: 1.5"/>
    <path d="M 326.760629 283.382724 
L 326.760629 282.107846 
" clip-path="url(#p4152945e3d)" style="fill: none; stroke: #008000; stroke-width: 1.5"/>
    <path d="M 340.699187 290.532995 
L 340.699187 290.010776 
" clip-path="url(#p4152945e3d)" style="fill: none; stroke: #008000; stroke-width: 1.5"/>
    <path d="M 354.637745 294.939896 
L 354.637745 294.881562 
" clip-path="url(#p4152945e3d)" style="fill: none; stroke: #008000; stroke-width: 1.5"/>
    <path d="M 368.576303 295.428741 
L 368.576303 295.421864 
" clip-path="url(#p4152945e3d)" style="fill: none; stroke: #008000; stroke-width: 1.5"/>
    <path d="M 371.364015 294.837749 
L 371.364015 294.768663 
" clip-path="url(#p4152945e3d)" style="fill: none; stroke: #008000; stroke-width: 1.5"/>
    <path d="M 374.151727 292.838592 
L 374.151727 292.559068 
" clip-path="url(#p4152945e3d)" style="fill: none; stroke: #008000; stroke-width: 1.5"/>
    <path d="M 382.514862 292.76563 
L 382.514862 292.478426 
" clip-path="url(#p4152945e3d)" style="fill: none; stroke: #008000; stroke-width: 1.5"/>
   </g>
   <g id="line2d_32">
    <path d="M 73.832727 82.279999 
L 77.112066 80.307081 
L 80.391405 78.507282 
L 83.670744 76.883637 
L 86.950083 75.438883 
L 90.229421 74.175456 
L 93.50876 73.095486 
L 96.788099 72.200794 
L 100.067438 71.492887 
L 103.346777 70.97296 
L 106.626116 70.641888 
L 109.905455 70.500231 
L 113.184793 70.548226 
L 116.464132 70.785794 
L 119.743471 71.212532 
L 123.02281 71.827723 
L 126.302149 72.630329 
L 129.581488 73.618996 
L 132.860826 74.792058 
L 136.140165 76.147538 
L 139.419504 77.683149 
L 142.698843 79.396304 
L 145.978182 81.284114 
L 149.257521 83.343396 
L 152.53686 85.570679 
L 155.816198 87.962207 
L 159.095537 90.513949 
L 162.374876 93.221604 
L 165.654215 96.080605 
L 168.933554 99.086133 
L 172.212893 102.233121 
L 175.492231 105.516263 
L 178.77157 108.930025 
L 182.050909 112.468652 
L 185.330248 116.126176 
L 188.609587 119.896434 
L 191.888926 123.773067 
L 195.168264 127.74954 
L 198.447603 131.81915 
L 201.726942 135.975036 
L 205.006281 140.210191 
L 208.28562 144.517475 
L 211.564959 148.889626 
L 214.844298 153.319274 
L 218.123636 157.798951 
L 221.402975 162.321104 
L 224.682314 166.87811 
L 227.961653 171.462285 
L 231.240992 176.065902 
L 234.520331 180.681199 
L 237.799669 185.300395 
L 241.079008 189.915703 
L 244.358347 194.519342 
L 247.637686 199.10355 
L 250.917025 203.6606 
L 254.196364 208.182808 
L 257.475702 212.66255 
L 260.755041 217.092275 
L 264.03438 221.464513 
L 267.313719 225.771895 
L 270.593058 230.007157 
L 273.872397 234.163161 
L 277.151736 238.232899 
L 280.431074 242.20951 
L 283.710413 246.086289 
L 286.989752 249.856702 
L 290.269091 253.514392 
L 293.54843 257.053192 
L 296.827769 260.467136 
L 300.107107 263.750468 
L 303.386446 266.897654 
L 306.665785 269.903387 
L 309.945124 272.7626 
L 313.224463 275.470472 
L 316.503802 278.022439 
L 319.78314 280.414199 
L 323.062479 282.641718 
L 326.341818 284.701242 
L 329.621157 286.589298 
L 332.900496 288.302703 
L 336.179835 289.838569 
L 339.459174 291.194307 
L 342.738512 292.36763 
L 346.017851 293.356561 
L 349.29719 294.159432 
L 352.576529 294.77489 
L 355.855868 295.201898 
L 359.135207 295.439735 
L 362.414545 295.488 
L 365.693884 295.346612 
L 368.973223 295.01581 
L 372.252562 294.496151 
L 375.531901 293.788511 
L 378.81124 292.894083 
L 382.090579 291.814375 
L 385.369917 290.551208 
L 388.649256 289.10671 
L 391.928595 287.483318 
L 395.207934 285.683768 
L 398.487273 283.711094 
" clip-path="url(#p4152945e3d)" style="fill: none; stroke-dasharray: 5.55,2.4; stroke-dashoffset: 0; stroke: #ff0000; stroke-width: 1.5"/>
   </g>
   <g id="patch_3">
    <path d="M 57.6 307.584 
L 57.6 41.472 
" style="fill: none; stroke: #000000; stroke-width: 0.8; stroke-linejoin: miter; stroke-linecap: square"/>
   </g>
   <g id="patch_4">
    <path d="M 414.72 307.584 
L 414.72 41.472 
" style="fill: none; stroke: #000000; stroke-width: 0.8; stroke-linejoin: miter; stroke-linecap: square"/>
   </g>
   <g id="patch_5">
    <path d="M 57.6 307.584 
L 414.72 307.584 
" style="fill: none; stroke: #000000; stroke-width: 0.8; stroke-linejoin: miter; stroke-linecap: square"/>
   </g>
   <g id="patch_6">
    <path d="M 57.6 41.472 
L 414.72 41.472 
" style="fill: none; stroke: #000000; stroke-width: 0.8; stroke-linejoin: miter; stroke-linecap: square"/>
   </g>
   <g id="text_18">
    <!-- malus law 2 polarizers -->
    <g transform="translate(168.864375 35.472) scale(0.12 -0.12)">
     <defs>
      <path id="DejaVuSans-61" d="M 2194 1759 
Q 1497 1759 1228 1600 
Q 959 1441 959 1056 
Q 959 750 1161 570 
Q 1363 391 1709 391 
Q 2188 391 2477 730 
Q 2766 1069 2766 1631 
L 2766 1759 
L 2194 1759 
z
M 3341 1997 
L 3341 0 
L 2766 0 
L 2766 531 
Q 2569 213 2275 61 
Q 1981 -91 1556 -91 
Q 1019 -91 701 211 
Q 384 513 384 1019 
Q 384 1609 779 1909 
Q 1175 2209 1959 2209 
L 2766 2209 
L 2766 2266 
Q 2766 2663 2505 2880 
Q 2244 3097 1772 3097 
Q 1472 3097 1187 3025 
Q 903 2953 641 2809 
L 641 3341 
Q 956 3463 1253 3523 
Q 1550 3584 1831 3584 
Q 2591 3584 2966 3190 
Q 3341 2797 3341 1997 
z
" transform="scale(0.015625)"/>
      <path id="DejaVuSans-6c" d="M 603 4863 
L 1178 4863 
L 1178 0 
L 603 0 
L 603 4863 
z
" transform="scale(0.015625)"/>
      <path id="DejaVuSans-75" d="M 544 1381 
L 544 3500 
L 1119 3500 
L 1119 1403 
Q 1119 906 1312 657 
Q 1506 409 1894 409 
Q 2359 409 2629 706 
Q 2900 1003 2900 1516 
L 2900 3500 
L 3475 3500 
L 3475 0 
L 2900 0 
L 2900 538 
Q 2691 219 2414 64 
Q 2138 -91 1772 -91 
Q 1169 -91 856 284 
Q 544 659 544 1381 
z
M 1991 3584 
L 1991 3584 
z
" transform="scale(0.015625)"/>
      <path id="DejaVuSans-73" d="M 2834 3397 
L 2834 2853 
Q 2591 2978 2328 3040 
Q 2066 3103 1784 3103 
Q 1356 3103 1142 2972 
Q 928 2841 928 2578 
Q 928 2378 1081 2264 
Q 1234 2150 1697 2047 
L 1894 2003 
Q 2506 1872 2764 1633 
Q 3022 1394 3022 966 
Q 3022 478 2636 193 
Q 2250 -91 1575 -91 
Q 1294 -91 989 -36 
Q 684 19 347 128 
L 347 722 
Q 666 556 975 473 
Q 1284 391 1588 391 
Q 1994 391 2212 530 
Q 2431 669 2431 922 
Q 2431 1156 2273 1281 
Q 2116 1406 1581 1522 
L 1381 1569 
Q 847 1681 609 1914 
Q 372 2147 372 2553 
Q 372 3047 722 3315 
Q 1072 3584 1716 3584 
Q 2034 3584 2315 3537 
Q 2597 3491 2834 3397 
z
" transform="scale(0.015625)"/>
      <path id="DejaVuSans-77" d="M 269 3500 
L 844 3500 
L 1563 769 
L 2278 3500 
L 2956 3500 
L 3675 769 
L 4391 3500 
L 4966 3500 
L 4050 0 
L 3372 0 
L 2619 2869 
L 1863 0 
L 1184 0 
L 269 3500 
z
" transform="scale(0.015625)"/>
      <path id="DejaVuSans-6f" d="M 1959 3097 
Q 1497 3097 1228 2736 
Q 959 2375 959 1747 
Q 959 1119 1226 758 
Q 1494 397 1959 397 
Q 2419 397 2687 759 
Q 2956 1122 2956 1747 
Q 2956 2369 2687 2733 
Q 2419 3097 1959 3097 
z
M 1959 3584 
Q 2709 3584 3137 3096 
Q 3566 2609 3566 1747 
Q 3566 888 3137 398 
Q 2709 -91 1959 -91 
Q 1206 -91 779 398 
Q 353 888 353 1747 
Q 353 2609 779 3096 
Q 1206 3584 1959 3584 
z
" transform="scale(0.015625)"/>
      <path id="DejaVuSans-69" d="M 603 3500 
L 1178 3500 
L 1178 0 
L 603 0 
L 603 3500 
z
M 603 4863 
L 1178 4863 
L 1178 4134 
L 603 4134 
L 603 4863 
z
" transform="scale(0.015625)"/>
      <path id="DejaVuSans-7a" d="M 353 3500 
L 3084 3500 
L 3084 2975 
L 922 459 
L 3084 459 
L 3084 0 
L 275 0 
L 275 525 
L 2438 3041 
L 353 3041 
L 353 3500 
z
" transform="scale(0.015625)"/>
     </defs>
     <use xlink:href="#DejaVuSans-6d"/>
     <use xlink:href="#DejaVuSans-61" x="97.412109"/>
     <use xlink:href="#DejaVuSans-6c" x="158.691406"/>
     <use xlink:href="#DejaVuSans-75" x="186.474609"/>
     <use xlink:href="#DejaVuSans-73" x="249.853516"/>
     <use xlink:href="#DejaVuSans-20" x="301.953125"/>
     <use xlink:href="#DejaVuSans-6c" x="333.740234"/>
     <use xlink:href="#DejaVuSans-61" x="361.523438"/>
     <use xlink:href="#DejaVuSans-77" x="422.802734"/>
     <use xlink:href="#DejaVuSans-20" x="504.589844"/>
     <use xlink:href="#DejaVuSans-32" x="536.376953"/>
     <use xlink:href="#DejaVuSans-20" x="600"/>
     <use xlink:href="#DejaVuSans-70" x="631.787109"/>
     <use xlink:href="#DejaVuSans-6f" x="695.263672"/>
     <use xlink:href="#DejaVuSans-6c" x="756.445312"/>
     <use xlink:href="#DejaVuSans-61" x="784.228516"/>
     <use xlink:href="#DejaVuSans-72" x="845.507812"/>
     <use xlink:href="#DejaVuSans-69" x="886.621094"/>
     <use xlink:href="#DejaVuSans-7a" x="914.404297"/>
     <use xlink:href="#DejaVuSans-65" x="966.894531"/>
     <use xlink:href="#DejaVuSans-72" x="1028.417969"/>
     <use xlink:href="#DejaVuSans-73" x="1069.53125"/>
    </g>
   </g>
  </g>
 </g>
 <defs>
  <clipPath id="p4152945e3d">
   <rect x="57.6" y="41.472" width="357.12" height="266.112"/>
  </clipPath>
 </defs>
</svg>
