<?xml version="1.0" encoding="utf-8" standalone="no"?>
<!DOCTYPE svg PUBLIC "-//W3C//DTD SVG 1.1//EN"
  "http://www.w3.org/Graphics/SVG/1.1/DTD/svg11.dtd">
<svg xmlns:xlink="http://www.w3.org/1999/xlink" width="460.8pt" height="345.6pt" viewBox="0 0 460.8 345.6" xmlns="http://www.w3.org/2000/svg" version="1.1">
 <metadata>
  <rdf:RDF xmlns:dc="http://purl.org/dc/elements/1.1/" xmlns:cc="http://creativecommons.org/ns#" xmlns:rdf="http://www.w3.org/1999/02/22-rdf-syntax-ns#">
   <cc:Work>
    <dc:type rdf:resource="http://purl.org/dc/dcmitype/StillImage"/>
    <dc:date>2023-01-10T19:45:23.133072</dc:date>
    <dc:format>image/svg+xml</dc:format>
    <dc:creator>
     <cc:Agent>
      <dc:title>Matplotlib v3.6.2, https://matplotlib.org/</dc:title>
     </cc:Agent>
    </dc:creator>
   </cc:Work>
  </rdf:RDF>
 </metadata>
 <defs>
  <style type="text/css">*{stroke-linejoin: round; stroke-linecap: butt}</style>
 </defs>
 <g id="figure_1">
  <g id="patch_1">
   <path d="M 0 345.6 
L 460.8 345.6 
L 460.8 0 
L 0 0 
z
" style="fill: #ffffff"/>
  </g>
  <g id="axes_1">
   <g id="patch_2">
    <path d="M 57.6 307.584 
L 414.72 307.584 
L 414.72 41.472 
L 57.6 41.472 
z
" style="fill: #ffffff"/>
   </g>
   <g id="matplotlib.axis_1">
    <g id="xtick_1">
     <g id="line2d_1">
      <path d="M 96.667895 307.584 
L 96.667895 41.472 
" clip-path="url(#pd06eb9fb88)" style="fill: none; stroke: #b0b0b0; stroke-width: 0.8; stroke-linecap: square"/>
     </g>
     <g id="line2d_2">
      <defs>
       <path id="m9c909ef2ec" d="M 0 0 
L 0 3.5 
" style="stroke: #000000; stroke-width: 0.8"/>
      </defs>
      <g>
       <use xlink:href="#m9c909ef2ec" x="96.667895" y="307.584" style="stroke: #000000; stroke-width: 0.8"/>
      </g>
     </g>
     <g id="text_1">
      <!-- 0.0 -->
      <g transform="translate(88.716333 322.182437) scale(0.1 -0.1)">
       <defs>
        <path id="DejaVuSans-30" d="M 2034 4250 
Q 1547 4250 1301 3770 
Q 1056 3291 1056 2328 
Q 1056 1369 1301 889 
Q 1547 409 2034 409 
Q 2525 409 2770 889 
Q 3016 1369 3016 2328 
Q 3016 3291 2770 3770 
Q 2525 4250 2034 4250 
z
M 2034 4750 
Q 2819 4750 3233 4129 
Q 3647 3509 3647 2328 
Q 3647 1150 3233 529 
Q 2819 -91 2034 -91 
Q 1250 -91 836 529 
Q 422 1150 422 2328 
Q 422 3509 836 4129 
Q 1250 4750 2034 4750 
z
" transform="scale(0.015625)"/>
        <path id="DejaVuSans-2e" d="M 684 794 
L 1344 794 
L 1344 0 
L 684 0 
L 684 794 
z
" transform="scale(0.015625)"/>
       </defs>
       <use xlink:href="#DejaVuSans-30"/>
       <use xlink:href="#DejaVuSans-2e" x="63.623047"/>
       <use xlink:href="#DejaVuSans-30" x="95.410156"/>
      </g>
     </g>
    </g>
    <g id="xtick_2">
     <g id="line2d_3">
      <path d="M 142.338232 307.584 
L 142.338232 41.472 
" clip-path="url(#pd06eb9fb88)" style="fill: none; stroke: #b0b0b0; stroke-width: 0.8; stroke-linecap: square"/>
     </g>
     <g id="line2d_4">
      <g>
       <use xlink:href="#m9c909ef2ec" x="142.338232" y="307.584" style="stroke: #000000; stroke-width: 0.8"/>
      </g>
     </g>
     <g id="text_2">
      <!-- 0.2 -->
      <g transform="translate(134.386669 322.182437) scale(0.1 -0.1)">
       <defs>
        <path id="DejaVuSans-32" d="M 1228 531 
L 3431 531 
L 3431 0 
L 469 0 
L 469 531 
Q 828 903 1448 1529 
Q 2069 2156 2228 2338 
Q 2531 2678 2651 2914 
Q 2772 3150 2772 3378 
Q 2772 3750 2511 3984 
Q 2250 4219 1831 4219 
Q 1534 4219 1204 4116 
Q 875 4013 500 3803 
L 500 4441 
Q 881 4594 1212 4672 
Q 1544 4750 1819 4750 
Q 2544 4750 2975 4387 
Q 3406 4025 3406 3419 
Q 3406 3131 3298 2873 
Q 3191 2616 2906 2266 
Q 2828 2175 2409 1742 
Q 1991 1309 1228 531 
z
" transform="scale(0.015625)"/>
       </defs>
       <use xlink:href="#DejaVuSans-30"/>
       <use xlink:href="#DejaVuSans-2e" x="63.623047"/>
       <use xlink:href="#DejaVuSans-32" x="95.410156"/>
      </g>
     </g>
    </g>
    <g id="xtick_3">
     <g id="line2d_5">
      <path d="M 188.008568 307.584 
L 188.008568 41.472 
" clip-path="url(#pd06eb9fb88)" style="fill: none; stroke: #b0b0b0; stroke-width: 0.8; stroke-linecap: square"/>
     </g>
     <g id="line2d_6">
      <g>
       <use xlink:href="#m9c909ef2ec" x="188.008568" y="307.584" style="stroke: #000000; stroke-width: 0.8"/>
      </g>
     </g>
     <g id="text_3">
      <!-- 0.4 -->
      <g transform="translate(180.057006 322.182437) scale(0.1 -0.1)">
       <defs>
        <path id="DejaVuSans-34" d="M 2419 4116 
L 825 1625 
L 2419 1625 
L 2419 4116 
z
M 2253 4666 
L 3047 4666 
L 3047 1625 
L 3713 1625 
L 3713 1100 
L 3047 1100 
L 3047 0 
L 2419 0 
L 2419 1100 
L 313 1100 
L 313 1709 
L 2253 4666 
z
" transform="scale(0.015625)"/>
       </defs>
       <use xlink:href="#DejaVuSans-30"/>
       <use xlink:href="#DejaVuSans-2e" x="63.623047"/>
       <use xlink:href="#DejaVuSans-34" x="95.410156"/>
      </g>
     </g>
    </g>
    <g id="xtick_4">
     <g id="line2d_7">
      <path d="M 233.678905 307.584 
L 233.678905 41.472 
" clip-path="url(#pd06eb9fb88)" style="fill: none; stroke: #b0b0b0; stroke-width: 0.8; stroke-linecap: square"/>
     </g>
     <g id="line2d_8">
      <g>
       <use xlink:href="#m9c909ef2ec" x="233.678905" y="307.584" style="stroke: #000000; stroke-width: 0.8"/>
      </g>
     </g>
     <g id="text_4">
      <!-- 0.6 -->
      <g transform="translate(225.727342 322.182437) scale(0.1 -0.1)">
       <defs>
        <path id="DejaVuSans-36" d="M 2113 2584 
Q 1688 2584 1439 2293 
Q 1191 2003 1191 1497 
Q 1191 994 1439 701 
Q 1688 409 2113 409 
Q 2538 409 2786 701 
Q 3034 994 3034 1497 
Q 3034 2003 2786 2293 
Q 2538 2584 2113 2584 
z
M 3366 4563 
L 3366 3988 
Q 3128 4100 2886 4159 
Q 2644 4219 2406 4219 
Q 1781 4219 1451 3797 
Q 1122 3375 1075 2522 
Q 1259 2794 1537 2939 
Q 1816 3084 2150 3084 
Q 2853 3084 3261 2657 
Q 3669 2231 3669 1497 
Q 3669 778 3244 343 
Q 2819 -91 2113 -91 
Q 1303 -91 875 529 
Q 447 1150 447 2328 
Q 447 3434 972 4092 
Q 1497 4750 2381 4750 
Q 2619 4750 2861 4703 
Q 3103 4656 3366 4563 
z
" transform="scale(0.015625)"/>
       </defs>
       <use xlink:href="#DejaVuSans-30"/>
       <use xlink:href="#DejaVuSans-2e" x="63.623047"/>
       <use xlink:href="#DejaVuSans-36" x="95.410156"/>
      </g>
     </g>
    </g>
    <g id="xtick_5">
     <g id="line2d_9">
      <path d="M 279.349241 307.584 
L 279.349241 41.472 
" clip-path="url(#pd06eb9fb88)" style="fill: none; stroke: #b0b0b0; stroke-width: 0.8; stroke-linecap: square"/>
     </g>
     <g id="line2d_10">
      <g>
       <use xlink:href="#m9c909ef2ec" x="279.349241" y="307.584" style="stroke: #000000; stroke-width: 0.8"/>
      </g>
     </g>
     <g id="text_5">
      <!-- 0.8 -->
      <g transform="translate(271.397678 322.182437) scale(0.1 -0.1)">
       <defs>
        <path id="DejaVuSans-38" d="M 2034 2216 
Q 1584 2216 1326 1975 
Q 1069 1734 1069 1313 
Q 1069 891 1326 650 
Q 1584 409 2034 409 
Q 2484 409 2743 651 
Q 3003 894 3003 1313 
Q 3003 1734 2745 1975 
Q 2488 2216 2034 2216 
z
M 1403 2484 
Q 997 2584 770 2862 
Q 544 3141 544 3541 
Q 544 4100 942 4425 
Q 1341 4750 2034 4750 
Q 2731 4750 3128 4425 
Q 3525 4100 3525 3541 
Q 3525 3141 3298 2862 
Q 3072 2584 2669 2484 
Q 3125 2378 3379 2068 
Q 3634 1759 3634 1313 
Q 3634 634 3220 271 
Q 2806 -91 2034 -91 
Q 1263 -91 848 271 
Q 434 634 434 1313 
Q 434 1759 690 2068 
Q 947 2378 1403 2484 
z
M 1172 3481 
Q 1172 3119 1398 2916 
Q 1625 2713 2034 2713 
Q 2441 2713 2670 2916 
Q 2900 3119 2900 3481 
Q 2900 3844 2670 4047 
Q 2441 4250 2034 4250 
Q 1625 4250 1398 4047 
Q 1172 3844 1172 3481 
z
" transform="scale(0.015625)"/>
       </defs>
       <use xlink:href="#DejaVuSans-30"/>
       <use xlink:href="#DejaVuSans-2e" x="63.623047"/>
       <use xlink:href="#DejaVuSans-38" x="95.410156"/>
      </g>
     </g>
    </g>
    <g id="xtick_6">
     <g id="line2d_11">
      <path d="M 325.019577 307.584 
L 325.019577 41.472 
" clip-path="url(#pd06eb9fb88)" style="fill: none; stroke: #b0b0b0; stroke-width: 0.8; stroke-linecap: square"/>
     </g>
     <g id="line2d_12">
      <g>
       <use xlink:href="#m9c909ef2ec" x="325.019577" y="307.584" style="stroke: #000000; stroke-width: 0.8"/>
      </g>
     </g>
     <g id="text_6">
      <!-- 1.0 -->
      <g transform="translate(317.068015 322.182437) scale(0.1 -0.1)">
       <defs>
        <path id="DejaVuSans-31" d="M 794 531 
L 1825 531 
L 1825 4091 
L 703 3866 
L 703 4441 
L 1819 4666 
L 2450 4666 
L 2450 531 
L 3481 531 
L 3481 0 
L 794 0 
L 794 531 
z
" transform="scale(0.015625)"/>
       </defs>
       <use xlink:href="#DejaVuSans-31"/>
       <use xlink:href="#DejaVuSans-2e" x="63.623047"/>
       <use xlink:href="#DejaVuSans-30" x="95.410156"/>
      </g>
     </g>
    </g>
    <g id="xtick_7">
     <g id="line2d_13">
      <path d="M 370.689914 307.584 
L 370.689914 41.472 
" clip-path="url(#pd06eb9fb88)" style="fill: none; stroke: #b0b0b0; stroke-width: 0.8; stroke-linecap: square"/>
     </g>
     <g id="line2d_14">
      <g>
       <use xlink:href="#m9c909ef2ec" x="370.689914" y="307.584" style="stroke: #000000; stroke-width: 0.8"/>
      </g>
     </g>
     <g id="text_7">
      <!-- 1.2 -->
      <g transform="translate(362.738351 322.182437) scale(0.1 -0.1)">
       <use xlink:href="#DejaVuSans-31"/>
       <use xlink:href="#DejaVuSans-2e" x="63.623047"/>
       <use xlink:href="#DejaVuSans-32" x="95.410156"/>
      </g>
     </g>
    </g>
    <g id="text_8">
     <!-- $\theta$ [deg] -->
     <g transform="translate(218.16 335.962125) scale(0.1 -0.1)">
      <defs>
       <path id="DejaVuSans-Oblique-3b8" d="M 2913 2219 
L 925 2219 
Q 791 1284 928 888 
Q 1100 400 1566 400 
Q 2034 400 2391 891 
Q 2703 1322 2913 2219 
z
M 3009 2750 
Q 3094 3638 2984 3950 
Q 2813 4444 2353 4444 
Q 1875 4444 1525 3956 
Q 1250 3563 1034 2750 
L 3009 2750 
z
M 2444 4913 
Q 3194 4913 3494 4250 
Q 3794 3591 3566 2422 
Q 3341 1256 2781 594 
Q 2225 -72 1475 -72 
Q 722 -72 425 594 
Q 128 1256 353 2422 
Q 581 3591 1134 4250 
Q 1691 4913 2444 4913 
z
" transform="scale(0.015625)"/>
       <path id="DejaVuSans-20" transform="scale(0.015625)"/>
       <path id="DejaVuSans-5b" d="M 550 4863 
L 1875 4863 
L 1875 4416 
L 1125 4416 
L 1125 -397 
L 1875 -397 
L 1875 -844 
L 550 -844 
L 550 4863 
z
" transform="scale(0.015625)"/>
       <path id="DejaVuSans-64" d="M 2906 2969 
L 2906 4863 
L 3481 4863 
L 3481 0 
L 2906 0 
L 2906 525 
Q 2725 213 2448 61 
Q 2172 -91 1784 -91 
Q 1150 -91 751 415 
Q 353 922 353 1747 
Q 353 2572 751 3078 
Q 1150 3584 1784 3584 
Q 2172 3584 2448 3432 
Q 2725 3281 2906 2969 
z
M 947 1747 
Q 947 1113 1208 752 
Q 1469 391 1925 391 
Q 2381 391 2643 752 
Q 2906 1113 2906 1747 
Q 2906 2381 2643 2742 
Q 2381 3103 1925 3103 
Q 1469 3103 1208 2742 
Q 947 2381 947 1747 
z
" transform="scale(0.015625)"/>
       <path id="DejaVuSans-65" d="M 3597 1894 
L 3597 1613 
L 953 1613 
Q 991 1019 1311 708 
Q 1631 397 2203 397 
Q 2534 397 2845 478 
Q 3156 559 3463 722 
L 3463 178 
Q 3153 47 2828 -22 
Q 2503 -91 2169 -91 
Q 1331 -91 842 396 
Q 353 884 353 1716 
Q 353 2575 817 3079 
Q 1281 3584 2069 3584 
Q 2775 3584 3186 3129 
Q 3597 2675 3597 1894 
z
M 3022 2063 
Q 3016 2534 2758 2815 
Q 2500 3097 2075 3097 
Q 1594 3097 1305 2825 
Q 1016 2553 972 2059 
L 3022 2063 
z
" transform="scale(0.015625)"/>
       <path id="DejaVuSans-67" d="M 2906 1791 
Q 2906 2416 2648 2759 
Q 2391 3103 1925 3103 
Q 1463 3103 1205 2759 
Q 947 2416 947 1791 
Q 947 1169 1205 825 
Q 1463 481 1925 481 
Q 2391 481 2648 825 
Q 2906 1169 2906 1791 
z
M 3481 434 
Q 3481 -459 3084 -895 
Q 2688 -1331 1869 -1331 
Q 1566 -1331 1297 -1286 
Q 1028 -1241 775 -1147 
L 775 -588 
Q 1028 -725 1275 -790 
Q 1522 -856 1778 -856 
Q 2344 -856 2625 -561 
Q 2906 -266 2906 331 
L 2906 616 
Q 2728 306 2450 153 
Q 2172 0 1784 0 
Q 1141 0 747 490 
Q 353 981 353 1791 
Q 353 2603 747 3093 
Q 1141 3584 1784 3584 
Q 2172 3584 2450 3431 
Q 2728 3278 2906 2969 
L 2906 3500 
L 3481 3500 
L 3481 434 
z
" transform="scale(0.015625)"/>
       <path id="DejaVuSans-5d" d="M 1947 4863 
L 1947 -844 
L 622 -844 
L 622 -397 
L 1369 -397 
L 1369 4416 
L 622 4416 
L 622 4863 
L 1947 4863 
z
" transform="scale(0.015625)"/>
      </defs>
      <use xlink:href="#DejaVuSans-Oblique-3b8" transform="translate(0 0.234375)"/>
      <use xlink:href="#DejaVuSans-20" transform="translate(61.181641 0.234375)"/>
      <use xlink:href="#DejaVuSans-5b" transform="translate(92.96875 0.234375)"/>
      <use xlink:href="#DejaVuSans-64" transform="translate(131.982422 0.234375)"/>
      <use xlink:href="#DejaVuSans-65" transform="translate(195.458984 0.234375)"/>
      <use xlink:href="#DejaVuSans-67" transform="translate(256.982422 0.234375)"/>
      <use xlink:href="#DejaVuSans-5d" transform="translate(320.458984 0.234375)"/>
     </g>
    </g>
   </g>
   <g id="matplotlib.axis_2">
    <g id="ytick_1">
     <g id="line2d_15">
      <path d="M 57.6 295.497202 
L 414.72 295.497202 
" clip-path="url(#pd06eb9fb88)" style="fill: none; stroke: #b0b0b0; stroke-width: 0.8; stroke-linecap: square"/>
     </g>
     <g id="line2d_16">
      <defs>
       <path id="m1f105ca73d" d="M 0 0 
L -3.5 0 
" style="stroke: #000000; stroke-width: 0.8"/>
      </defs>
      <g>
       <use xlink:href="#m1f105ca73d" x="57.6" y="295.497202" style="stroke: #000000; stroke-width: 0.8"/>
      </g>
     </g>
     <g id="text_9">
      <!-- 0 -->
      <g transform="translate(44.2375 299.296421) scale(0.1 -0.1)">
       <use xlink:href="#DejaVuSans-30"/>
      </g>
     </g>
    </g>
    <g id="ytick_2">
     <g id="line2d_17">
      <path d="M 57.6 255.77256 
L 414.72 255.77256 
" clip-path="url(#pd06eb9fb88)" style="fill: none; stroke: #b0b0b0; stroke-width: 0.8; stroke-linecap: square"/>
     </g>
     <g id="line2d_18">
      <g>
       <use xlink:href="#m1f105ca73d" x="57.6" y="255.77256" style="stroke: #000000; stroke-width: 0.8"/>
      </g>
     </g>
     <g id="text_10">
      <!-- 20 -->
      <g transform="translate(37.875 259.571779) scale(0.1 -0.1)">
       <use xlink:href="#DejaVuSans-32"/>
       <use xlink:href="#DejaVuSans-30" x="63.623047"/>
      </g>
     </g>
    </g>
    <g id="ytick_3">
     <g id="line2d_19">
      <path d="M 57.6 216.047918 
L 414.72 216.047918 
" clip-path="url(#pd06eb9fb88)" style="fill: none; stroke: #b0b0b0; stroke-width: 0.8; stroke-linecap: square"/>
     </g>
     <g id="line2d_20">
      <g>
       <use xlink:href="#m1f105ca73d" x="57.6" y="216.047918" style="stroke: #000000; stroke-width: 0.8"/>
      </g>
     </g>
     <g id="text_11">
      <!-- 40 -->
      <g transform="translate(37.875 219.847137) scale(0.1 -0.1)">
       <use xlink:href="#DejaVuSans-34"/>
       <use xlink:href="#DejaVuSans-30" x="63.623047"/>
      </g>
     </g>
    </g>
    <g id="ytick_4">
     <g id="line2d_21">
      <path d="M 57.6 176.323276 
L 414.72 176.323276 
" clip-path="url(#pd06eb9fb88)" style="fill: none; stroke: #b0b0b0; stroke-width: 0.8; stroke-linecap: square"/>
     </g>
     <g id="line2d_22">
      <g>
       <use xlink:href="#m1f105ca73d" x="57.6" y="176.323276" style="stroke: #000000; stroke-width: 0.8"/>
      </g>
     </g>
     <g id="text_12">
      <!-- 60 -->
      <g transform="translate(37.875 180.122495) scale(0.1 -0.1)">
       <use xlink:href="#DejaVuSans-36"/>
       <use xlink:href="#DejaVuSans-30" x="63.623047"/>
      </g>
     </g>
    </g>
    <g id="ytick_5">
     <g id="line2d_23">
      <path d="M 57.6 136.598635 
L 414.72 136.598635 
" clip-path="url(#pd06eb9fb88)" style="fill: none; stroke: #b0b0b0; stroke-width: 0.8; stroke-linecap: square"/>
     </g>
     <g id="line2d_24">
      <g>
       <use xlink:href="#m1f105ca73d" x="57.6" y="136.598635" style="stroke: #000000; stroke-width: 0.8"/>
      </g>
     </g>
     <g id="text_13">
      <!-- 80 -->
      <g transform="translate(37.875 140.397853) scale(0.1 -0.1)">
       <use xlink:href="#DejaVuSans-38"/>
       <use xlink:href="#DejaVuSans-30" x="63.623047"/>
      </g>
     </g>
    </g>
    <g id="ytick_6">
     <g id="line2d_25">
      <path d="M 57.6 96.873993 
L 414.72 96.873993 
" clip-path="url(#pd06eb9fb88)" style="fill: none; stroke: #b0b0b0; stroke-width: 0.8; stroke-linecap: square"/>
     </g>
     <g id="line2d_26">
      <g>
       <use xlink:href="#m1f105ca73d" x="57.6" y="96.873993" style="stroke: #000000; stroke-width: 0.8"/>
      </g>
     </g>
     <g id="text_14">
      <!-- 100 -->
      <g transform="translate(31.5125 100.673211) scale(0.1 -0.1)">
       <use xlink:href="#DejaVuSans-31"/>
       <use xlink:href="#DejaVuSans-30" x="63.623047"/>
       <use xlink:href="#DejaVuSans-30" x="127.246094"/>
      </g>
     </g>
    </g>
    <g id="ytick_7">
     <g id="line2d_27">
      <path d="M 57.6 57.149351 
L 414.72 57.149351 
" clip-path="url(#pd06eb9fb88)" style="fill: none; stroke: #b0b0b0; stroke-width: 0.8; stroke-linecap: square"/>
     </g>
     <g id="line2d_28">
      <g>
       <use xlink:href="#m1f105ca73d" x="57.6" y="57.149351" style="stroke: #000000; stroke-width: 0.8"/>
      </g>
     </g>
     <g id="text_15">
      <!-- 120 -->
      <g transform="translate(31.5125 60.948569) scale(0.1 -0.1)">
       <use xlink:href="#DejaVuSans-31"/>
       <use xlink:href="#DejaVuSans-32" x="63.623047"/>
       <use xlink:href="#DejaVuSans-30" x="127.246094"/>
      </g>
     </g>
    </g>
    <g id="text_16">
     <!-- I [$\mu$ Amper] -->
     <g transform="translate(25.4125 202.878) rotate(-90) scale(0.1 -0.1)">
      <defs>
       <path id="DejaVuSans-49" d="M 628 4666 
L 1259 4666 
L 1259 0 
L 628 0 
L 628 4666 
z
" transform="scale(0.015625)"/>
       <path id="DejaVuSans-Oblique-3bc" d="M -84 -1331 
L 856 3500 
L 1434 3500 
L 1009 1322 
Q 997 1256 987 1175 
Q 978 1094 978 1013 
Q 978 722 1161 565 
Q 1344 409 1684 409 
Q 2147 409 2431 671 
Q 2716 934 2816 1459 
L 3213 3500 
L 3788 3500 
L 3266 809 
Q 3253 750 3248 706 
Q 3244 663 3244 628 
Q 3244 531 3283 486 
Q 3322 441 3406 441 
Q 3438 441 3492 456 
Q 3547 472 3647 513 
L 3559 50 
Q 3422 -19 3297 -55 
Q 3172 -91 3053 -91 
Q 2847 -91 2730 40 
Q 2613 172 2613 403 
Q 2438 153 2195 31 
Q 1953 -91 1625 -91 
Q 1334 -91 1117 43 
Q 900 178 831 397 
L 494 -1331 
L -84 -1331 
z
" transform="scale(0.015625)"/>
       <path id="DejaVuSans-41" d="M 2188 4044 
L 1331 1722 
L 3047 1722 
L 2188 4044 
z
M 1831 4666 
L 2547 4666 
L 4325 0 
L 3669 0 
L 3244 1197 
L 1141 1197 
L 716 0 
L 50 0 
L 1831 4666 
z
" transform="scale(0.015625)"/>
       <path id="DejaVuSans-6d" d="M 3328 2828 
Q 3544 3216 3844 3400 
Q 4144 3584 4550 3584 
Q 5097 3584 5394 3201 
Q 5691 2819 5691 2113 
L 5691 0 
L 5113 0 
L 5113 2094 
Q 5113 2597 4934 2840 
Q 4756 3084 4391 3084 
Q 3944 3084 3684 2787 
Q 3425 2491 3425 1978 
L 3425 0 
L 2847 0 
L 2847 2094 
Q 2847 2600 2669 2842 
Q 2491 3084 2119 3084 
Q 1678 3084 1418 2786 
Q 1159 2488 1159 1978 
L 1159 0 
L 581 0 
L 581 3500 
L 1159 3500 
L 1159 2956 
Q 1356 3278 1631 3431 
Q 1906 3584 2284 3584 
Q 2666 3584 2933 3390 
Q 3200 3197 3328 2828 
z
" transform="scale(0.015625)"/>
       <path id="DejaVuSans-70" d="M 1159 525 
L 1159 -1331 
L 581 -1331 
L 581 3500 
L 1159 3500 
L 1159 2969 
Q 1341 3281 1617 3432 
Q 1894 3584 2278 3584 
Q 2916 3584 3314 3078 
Q 3713 2572 3713 1747 
Q 3713 922 3314 415 
Q 2916 -91 2278 -91 
Q 1894 -91 1617 61 
Q 1341 213 1159 525 
z
M 3116 1747 
Q 3116 2381 2855 2742 
Q 2594 3103 2138 3103 
Q 1681 3103 1420 2742 
Q 1159 2381 1159 1747 
Q 1159 1113 1420 752 
Q 1681 391 2138 391 
Q 2594 391 2855 752 
Q 3116 1113 3116 1747 
z
" transform="scale(0.015625)"/>
       <path id="DejaVuSans-72" d="M 2631 2963 
Q 2534 3019 2420 3045 
Q 2306 3072 2169 3072 
Q 1681 3072 1420 2755 
Q 1159 2438 1159 1844 
L 1159 0 
L 581 0 
L 581 3500 
L 1159 3500 
L 1159 2956 
Q 1341 3275 1631 3429 
Q 1922 3584 2338 3584 
Q 2397 3584 2469 3576 
Q 2541 3569 2628 3553 
L 2631 2963 
z
" transform="scale(0.015625)"/>
      </defs>
      <use xlink:href="#DejaVuSans-49" transform="translate(0 0.015625)"/>
      <use xlink:href="#DejaVuSans-20" transform="translate(29.492188 0.015625)"/>
      <use xlink:href="#DejaVuSans-5b" transform="translate(61.279297 0.015625)"/>
      <use xlink:href="#DejaVuSans-Oblique-3bc" transform="translate(100.292969 0.015625)"/>
      <use xlink:href="#DejaVuSans-20" transform="translate(163.916016 0.015625)"/>
      <use xlink:href="#DejaVuSans-41" transform="translate(195.703125 0.015625)"/>
      <use xlink:href="#DejaVuSans-6d" transform="translate(264.111328 0.015625)"/>
      <use xlink:href="#DejaVuSans-70" transform="translate(361.523438 0.015625)"/>
      <use xlink:href="#DejaVuSans-65" transform="translate(425 0.015625)"/>
      <use xlink:href="#DejaVuSans-72" transform="translate(486.523438 0.015625)"/>
      <use xlink:href="#DejaVuSans-5d" transform="translate(527.636719 0.015625)"/>
     </g>
    </g>
   </g>
   <g id="line2d_29">
    <defs>
     <path id="m403cb944ee" d="M 0 1.5 
C 0.397805 1.5 0.77937 1.341951 1.06066 1.06066 
C 1.341951 0.77937 1.5 0.397805 1.5 0 
C 1.5 -0.397805 1.341951 -0.77937 1.06066 -1.06066 
C 0.77937 -1.341951 0.397805 -1.5 0 -1.5 
C -0.397805 -1.5 -0.77937 -1.341951 -1.06066 -1.06066 
C -1.341951 -0.77937 -1.5 -0.397805 -1.5 0 
C -1.5 0.397805 -1.341951 0.77937 -1.06066 1.06066 
C -0.77937 1.341951 -0.397805 1.5 0 1.5 
z
" style="stroke: #0000ff"/>
    </defs>
    <g clip-path="url(#pd06eb9fb88)">
     <use xlink:href="#m403cb944ee" x="96.667895" y="261.334467" style="fill: #0000ff; stroke: #0000ff"/>
     <use xlink:href="#m403cb944ee" x="112.60985" y="255.773017" style="fill: #0000ff; stroke: #0000ff"/>
     <use xlink:href="#m403cb944ee" x="136.522782" y="250.410191" style="fill: #0000ff; stroke: #0000ff"/>
     <use xlink:href="#m403cb944ee" x="144.49376" y="248.026712" style="fill: #0000ff; stroke: #0000ff"/>
     <use xlink:href="#m403cb944ee" x="160.435715" y="249.615698" style="fill: #0000ff; stroke: #0000ff"/>
     <use xlink:href="#m403cb944ee" x="168.406692" y="249.814321" style="fill: #0000ff; stroke: #0000ff"/>
     <use xlink:href="#m403cb944ee" x="176.377669" y="251.800553" style="fill: #0000ff; stroke: #0000ff"/>
     <use xlink:href="#m403cb944ee" x="196.305113" y="253.786785" style="fill: #0000ff; stroke: #0000ff"/>
     <use xlink:href="#m403cb944ee" x="216.232556" y="260.937221" style="fill: #0000ff; stroke: #0000ff"/>
     <use xlink:href="#m403cb944ee" x="236.16" y="266.300047" style="fill: #0000ff; stroke: #0000ff"/>
     <use xlink:href="#m403cb944ee" x="256.087444" y="275.039469" style="fill: #0000ff; stroke: #0000ff"/>
     <use xlink:href="#m403cb944ee" x="276.014887" y="282.984397" style="fill: #0000ff; stroke: #0000ff"/>
     <use xlink:href="#m403cb944ee" x="295.942331" y="288.943093" style="fill: #0000ff; stroke: #0000ff"/>
     <use xlink:href="#m403cb944ee" x="315.869774" y="293.571014" style="fill: #0000ff; stroke: #0000ff"/>
     <use xlink:href="#m403cb944ee" x="323.840751" y="294.067572" style="fill: #0000ff; stroke: #0000ff"/>
     <use xlink:href="#m403cb944ee" x="327.82624" y="294.802478" style="fill: #0000ff; stroke: #0000ff"/>
     <use xlink:href="#m403cb944ee" x="335.797218" y="295.328829" style="fill: #0000ff; stroke: #0000ff"/>
     <use xlink:href="#m403cb944ee" x="343.768195" y="295.440058" style="fill: #0000ff; stroke: #0000ff"/>
     <use xlink:href="#m403cb944ee" x="351.739172" y="295.088495" style="fill: #0000ff; stroke: #0000ff"/>
     <use xlink:href="#m403cb944ee" x="355.724661" y="294.897817" style="fill: #0000ff; stroke: #0000ff"/>
     <use xlink:href="#m403cb944ee" x="375.652105" y="290.532079" style="fill: #0000ff; stroke: #0000ff"/>
    </g>
   </g>
   <g id="LineCollection_1">
    <path d="M 96.667895 261.334467 
L 96.667895 261.334467 
" clip-path="url(#pd06eb9fb88)" style="fill: none; stroke: #008000; stroke-width: 1.5"/>
    <path d="M 112.60985 255.773017 
L 112.60985 255.773017 
" clip-path="url(#pd06eb9fb88)" style="fill: none; stroke: #008000; stroke-width: 1.5"/>
    <path d="M 136.522782 250.410191 
L 136.522782 250.410191 
" clip-path="url(#pd06eb9fb88)" style="fill: none; stroke: #008000; stroke-width: 1.5"/>
    <path d="M 144.49376 248.026712 
L 144.49376 248.026712 
" clip-path="url(#pd06eb9fb88)" style="fill: none; stroke: #008000; stroke-width: 1.5"/>
    <path d="M 160.435715 249.615698 
L 160.435715 249.615698 
" clip-path="url(#pd06eb9fb88)" style="fill: none; stroke: #008000; stroke-width: 1.5"/>
    <path d="M 168.406692 249.814321 
L 168.406692 249.814321 
" clip-path="url(#pd06eb9fb88)" style="fill: none; stroke: #008000; stroke-width: 1.5"/>
    <path d="M 176.377669 251.800553 
L 176.377669 251.800553 
" clip-path="url(#pd06eb9fb88)" style="fill: none; stroke: #008000; stroke-width: 1.5"/>
    <path d="M 196.305113 253.786785 
L 196.305113 253.786785 
" clip-path="url(#pd06eb9fb88)" style="fill: none; stroke: #008000; stroke-width: 1.5"/>
    <path d="M 216.232556 260.937221 
L 216.232556 260.937221 
" clip-path="url(#pd06eb9fb88)" style="fill: none; stroke: #008000; stroke-width: 1.5"/>
    <path d="M 236.16 266.300047 
L 236.16 266.300047 
" clip-path="url(#pd06eb9fb88)" style="fill: none; stroke: #008000; stroke-width: 1.5"/>
    <path d="M 256.087444 275.039469 
L 256.087444 275.039469 
" clip-path="url(#pd06eb9fb88)" style="fill: none; stroke: #008000; stroke-width: 1.5"/>
    <path d="M 276.014887 282.984397 
L 276.014887 282.984397 
" clip-path="url(#pd06eb9fb88)" style="fill: none; stroke: #008000; stroke-width: 1.5"/>
    <path d="M 295.942331 288.943093 
L 295.942331 288.943093 
" clip-path="url(#pd06eb9fb88)" style="fill: none; stroke: #008000; stroke-width: 1.5"/>
    <path d="M 315.869774 293.571014 
L 315.869774 293.571014 
" clip-path="url(#pd06eb9fb88)" style="fill: none; stroke: #008000; stroke-width: 1.5"/>
    <path d="M 323.840751 294.067572 
L 323.840751 294.067572 
" clip-path="url(#pd06eb9fb88)" style="fill: none; stroke: #008000; stroke-width: 1.5"/>
    <path d="M 327.82624 294.802478 
L 327.82624 294.802478 
" clip-path="url(#pd06eb9fb88)" style="fill: none; stroke: #008000; stroke-width: 1.5"/>
    <path d="M 335.797218 295.328829 
L 335.797218 295.328829 
" clip-path="url(#pd06eb9fb88)" style="fill: none; stroke: #008000; stroke-width: 1.5"/>
    <path d="M 343.768195 295.440058 
L 343.768195 295.440058 
" clip-path="url(#pd06eb9fb88)" style="fill: none; stroke: #008000; stroke-width: 1.5"/>
    <path d="M 351.739172 295.088495 
L 351.739172 295.088495 
" clip-path="url(#pd06eb9fb88)" style="fill: none; stroke: #008000; stroke-width: 1.5"/>
    <path d="M 355.724661 294.897817 
L 355.724661 294.897817 
" clip-path="url(#pd06eb9fb88)" style="fill: none; stroke: #008000; stroke-width: 1.5"/>
    <path d="M 375.652105 290.532079 
L 375.652105 290.532079 
" clip-path="url(#pd06eb9fb88)" style="fill: none; stroke: #008000; stroke-width: 1.5"/>
   </g>
   <g id="LineCollection_2">
    <path d="M 96.667895 263.042604 
L 96.667895 259.62633 
" clip-path="url(#pd06eb9fb88)" style="fill: none; stroke: #008000; stroke-width: 1.5"/>
    <path d="M 112.60985 257.759226 
L 112.60985 253.786808 
" clip-path="url(#pd06eb9fb88)" style="fill: none; stroke: #008000; stroke-width: 1.5"/>
    <path d="M 136.522782 252.664541 
L 136.522782 248.15584 
" clip-path="url(#pd06eb9fb88)" style="fill: none; stroke: #008000; stroke-width: 1.5"/>
    <path d="M 144.49376 250.400237 
L 144.49376 245.653188 
" clip-path="url(#pd06eb9fb88)" style="fill: none; stroke: #008000; stroke-width: 1.5"/>
    <path d="M 160.435715 251.909773 
L 160.435715 247.321622 
" clip-path="url(#pd06eb9fb88)" style="fill: none; stroke: #008000; stroke-width: 1.5"/>
    <path d="M 168.406692 252.098465 
L 168.406692 247.530177 
" clip-path="url(#pd06eb9fb88)" style="fill: none; stroke: #008000; stroke-width: 1.5"/>
    <path d="M 176.377669 253.985385 
L 176.377669 249.615721 
" clip-path="url(#pd06eb9fb88)" style="fill: none; stroke: #008000; stroke-width: 1.5"/>
    <path d="M 196.305113 255.872306 
L 196.305113 251.701264 
" clip-path="url(#pd06eb9fb88)" style="fill: none; stroke: #008000; stroke-width: 1.5"/>
    <path d="M 216.232556 262.66522 
L 216.232556 259.209222 
" clip-path="url(#pd06eb9fb88)" style="fill: none; stroke: #008000; stroke-width: 1.5"/>
    <path d="M 236.16 267.759905 
L 236.16 264.84019 
" clip-path="url(#pd06eb9fb88)" style="fill: none; stroke: #008000; stroke-width: 1.5"/>
    <path d="M 256.087444 276.062355 
L 256.087444 274.016582 
" clip-path="url(#pd06eb9fb88)" style="fill: none; stroke: #008000; stroke-width: 1.5"/>
    <path d="M 276.014887 283.610037 
L 276.014887 282.358757 
" clip-path="url(#pd06eb9fb88)" style="fill: none; stroke: #008000; stroke-width: 1.5"/>
    <path d="M 295.942331 289.270799 
L 295.942331 288.615388 
" clip-path="url(#pd06eb9fb88)" style="fill: none; stroke: #008000; stroke-width: 1.5"/>
    <path d="M 315.869774 293.667323 
L 315.869774 293.474705 
" clip-path="url(#pd06eb9fb88)" style="fill: none; stroke: #008000; stroke-width: 1.5"/>
    <path d="M 323.840751 294.139054 
L 323.840751 293.996091 
" clip-path="url(#pd06eb9fb88)" style="fill: none; stroke: #008000; stroke-width: 1.5"/>
    <path d="M 327.82624 294.837214 
L 327.82624 294.767742 
" clip-path="url(#pd06eb9fb88)" style="fill: none; stroke: #008000; stroke-width: 1.5"/>
    <path d="M 335.797218 295.337248 
L 335.797218 295.320411 
" clip-path="url(#pd06eb9fb88)" style="fill: none; stroke: #008000; stroke-width: 1.5"/>
    <path d="M 343.768195 295.442916 
L 343.768195 295.437201 
" clip-path="url(#pd06eb9fb88)" style="fill: none; stroke: #008000; stroke-width: 1.5"/>
    <path d="M 351.739172 295.108931 
L 351.739172 295.06806 
" clip-path="url(#pd06eb9fb88)" style="fill: none; stroke: #008000; stroke-width: 1.5"/>
    <path d="M 355.724661 294.927786 
L 355.724661 294.867848 
" clip-path="url(#pd06eb9fb88)" style="fill: none; stroke: #008000; stroke-width: 1.5"/>
    <path d="M 375.652105 290.780335 
L 375.652105 290.283823 
" clip-path="url(#pd06eb9fb88)" style="fill: none; stroke: #008000; stroke-width: 1.5"/>
   </g>
   <g id="line2d_30">
    <path d="M 73.832727 222.704 
L 77.112066 228.994976 
L 80.391405 235.106285 
L 83.670744 241.017767 
L 86.950083 246.709919 
L 90.229421 252.163966 
L 93.50876 257.361914 
L 96.788099 262.286617 
L 100.067438 266.921827 
L 103.346777 271.252255 
L 106.626116 275.263615 
L 109.905455 278.942674 
L 113.184793 282.277294 
L 116.464132 285.256477 
L 119.743471 287.870393 
L 123.02281 290.11042 
L 126.302149 291.969168 
L 129.581488 293.440506 
L 132.860826 294.519579 
L 136.140165 295.202829 
L 139.419504 295.488 
L 142.698843 295.374153 
L 145.978182 294.861662 
L 149.257521 293.95222 
L 152.53686 292.648825 
L 155.816198 290.955777 
L 159.095537 288.878662 
L 162.374876 286.424331 
L 165.654215 283.600882 
L 168.933554 280.417628 
L 172.212893 276.88507 
L 175.492231 273.014862 
L 178.77157 268.819772 
L 182.050909 264.313637 
L 185.330248 259.511325 
L 188.609587 254.428675 
L 191.888926 249.082456 
L 195.168264 243.490305 
L 198.447603 237.670668 
L 201.726942 231.642744 
L 205.006281 225.426418 
L 208.28562 219.042197 
L 211.564959 212.511142 
L 214.844298 205.854798 
L 218.123636 199.095124 
L 221.402975 192.254418 
L 224.682314 185.355247 
L 227.961653 178.42037 
L 231.240992 171.472665 
L 234.520331 164.535052 
L 237.799669 157.630416 
L 241.079008 150.781535 
L 244.358347 144.011003 
L 247.637686 137.341155 
L 250.917025 130.793993 
L 254.196364 124.391116 
L 257.475702 118.153646 
L 260.755041 112.10216 
L 264.03438 106.25662 
L 267.313719 100.636311 
L 270.593058 95.259773 
L 273.872397 90.144742 
L 277.151736 85.308092 
L 280.431074 80.76578 
L 283.710413 76.532788 
L 286.989752 72.623082 
L 290.269091 69.049559 
L 293.54843 65.824007 
L 296.827769 62.957067 
L 300.107107 60.458197 
L 303.386446 58.33564 
L 306.665785 56.596399 
L 309.945124 55.24621 
L 313.224463 54.289528 
L 316.503802 53.729509 
L 319.78314 53.568 
L 323.062479 53.805534 
L 326.341818 54.441328 
L 329.621157 55.473284 
L 332.900496 56.897997 
L 336.179835 58.710769 
L 339.459174 60.905618 
L 342.738512 63.475304 
L 346.017851 66.411351 
L 349.29719 69.704072 
L 352.576529 73.342605 
L 355.855868 77.314948 
L 359.135207 81.607996 
L 362.414545 86.207587 
L 365.693884 91.098547 
L 368.973223 96.264742 
L 372.252562 101.689129 
L 375.531901 107.353814 
L 378.81124 113.240109 
L 382.090579 119.328598 
L 385.369917 125.599194 
L 388.649256 132.031212 
L 391.928595 138.603434 
L 395.207934 145.294177 
L 398.487273 152.081372 
" clip-path="url(#pd06eb9fb88)" style="fill: none; stroke-dasharray: 5.55,2.4; stroke-dashoffset: 0; stroke: #ff0000; stroke-width: 1.5"/>
   </g>
   <g id="patch_3">
    <path d="M 57.6 307.584 
L 57.6 41.472 
" style="fill: none; stroke: #000000; stroke-width: 0.8; stroke-linejoin: miter; stroke-linecap: square"/>
   </g>
   <g id="patch_4">
    <path d="M 414.72 307.584 
L 414.72 41.472 
" style="fill: none; stroke: #000000; stroke-width: 0.8; stroke-linejoin: miter; stroke-linecap: square"/>
   </g>
   <g id="patch_5">
    <path d="M 57.6 307.584 
L 414.72 307.584 
" style="fill: none; stroke: #000000; stroke-width: 0.8; stroke-linejoin: miter; stroke-linecap: square"/>
   </g>
   <g id="patch_6">
    <path d="M 57.6 41.472 
L 414.72 41.472 
" style="fill: none; stroke: #000000; stroke-width: 0.8; stroke-linejoin: miter; stroke-linecap: square"/>
   </g>
   <g id="text_17">
    <!-- halfwave plate -->
    <g transform="translate(192.075938 35.472) scale(0.12 -0.12)">
     <defs>
      <path id="DejaVuSans-68" d="M 3513 2113 
L 3513 0 
L 2938 0 
L 2938 2094 
Q 2938 2591 2744 2837 
Q 2550 3084 2163 3084 
Q 1697 3084 1428 2787 
Q 1159 2491 1159 1978 
L 1159 0 
L 581 0 
L 581 4863 
L 1159 4863 
L 1159 2956 
Q 1366 3272 1645 3428 
Q 1925 3584 2291 3584 
Q 2894 3584 3203 3211 
Q 3513 2838 3513 2113 
z
" transform="scale(0.015625)"/>
      <path id="DejaVuSans-61" d="M 2194 1759 
Q 1497 1759 1228 1600 
Q 959 1441 959 1056 
Q 959 750 1161 570 
Q 1363 391 1709 391 
Q 2188 391 2477 730 
Q 2766 1069 2766 1631 
L 2766 1759 
L 2194 1759 
z
M 3341 1997 
L 3341 0 
L 2766 0 
L 2766 531 
Q 2569 213 2275 61 
Q 1981 -91 1556 -91 
Q 1019 -91 701 211 
Q 384 513 384 1019 
Q 384 1609 779 1909 
Q 1175 2209 1959 2209 
L 2766 2209 
L 2766 2266 
Q 2766 2663 2505 2880 
Q 2244 3097 1772 3097 
Q 1472 3097 1187 3025 
Q 903 2953 641 2809 
L 641 3341 
Q 956 3463 1253 3523 
Q 1550 3584 1831 3584 
Q 2591 3584 2966 3190 
Q 3341 2797 3341 1997 
z
" transform="scale(0.015625)"/>
      <path id="DejaVuSans-6c" d="M 603 4863 
L 1178 4863 
L 1178 0 
L 603 0 
L 603 4863 
z
" transform="scale(0.015625)"/>
      <path id="DejaVuSans-66" d="M 2375 4863 
L 2375 4384 
L 1825 4384 
Q 1516 4384 1395 4259 
Q 1275 4134 1275 3809 
L 1275 3500 
L 2222 3500 
L 2222 3053 
L 1275 3053 
L 1275 0 
L 697 0 
L 697 3053 
L 147 3053 
L 147 3500 
L 697 3500 
L 697 3744 
Q 697 4328 969 4595 
Q 1241 4863 1831 4863 
L 2375 4863 
z
" transform="scale(0.015625)"/>
      <path id="DejaVuSans-77" d="M 269 3500 
L 844 3500 
L 1563 769 
L 2278 3500 
L 2956 3500 
L 3675 769 
L 4391 3500 
L 4966 3500 
L 4050 0 
L 3372 0 
L 2619 2869 
L 1863 0 
L 1184 0 
L 269 3500 
z
" transform="scale(0.015625)"/>
      <path id="DejaVuSans-76" d="M 191 3500 
L 800 3500 
L 1894 563 
L 2988 3500 
L 3597 3500 
L 2284 0 
L 1503 0 
L 191 3500 
z
" transform="scale(0.015625)"/>
      <path id="DejaVuSans-74" d="M 1172 4494 
L 1172 3500 
L 2356 3500 
L 2356 3053 
L 1172 3053 
L 1172 1153 
Q 1172 725 1289 603 
Q 1406 481 1766 481 
L 2356 481 
L 2356 0 
L 1766 0 
Q 1100 0 847 248 
Q 594 497 594 1153 
L 594 3053 
L 172 3053 
L 172 3500 
L 594 3500 
L 594 4494 
L 1172 4494 
z
" transform="scale(0.015625)"/>
     </defs>
     <use xlink:href="#DejaVuSans-68"/>
     <use xlink:href="#DejaVuSans-61" x="63.378906"/>
     <use xlink:href="#DejaVuSans-6c" x="124.658203"/>
     <use xlink:href="#DejaVuSans-66" x="152.441406"/>
     <use xlink:href="#DejaVuSans-77" x="185.896484"/>
     <use xlink:href="#DejaVuSans-61" x="267.683594"/>
     <use xlink:href="#DejaVuSans-76" x="328.962891"/>
     <use xlink:href="#DejaVuSans-65" x="388.142578"/>
     <use xlink:href="#DejaVuSans-20" x="449.666016"/>
     <use xlink:href="#DejaVuSans-70" x="481.453125"/>
     <use xlink:href="#DejaVuSans-6c" x="544.929688"/>
     <use xlink:href="#DejaVuSans-61" x="572.712891"/>
     <use xlink:href="#DejaVuSans-74" x="633.992188"/>
     <use xlink:href="#DejaVuSans-65" x="673.201172"/>
    </g>
   </g>
  </g>
 </g>
 <defs>
  <clipPath id="pd06eb9fb88">
   <rect x="57.6" y="41.472" width="357.12" height="266.112"/>
  </clipPath>
 </defs>
</svg>
