<?xml version="1.0" encoding="utf-8" standalone="no"?>
<!DOCTYPE svg PUBLIC "-//W3C//DTD SVG 1.1//EN"
  "http://www.w3.org/Graphics/SVG/1.1/DTD/svg11.dtd">
<svg xmlns:xlink="http://www.w3.org/1999/xlink" width="460.8pt" height="345.6pt" viewBox="0 0 460.8 345.6" xmlns="http://www.w3.org/2000/svg" version="1.1">
 <metadata>
  <rdf:RDF xmlns:dc="http://purl.org/dc/elements/1.1/" xmlns:cc="http://creativecommons.org/ns#" xmlns:rdf="http://www.w3.org/1999/02/22-rdf-syntax-ns#">
   <cc:Work>
    <dc:type rdf:resource="http://purl.org/dc/dcmitype/StillImage"/>
    <dc:date>2022-12-28T18:05:03.451230</dc:date>
    <dc:format>image/svg+xml</dc:format>
    <dc:creator>
     <cc:Agent>
      <dc:title>Matplotlib v3.6.2, https://matplotlib.org/</dc:title>
     </cc:Agent>
    </dc:creator>
   </cc:Work>
  </rdf:RDF>
 </metadata>
 <defs>
  <style type="text/css">*{stroke-linejoin: round; stroke-linecap: butt}</style>
 </defs>
 <g id="figure_1">
  <g id="patch_1">
   <path d="M 0 345.6 
L 460.8 345.6 
L 460.8 0 
L 0 0 
z
" style="fill: #ffffff"/>
  </g>
  <g id="axes_1">
   <g id="patch_2">
    <path d="M 369.216 174.528 
C 369.216 157.055246 365.774248 139.752393 359.087715 123.609673 
C 352.401182 107.466954 342.599903 92.798303 330.2448 80.4432 
C 317.889697 68.088097 303.221046 58.286818 287.078327 51.600285 
C 270.935607 44.913752 253.632754 41.472 236.16 41.472 
C 218.687246 41.472 201.384393 44.913752 185.241673 51.600285 
C 169.098954 58.286818 154.430303 68.088097 142.0752 80.4432 
C 129.720097 92.798303 119.918818 107.466954 113.232285 123.609673 
C 106.545752 139.752393 103.104 157.055246 103.104 174.528 
C 103.104 192.000754 106.545752 209.303607 113.232285 225.446327 
C 119.918818 241.589046 129.720097 256.257697 142.0752 268.6128 
C 154.430303 280.967903 169.098954 290.769182 185.241673 297.455715 
C 201.384393 304.142248 218.687246 307.584 236.16 307.584 
C 253.632754 307.584 270.935607 304.142248 287.078327 297.455715 
C 303.221046 290.769182 317.889697 280.967903 330.2448 268.6128 
C 342.599903 256.257697 352.401182 241.589046 359.087715 225.446327 
C 365.774248 209.303607 369.216 192.000754 369.216 174.528 
M 236.16 174.528 
C 236.16 174.528 236.16 174.528 236.16 174.528 
C 236.16 174.528 236.16 174.528 236.16 174.528 
C 236.16 174.528 236.16 174.528 236.16 174.528 
C 236.16 174.528 236.16 174.528 236.16 174.528 
C 236.16 174.528 236.16 174.528 236.16 174.528 
C 236.16 174.528 236.16 174.528 236.16 174.528 
C 236.16 174.528 236.16 174.528 236.16 174.528 
C 236.16 174.528 236.16 174.528 236.16 174.528 
C 236.16 174.528 236.16 174.528 236.16 174.528 
C 236.16 174.528 236.16 174.528 236.16 174.528 
C 236.16 174.528 236.16 174.528 236.16 174.528 
C 236.16 174.528 236.16 174.528 236.16 174.528 
C 236.16 174.528 236.16 174.528 236.16 174.528 
C 236.16 174.528 236.16 174.528 236.16 174.528 
C 236.16 174.528 236.16 174.528 236.16 174.528 
C 236.16 174.528 236.16 174.528 236.16 174.528 
M 369.216 174.528 
z
" style="fill: #ffffff"/>
   </g>
   <g id="matplotlib.axis_1">
    <g id="xtick_1">
     <g id="line2d_1">
      <path d="M 236.16 174.528 
L 369.216 174.528 
" clip-path="url(#p67d9302716)" style="fill: none; stroke: #b0b0b0; stroke-width: 0.8; stroke-linecap: square"/>
     </g>
     <g id="text_1">
      <!-- 0° -->
      <g transform="translate(377.53475 177.287375) scale(0.1 -0.1)">
       <defs>
        <path id="DejaVuSans-30" d="M 2034 4250 
Q 1547 4250 1301 3770 
Q 1056 3291 1056 2328 
Q 1056 1369 1301 889 
Q 1547 409 2034 409 
Q 2525 409 2770 889 
Q 3016 1369 3016 2328 
Q 3016 3291 2770 3770 
Q 2525 4250 2034 4250 
z
M 2034 4750 
Q 2819 4750 3233 4129 
Q 3647 3509 3647 2328 
Q 3647 1150 3233 529 
Q 2819 -91 2034 -91 
Q 1250 -91 836 529 
Q 422 1150 422 2328 
Q 422 3509 836 4129 
Q 1250 4750 2034 4750 
z
" transform="scale(0.015625)"/>
        <path id="DejaVuSans-b0" d="M 1600 4347 
Q 1350 4347 1178 4173 
Q 1006 4000 1006 3750 
Q 1006 3503 1178 3333 
Q 1350 3163 1600 3163 
Q 1850 3163 2022 3333 
Q 2194 3503 2194 3750 
Q 2194 3997 2020 4172 
Q 1847 4347 1600 4347 
z
M 1600 4750 
Q 1800 4750 1984 4673 
Q 2169 4597 2303 4453 
Q 2447 4313 2519 4134 
Q 2591 3956 2591 3750 
Q 2591 3338 2302 3052 
Q 2013 2766 1594 2766 
Q 1172 2766 890 3047 
Q 609 3328 609 3750 
Q 609 4169 896 4459 
Q 1184 4750 1600 4750 
z
" transform="scale(0.015625)"/>
       </defs>
       <use xlink:href="#DejaVuSans-30"/>
       <use xlink:href="#DejaVuSans-b0" x="63.623047"/>
      </g>
     </g>
    </g>
    <g id="xtick_2">
     <g id="line2d_2">
      <path d="M 236.16 174.528 
L 330.2448 80.4432 
" clip-path="url(#p67d9302716)" style="fill: none; stroke: #b0b0b0; stroke-width: 0.8; stroke-linecap: square"/>
     </g>
     <g id="text_2">
      <!-- 45° -->
      <g transform="translate(331.281795 73.30308) scale(0.1 -0.1)">
       <defs>
        <path id="DejaVuSans-34" d="M 2419 4116 
L 825 1625 
L 2419 1625 
L 2419 4116 
z
M 2253 4666 
L 3047 4666 
L 3047 1625 
L 3713 1625 
L 3713 1100 
L 3047 1100 
L 3047 0 
L 2419 0 
L 2419 1100 
L 313 1100 
L 313 1709 
L 2253 4666 
z
" transform="scale(0.015625)"/>
        <path id="DejaVuSans-35" d="M 691 4666 
L 3169 4666 
L 3169 4134 
L 1269 4134 
L 1269 2991 
Q 1406 3038 1543 3061 
Q 1681 3084 1819 3084 
Q 2600 3084 3056 2656 
Q 3513 2228 3513 1497 
Q 3513 744 3044 326 
Q 2575 -91 1722 -91 
Q 1428 -91 1123 -41 
Q 819 9 494 109 
L 494 744 
Q 775 591 1075 516 
Q 1375 441 1709 441 
Q 2250 441 2565 725 
Q 2881 1009 2881 1497 
Q 2881 1984 2565 2268 
Q 2250 2553 1709 2553 
Q 1456 2553 1204 2497 
Q 953 2441 691 2322 
L 691 4666 
z
" transform="scale(0.015625)"/>
       </defs>
       <use xlink:href="#DejaVuSans-34"/>
       <use xlink:href="#DejaVuSans-35" x="63.623047"/>
       <use xlink:href="#DejaVuSans-b0" x="127.246094"/>
      </g>
     </g>
    </g>
    <g id="xtick_3">
     <g id="line2d_3">
      <path d="M 236.16 174.528 
L 236.16 41.472 
" clip-path="url(#p67d9302716)" style="fill: none; stroke: #b0b0b0; stroke-width: 0.8; stroke-linecap: square"/>
     </g>
     <g id="text_3">
      <!-- 90° -->
      <g transform="translate(227.2975 30.231375) scale(0.1 -0.1)">
       <defs>
        <path id="DejaVuSans-39" d="M 703 97 
L 703 672 
Q 941 559 1184 500 
Q 1428 441 1663 441 
Q 2288 441 2617 861 
Q 2947 1281 2994 2138 
Q 2813 1869 2534 1725 
Q 2256 1581 1919 1581 
Q 1219 1581 811 2004 
Q 403 2428 403 3163 
Q 403 3881 828 4315 
Q 1253 4750 1959 4750 
Q 2769 4750 3195 4129 
Q 3622 3509 3622 2328 
Q 3622 1225 3098 567 
Q 2575 -91 1691 -91 
Q 1453 -91 1209 -44 
Q 966 3 703 97 
z
M 1959 2075 
Q 2384 2075 2632 2365 
Q 2881 2656 2881 3163 
Q 2881 3666 2632 3958 
Q 2384 4250 1959 4250 
Q 1534 4250 1286 3958 
Q 1038 3666 1038 3163 
Q 1038 2656 1286 2365 
Q 1534 2075 1959 2075 
z
" transform="scale(0.015625)"/>
       </defs>
       <use xlink:href="#DejaVuSans-39"/>
       <use xlink:href="#DejaVuSans-30" x="63.623047"/>
       <use xlink:href="#DejaVuSans-b0" x="127.246094"/>
      </g>
     </g>
    </g>
    <g id="xtick_4">
     <g id="line2d_4">
      <path d="M 236.16 174.528 
L 142.0752 80.4432 
" clip-path="url(#p67d9302716)" style="fill: none; stroke: #b0b0b0; stroke-width: 0.8; stroke-linecap: square"/>
     </g>
     <g id="text_4">
      <!-- 135° -->
      <g transform="translate(120.131955 73.30308) scale(0.1 -0.1)">
       <defs>
        <path id="DejaVuSans-31" d="M 794 531 
L 1825 531 
L 1825 4091 
L 703 3866 
L 703 4441 
L 1819 4666 
L 2450 4666 
L 2450 531 
L 3481 531 
L 3481 0 
L 794 0 
L 794 531 
z
" transform="scale(0.015625)"/>
        <path id="DejaVuSans-33" d="M 2597 2516 
Q 3050 2419 3304 2112 
Q 3559 1806 3559 1356 
Q 3559 666 3084 287 
Q 2609 -91 1734 -91 
Q 1441 -91 1130 -33 
Q 819 25 488 141 
L 488 750 
Q 750 597 1062 519 
Q 1375 441 1716 441 
Q 2309 441 2620 675 
Q 2931 909 2931 1356 
Q 2931 1769 2642 2001 
Q 2353 2234 1838 2234 
L 1294 2234 
L 1294 2753 
L 1863 2753 
Q 2328 2753 2575 2939 
Q 2822 3125 2822 3475 
Q 2822 3834 2567 4026 
Q 2313 4219 1838 4219 
Q 1578 4219 1281 4162 
Q 984 4106 628 3988 
L 628 4550 
Q 988 4650 1302 4700 
Q 1616 4750 1894 4750 
Q 2613 4750 3031 4423 
Q 3450 4097 3450 3541 
Q 3450 3153 3228 2886 
Q 3006 2619 2597 2516 
z
" transform="scale(0.015625)"/>
       </defs>
       <use xlink:href="#DejaVuSans-31"/>
       <use xlink:href="#DejaVuSans-33" x="63.623047"/>
       <use xlink:href="#DejaVuSans-35" x="127.246094"/>
       <use xlink:href="#DejaVuSans-b0" x="190.869141"/>
      </g>
     </g>
    </g>
    <g id="xtick_5">
     <g id="line2d_5">
      <path d="M 236.16 174.528 
L 103.104 174.528 
" clip-path="url(#p67d9302716)" style="fill: none; stroke: #b0b0b0; stroke-width: 0.8; stroke-linecap: square"/>
     </g>
     <g id="text_5">
      <!-- 180° -->
      <g transform="translate(77.06025 177.287375) scale(0.1 -0.1)">
       <defs>
        <path id="DejaVuSans-38" d="M 2034 2216 
Q 1584 2216 1326 1975 
Q 1069 1734 1069 1313 
Q 1069 891 1326 650 
Q 1584 409 2034 409 
Q 2484 409 2743 651 
Q 3003 894 3003 1313 
Q 3003 1734 2745 1975 
Q 2488 2216 2034 2216 
z
M 1403 2484 
Q 997 2584 770 2862 
Q 544 3141 544 3541 
Q 544 4100 942 4425 
Q 1341 4750 2034 4750 
Q 2731 4750 3128 4425 
Q 3525 4100 3525 3541 
Q 3525 3141 3298 2862 
Q 3072 2584 2669 2484 
Q 3125 2378 3379 2068 
Q 3634 1759 3634 1313 
Q 3634 634 3220 271 
Q 2806 -91 2034 -91 
Q 1263 -91 848 271 
Q 434 634 434 1313 
Q 434 1759 690 2068 
Q 947 2378 1403 2484 
z
M 1172 3481 
Q 1172 3119 1398 2916 
Q 1625 2713 2034 2713 
Q 2441 2713 2670 2916 
Q 2900 3119 2900 3481 
Q 2900 3844 2670 4047 
Q 2441 4250 2034 4250 
Q 1625 4250 1398 4047 
Q 1172 3844 1172 3481 
z
" transform="scale(0.015625)"/>
       </defs>
       <use xlink:href="#DejaVuSans-31"/>
       <use xlink:href="#DejaVuSans-38" x="63.623047"/>
       <use xlink:href="#DejaVuSans-30" x="127.246094"/>
       <use xlink:href="#DejaVuSans-b0" x="190.869141"/>
      </g>
     </g>
    </g>
    <g id="xtick_6">
     <g id="line2d_6">
      <path d="M 236.16 174.528 
L 142.0752 268.6128 
" clip-path="url(#p67d9302716)" style="fill: none; stroke: #b0b0b0; stroke-width: 0.8; stroke-linecap: square"/>
     </g>
     <g id="text_6">
      <!-- 225° -->
      <g transform="translate(120.131955 281.27167) scale(0.1 -0.1)">
       <defs>
        <path id="DejaVuSans-32" d="M 1228 531 
L 3431 531 
L 3431 0 
L 469 0 
L 469 531 
Q 828 903 1448 1529 
Q 2069 2156 2228 2338 
Q 2531 2678 2651 2914 
Q 2772 3150 2772 3378 
Q 2772 3750 2511 3984 
Q 2250 4219 1831 4219 
Q 1534 4219 1204 4116 
Q 875 4013 500 3803 
L 500 4441 
Q 881 4594 1212 4672 
Q 1544 4750 1819 4750 
Q 2544 4750 2975 4387 
Q 3406 4025 3406 3419 
Q 3406 3131 3298 2873 
Q 3191 2616 2906 2266 
Q 2828 2175 2409 1742 
Q 1991 1309 1228 531 
z
" transform="scale(0.015625)"/>
       </defs>
       <use xlink:href="#DejaVuSans-32"/>
       <use xlink:href="#DejaVuSans-32" x="63.623047"/>
       <use xlink:href="#DejaVuSans-35" x="127.246094"/>
       <use xlink:href="#DejaVuSans-b0" x="190.869141"/>
      </g>
     </g>
    </g>
    <g id="xtick_7">
     <g id="line2d_7">
      <path d="M 236.16 174.528 
L 236.16 307.584 
" clip-path="url(#p67d9302716)" style="fill: none; stroke: #b0b0b0; stroke-width: 0.8; stroke-linecap: square"/>
     </g>
     <g id="text_7">
      <!-- 270° -->
      <g transform="translate(224.11625 324.343375) scale(0.1 -0.1)">
       <defs>
        <path id="DejaVuSans-37" d="M 525 4666 
L 3525 4666 
L 3525 4397 
L 1831 0 
L 1172 0 
L 2766 4134 
L 525 4134 
L 525 4666 
z
" transform="scale(0.015625)"/>
       </defs>
       <use xlink:href="#DejaVuSans-32"/>
       <use xlink:href="#DejaVuSans-37" x="63.623047"/>
       <use xlink:href="#DejaVuSans-30" x="127.246094"/>
       <use xlink:href="#DejaVuSans-b0" x="190.869141"/>
      </g>
     </g>
    </g>
    <g id="xtick_8">
     <g id="line2d_8">
      <path d="M 236.16 174.528 
L 330.2448 268.6128 
" clip-path="url(#p67d9302716)" style="fill: none; stroke: #b0b0b0; stroke-width: 0.8; stroke-linecap: square"/>
     </g>
     <g id="text_8">
      <!-- 315° -->
      <g transform="translate(328.100545 281.27167) scale(0.1 -0.1)">
       <use xlink:href="#DejaVuSans-33"/>
       <use xlink:href="#DejaVuSans-31" x="63.623047"/>
       <use xlink:href="#DejaVuSans-35" x="127.246094"/>
       <use xlink:href="#DejaVuSans-b0" x="190.869141"/>
      </g>
     </g>
    </g>
    <g id="text_9">
     <!-- angle [deg] -->
     <g transform="translate(207.371719 338.0215) scale(0.1 -0.1)">
      <defs>
       <path id="DejaVuSans-61" d="M 2194 1759 
Q 1497 1759 1228 1600 
Q 959 1441 959 1056 
Q 959 750 1161 570 
Q 1363 391 1709 391 
Q 2188 391 2477 730 
Q 2766 1069 2766 1631 
L 2766 1759 
L 2194 1759 
z
M 3341 1997 
L 3341 0 
L 2766 0 
L 2766 531 
Q 2569 213 2275 61 
Q 1981 -91 1556 -91 
Q 1019 -91 701 211 
Q 384 513 384 1019 
Q 384 1609 779 1909 
Q 1175 2209 1959 2209 
L 2766 2209 
L 2766 2266 
Q 2766 2663 2505 2880 
Q 2244 3097 1772 3097 
Q 1472 3097 1187 3025 
Q 903 2953 641 2809 
L 641 3341 
Q 956 3463 1253 3523 
Q 1550 3584 1831 3584 
Q 2591 3584 2966 3190 
Q 3341 2797 3341 1997 
z
" transform="scale(0.015625)"/>
       <path id="DejaVuSans-6e" d="M 3513 2113 
L 3513 0 
L 2938 0 
L 2938 2094 
Q 2938 2591 2744 2837 
Q 2550 3084 2163 3084 
Q 1697 3084 1428 2787 
Q 1159 2491 1159 1978 
L 1159 0 
L 581 0 
L 581 3500 
L 1159 3500 
L 1159 2956 
Q 1366 3272 1645 3428 
Q 1925 3584 2291 3584 
Q 2894 3584 3203 3211 
Q 3513 2838 3513 2113 
z
" transform="scale(0.015625)"/>
       <path id="DejaVuSans-67" d="M 2906 1791 
Q 2906 2416 2648 2759 
Q 2391 3103 1925 3103 
Q 1463 3103 1205 2759 
Q 947 2416 947 1791 
Q 947 1169 1205 825 
Q 1463 481 1925 481 
Q 2391 481 2648 825 
Q 2906 1169 2906 1791 
z
M 3481 434 
Q 3481 -459 3084 -895 
Q 2688 -1331 1869 -1331 
Q 1566 -1331 1297 -1286 
Q 1028 -1241 775 -1147 
L 775 -588 
Q 1028 -725 1275 -790 
Q 1522 -856 1778 -856 
Q 2344 -856 2625 -561 
Q 2906 -266 2906 331 
L 2906 616 
Q 2728 306 2450 153 
Q 2172 0 1784 0 
Q 1141 0 747 490 
Q 353 981 353 1791 
Q 353 2603 747 3093 
Q 1141 3584 1784 3584 
Q 2172 3584 2450 3431 
Q 2728 3278 2906 2969 
L 2906 3500 
L 3481 3500 
L 3481 434 
z
" transform="scale(0.015625)"/>
       <path id="DejaVuSans-6c" d="M 603 4863 
L 1178 4863 
L 1178 0 
L 603 0 
L 603 4863 
z
" transform="scale(0.015625)"/>
       <path id="DejaVuSans-65" d="M 3597 1894 
L 3597 1613 
L 953 1613 
Q 991 1019 1311 708 
Q 1631 397 2203 397 
Q 2534 397 2845 478 
Q 3156 559 3463 722 
L 3463 178 
Q 3153 47 2828 -22 
Q 2503 -91 2169 -91 
Q 1331 -91 842 396 
Q 353 884 353 1716 
Q 353 2575 817 3079 
Q 1281 3584 2069 3584 
Q 2775 3584 3186 3129 
Q 3597 2675 3597 1894 
z
M 3022 2063 
Q 3016 2534 2758 2815 
Q 2500 3097 2075 3097 
Q 1594 3097 1305 2825 
Q 1016 2553 972 2059 
L 3022 2063 
z
" transform="scale(0.015625)"/>
       <path id="DejaVuSans-20" transform="scale(0.015625)"/>
       <path id="DejaVuSans-5b" d="M 550 4863 
L 1875 4863 
L 1875 4416 
L 1125 4416 
L 1125 -397 
L 1875 -397 
L 1875 -844 
L 550 -844 
L 550 4863 
z
" transform="scale(0.015625)"/>
       <path id="DejaVuSans-64" d="M 2906 2969 
L 2906 4863 
L 3481 4863 
L 3481 0 
L 2906 0 
L 2906 525 
Q 2725 213 2448 61 
Q 2172 -91 1784 -91 
Q 1150 -91 751 415 
Q 353 922 353 1747 
Q 353 2572 751 3078 
Q 1150 3584 1784 3584 
Q 2172 3584 2448 3432 
Q 2725 3281 2906 2969 
z
M 947 1747 
Q 947 1113 1208 752 
Q 1469 391 1925 391 
Q 2381 391 2643 752 
Q 2906 1113 2906 1747 
Q 2906 2381 2643 2742 
Q 2381 3103 1925 3103 
Q 1469 3103 1208 2742 
Q 947 2381 947 1747 
z
" transform="scale(0.015625)"/>
       <path id="DejaVuSans-5d" d="M 1947 4863 
L 1947 -844 
L 622 -844 
L 622 -397 
L 1369 -397 
L 1369 4416 
L 622 4416 
L 622 4863 
L 1947 4863 
z
" transform="scale(0.015625)"/>
      </defs>
      <use xlink:href="#DejaVuSans-61"/>
      <use xlink:href="#DejaVuSans-6e" x="61.279297"/>
      <use xlink:href="#DejaVuSans-67" x="124.658203"/>
      <use xlink:href="#DejaVuSans-6c" x="188.134766"/>
      <use xlink:href="#DejaVuSans-65" x="215.917969"/>
      <use xlink:href="#DejaVuSans-20" x="277.441406"/>
      <use xlink:href="#DejaVuSans-5b" x="309.228516"/>
      <use xlink:href="#DejaVuSans-64" x="348.242188"/>
      <use xlink:href="#DejaVuSans-65" x="411.71875"/>
      <use xlink:href="#DejaVuSans-67" x="473.242188"/>
      <use xlink:href="#DejaVuSans-5d" x="536.71875"/>
     </g>
    </g>
   </g>
   <g id="matplotlib.axis_2">
    <g id="ytick_1">
     <g id="line2d_9">
      <path d="M 260.903524 174.528 
C 260.903524 171.27871 260.263485 168.061016 259.020036 165.059063 
C 257.776586 162.057111 255.953909 159.329281 253.656314 157.031686 
C 251.358719 154.734091 248.630889 152.911414 245.628937 151.667964 
C 242.626984 150.424515 239.40929 149.784476 236.16 149.784476 
C 232.91071 149.784476 229.693016 150.424515 226.691063 151.667964 
C 223.689111 152.911414 220.961281 154.734091 218.663686 157.031686 
C 216.366091 159.329281 214.543414 162.057111 213.299964 165.059063 
C 212.056515 168.061016 211.416476 171.27871 211.416476 174.528 
C 211.416476 177.77729 212.056515 180.994984 213.299964 183.996937 
C 214.543414 186.998889 216.366091 189.726719 218.663686 192.024314 
C 220.961281 194.321909 223.689111 196.144586 226.691063 197.388036 
C 229.693016 198.631485 232.91071 199.271524 236.16 199.271524 
C 239.40929 199.271524 242.626984 198.631485 245.628937 197.388036 
C 248.630889 196.144586 251.358719 194.321909 253.656314 192.024314 
C 255.953909 189.726719 257.776586 186.998889 259.020036 183.996937 
C 260.263485 180.994984 260.903524 177.77729 260.903524 174.528 
" clip-path="url(#p67d9302716)" style="fill: none; stroke: #b0b0b0; stroke-width: 0.8; stroke-linecap: square"/>
     </g>
     <g id="text_10">
      <!-- 20 -->
      <g transform="translate(259.020036 181.917249) scale(0.1 -0.1)">
       <use xlink:href="#DejaVuSans-32"/>
       <use xlink:href="#DejaVuSans-30" x="63.623047"/>
      </g>
     </g>
    </g>
    <g id="ytick_2">
     <g id="line2d_10">
      <path d="M 285.647049 174.528 
C 285.647049 168.02942 284.36697 161.594031 281.880072 155.590126 
C 279.393173 149.586221 275.747818 144.130562 271.152628 139.535372 
C 266.557438 134.940182 261.101779 131.294827 255.097874 128.807928 
C 249.093969 126.32103 242.65858 125.040951 236.16 125.040951 
C 229.66142 125.040951 223.226031 126.32103 217.222126 128.807928 
C 211.218221 131.294827 205.762562 134.940182 201.167372 139.535372 
C 196.572182 144.130562 192.926827 149.586221 190.439928 155.590126 
C 187.95303 161.594031 186.672951 168.02942 186.672951 174.528 
C 186.672951 181.02658 187.95303 187.461969 190.439928 193.465874 
C 192.926827 199.469779 196.572182 204.925438 201.167372 209.520628 
C 205.762562 214.115818 211.218221 217.761173 217.222126 220.248072 
C 223.226031 222.73497 229.66142 224.015049 236.16 224.015049 
C 242.65858 224.015049 249.093969 222.73497 255.097874 220.248072 
C 261.101779 217.761173 266.557438 214.115818 271.152628 209.520628 
C 275.747818 204.925438 279.393173 199.469779 281.880072 193.465874 
C 284.36697 187.461969 285.647049 181.02658 285.647049 174.528 
" clip-path="url(#p67d9302716)" style="fill: none; stroke: #b0b0b0; stroke-width: 0.8; stroke-linecap: square"/>
     </g>
     <g id="text_11">
      <!-- 40 -->
      <g transform="translate(281.880072 191.386186) scale(0.1 -0.1)">
       <use xlink:href="#DejaVuSans-34"/>
       <use xlink:href="#DejaVuSans-30" x="63.623047"/>
      </g>
     </g>
    </g>
    <g id="ytick_3">
     <g id="line2d_11">
      <path d="M 310.390573 174.528 
C 310.390573 164.78013 308.470456 155.127047 304.740107 146.121189 
C 301.009759 137.115332 295.541726 128.931843 288.648942 122.039058 
C 281.756157 115.146274 273.572668 109.678241 264.566811 105.947893 
C 255.560953 102.217544 245.90787 100.297427 236.16 100.297427 
C 226.41213 100.297427 216.759047 102.217544 207.753189 105.947893 
C 198.747332 109.678241 190.563843 115.146274 183.671058 122.039058 
C 176.778274 128.931843 171.310241 137.115332 167.579893 146.121189 
C 163.849544 155.127047 161.929427 164.78013 161.929427 174.528 
C 161.929427 184.27587 163.849544 193.928953 167.579893 202.934811 
C 171.310241 211.940668 176.778274 220.124157 183.671058 227.016942 
C 190.563843 233.909726 198.747332 239.377759 207.753189 243.108107 
C 216.759047 246.838456 226.41213 248.758573 236.16 248.758573 
C 245.90787 248.758573 255.560953 246.838456 264.566811 243.108107 
C 273.572668 239.377759 281.756157 233.909726 288.648942 227.016942 
C 295.541726 220.124157 301.009759 211.940668 304.740107 202.934811 
C 308.470456 193.928953 310.390573 184.27587 310.390573 174.528 
" clip-path="url(#p67d9302716)" style="fill: none; stroke: #b0b0b0; stroke-width: 0.8; stroke-linecap: square"/>
     </g>
     <g id="text_12">
      <!-- 60 -->
      <g transform="translate(304.740107 200.855123) scale(0.1 -0.1)">
       <defs>
        <path id="DejaVuSans-36" d="M 2113 2584 
Q 1688 2584 1439 2293 
Q 1191 2003 1191 1497 
Q 1191 994 1439 701 
Q 1688 409 2113 409 
Q 2538 409 2786 701 
Q 3034 994 3034 1497 
Q 3034 2003 2786 2293 
Q 2538 2584 2113 2584 
z
M 3366 4563 
L 3366 3988 
Q 3128 4100 2886 4159 
Q 2644 4219 2406 4219 
Q 1781 4219 1451 3797 
Q 1122 3375 1075 2522 
Q 1259 2794 1537 2939 
Q 1816 3084 2150 3084 
Q 2853 3084 3261 2657 
Q 3669 2231 3669 1497 
Q 3669 778 3244 343 
Q 2819 -91 2113 -91 
Q 1303 -91 875 529 
Q 447 1150 447 2328 
Q 447 3434 972 4092 
Q 1497 4750 2381 4750 
Q 2619 4750 2861 4703 
Q 3103 4656 3366 4563 
z
" transform="scale(0.015625)"/>
       </defs>
       <use xlink:href="#DejaVuSans-36"/>
       <use xlink:href="#DejaVuSans-30" x="63.623047"/>
      </g>
     </g>
    </g>
    <g id="ytick_4">
     <g id="line2d_12">
      <path d="M 335.134098 174.528 
C 335.134098 161.530841 332.573941 148.660062 327.600143 136.652253 
C 322.626346 124.644443 315.335635 113.733124 306.145256 104.542744 
C 296.954876 95.352365 286.043557 88.061654 274.035747 83.087857 
C 262.027938 78.114059 249.157159 75.553902 236.16 75.553902 
C 223.162841 75.553902 210.292062 78.114059 198.284253 83.087857 
C 186.276443 88.061654 175.365124 95.352365 166.174744 104.542744 
C 156.984365 113.733124 149.693654 124.644443 144.719857 136.652253 
C 139.746059 148.660062 137.185902 161.530841 137.185902 174.528 
C 137.185902 187.525159 139.746059 200.395938 144.719857 212.403747 
C 149.693654 224.411557 156.984365 235.322876 166.174744 244.513256 
C 175.365124 253.703635 186.276443 260.994346 198.284253 265.968143 
C 210.292062 270.941941 223.162841 273.502098 236.16 273.502098 
C 249.157159 273.502098 262.027938 270.941941 274.035747 265.968143 
C 286.043557 260.994346 296.954876 253.703635 306.145256 244.513256 
C 315.335635 235.322876 322.626346 224.411557 327.600143 212.403747 
C 332.573941 200.395938 335.134098 187.525159 335.134098 174.528 
" clip-path="url(#p67d9302716)" style="fill: none; stroke: #b0b0b0; stroke-width: 0.8; stroke-linecap: square"/>
     </g>
     <g id="text_13">
      <!-- 80 -->
      <g transform="translate(327.600143 210.32406) scale(0.1 -0.1)">
       <use xlink:href="#DejaVuSans-38"/>
       <use xlink:href="#DejaVuSans-30" x="63.623047"/>
      </g>
     </g>
    </g>
    <g id="ytick_5">
     <g id="line2d_13">
      <path d="M 359.877622 174.528 
C 359.877622 158.281551 356.677426 142.193078 350.460179 127.183316 
C 344.242932 112.173554 335.129544 98.534405 323.64157 87.04643 
C 312.153595 75.558456 298.514446 66.445068 283.504684 60.227821 
C 268.494922 54.010574 252.406449 50.810378 236.16 50.810378 
C 219.913551 50.810378 203.825078 54.010574 188.815316 60.227821 
C 173.805554 66.445068 160.166405 75.558456 148.67843 87.04643 
C 137.190456 98.534405 128.077068 112.173554 121.859821 127.183316 
C 115.642574 142.193078 112.442378 158.281551 112.442378 174.528 
C 112.442378 190.774449 115.642574 206.862922 121.859821 221.872684 
C 128.077068 236.882446 137.190456 250.521595 148.67843 262.00957 
C 160.166405 273.497544 173.805554 282.610932 188.815316 288.828179 
C 203.825078 295.045426 219.913551 298.245622 236.16 298.245622 
C 252.406449 298.245622 268.494922 295.045426 283.504684 288.828179 
C 298.514446 282.610932 312.153595 273.497544 323.64157 262.00957 
C 335.129544 250.521595 344.242932 236.882446 350.460179 221.872684 
C 356.677426 206.862922 359.877622 190.774449 359.877622 174.528 
" clip-path="url(#p67d9302716)" style="fill: none; stroke: #b0b0b0; stroke-width: 0.8; stroke-linecap: square"/>
     </g>
     <g id="text_14">
      <!-- 100 -->
      <g transform="translate(350.460179 219.792997) scale(0.1 -0.1)">
       <use xlink:href="#DejaVuSans-31"/>
       <use xlink:href="#DejaVuSans-30" x="63.623047"/>
       <use xlink:href="#DejaVuSans-30" x="127.246094"/>
      </g>
     </g>
    </g>
   </g>
   <g id="LineCollection_1">
    <path d="M 352.613403 176.560702 
L 352.613403 172.495298 
" clip-path="url(#p67d9302716)" style="fill: none; stroke: #008000; stroke-width: 1.5"/>
    <path d="M 348.492193 166.672968 
L 348.149627 162.757416 
" clip-path="url(#p67d9302716)" style="fill: none; stroke: #008000; stroke-width: 1.5"/>
    <path d="M 343.862864 157.469542 
L 343.201923 153.721158 
" clip-path="url(#p67d9302716)" style="fill: none; stroke: #008000; stroke-width: 1.5"/>
    <path d="M 336.245973 149.573764 
L 335.314113 146.096016 
" clip-path="url(#p67d9302716)" style="fill: none; stroke: #008000; stroke-width: 1.5"/>
    <path d="M 331.971276 141.537532 
L 330.761559 138.213864 
" clip-path="url(#p67d9302716)" style="fill: none; stroke: #008000; stroke-width: 1.5"/>
    <path d="M 323.469932 126.131314 
L 321.727726 123.113723 
" clip-path="url(#p67d9302716)" style="fill: none; stroke: #008000; stroke-width: 1.5"/>
    <path d="M 309.980526 114.749317 
L 307.84931 112.209433 
" clip-path="url(#p67d9302716)" style="fill: none; stroke: #008000; stroke-width: 1.5"/>
    <path d="M 294.821442 107.04573 
L 292.43061 105.039583 
" clip-path="url(#p67d9302716)" style="fill: none; stroke: #008000; stroke-width: 1.5"/>
    <path d="M 281.097739 99.739043 
L 278.460267 98.216298 
" clip-path="url(#p67d9302716)" style="fill: none; stroke: #008000; stroke-width: 1.5"/>
    <path d="M 267.226912 93.595927 
L 264.383498 92.561009 
" clip-path="url(#p67d9302716)" style="fill: none; stroke: #008000; stroke-width: 1.5"/>
    <path d="M 252.76812 89.086627 
L 249.776142 88.559061 
" clip-path="url(#p67d9302716)" style="fill: none; stroke: #008000; stroke-width: 1.5"/>
    <path d="M 237.734389 84.331323 
L 234.585611 84.331323 
" clip-path="url(#p67d9302716)" style="fill: none; stroke: #008000; stroke-width: 1.5"/>
    <path d="M 204.122415 81.484098 
L 200.894746 82.658874 
" clip-path="url(#p67d9302716)" style="fill: none; stroke: #008000; stroke-width: 1.5"/>
    <path d="M 170.115692 92.970072 
L 167.309594 95.324668 
" clip-path="url(#p67d9302716)" style="fill: none; stroke: #008000; stroke-width: 1.5"/>
    <path d="M 142.226561 118.087095 
L 140.314023 121.399707 
" clip-path="url(#p67d9302716)" style="fill: none; stroke: #008000; stroke-width: 1.5"/>
    <path d="M 127.294065 153.366606 
L 126.621861 157.178863 
" clip-path="url(#p67d9302716)" style="fill: none; stroke: #008000; stroke-width: 1.5"/>
    <path d="M 130.814149 191.213144 
L 131.460626 194.879497 
" clip-path="url(#p67d9302716)" style="fill: none; stroke: #008000; stroke-width: 1.5"/>
    <path d="M 150.831909 221.826133 
L 152.53457 224.775228 
" clip-path="url(#p67d9302716)" style="fill: none; stroke: #008000; stroke-width: 1.5"/>
    <path d="M 176.496856 243.162596 
L 178.928514 245.203 
" clip-path="url(#p67d9302716)" style="fill: none; stroke: #008000; stroke-width: 1.5"/>
    <path d="M 204.443938 257.151168 
L 207.346765 258.20771 
" clip-path="url(#p67d9302716)" style="fill: none; stroke: #008000; stroke-width: 1.5"/>
    <path d="M 234.214377 285.99266 
L 238.105623 285.99266 
" clip-path="url(#p67d9302716)" style="fill: none; stroke: #008000; stroke-width: 1.5"/>
    <path d="M 277.127784 293.507083 
L 281.255137 292.004849 
" clip-path="url(#p67d9302716)" style="fill: none; stroke: #008000; stroke-width: 1.5"/>
    <path d="M 304.382393 258.775639 
L 307.281034 256.34339 
" clip-path="url(#p67d9302716)" style="fill: none; stroke: #008000; stroke-width: 1.5"/>
    <path d="M 335.521444 234.230379 
L 337.544498 230.726345 
" clip-path="url(#p67d9302716)" style="fill: none; stroke: #008000; stroke-width: 1.5"/>
    <path d="M 348.568638 196.378026 
L 349.262717 192.44171 
" clip-path="url(#p67d9302716)" style="fill: none; stroke: #008000; stroke-width: 1.5"/>
    <path d="M 348.075543 176.481493 
L 348.075543 172.574507 
" clip-path="url(#p67d9302716)" style="fill: none; stroke: #008000; stroke-width: 1.5"/>
   </g>
   <g id="LineCollection_2">
    <path d="M 349.788544 174.528 
L 355.47374 174.528 
" clip-path="url(#p67d9302716)" style="fill: none; stroke: #008000; stroke-width: 1.5"/>
    <path d="M 344.938552 165.01111 
L 351.737439 164.416284 
" clip-path="url(#p67d9302716)" style="fill: none; stroke: #008000; stroke-width: 1.5"/>
    <path d="M 340.61289 156.110137 
L 346.484608 155.074795 
" clip-path="url(#p67d9302716)" style="fill: none; stroke: #008000; stroke-width: 1.5"/>
    <path d="M 334.510547 148.17505 
L 337.079889 147.486597 
" clip-path="url(#p67d9302716)" style="fill: none; stroke: #008000; stroke-width: 1.5"/>
    <path d="M 330.048144 140.35551 
L 332.713697 139.385328 
" clip-path="url(#p67d9302716)" style="fill: none; stroke: #008000; stroke-width: 1.5"/>
    <path d="M 321.468559 125.27508 
L 323.755433 123.954753 
" clip-path="url(#p67d9302716)" style="fill: none; stroke: #008000; stroke-width: 1.5"/>
    <path d="M 306.094547 115.845947 
L 311.757454 111.094204 
" clip-path="url(#p67d9302716)" style="fill: none; stroke: #008000; stroke-width: 1.5"/>
    <path d="M 293.001203 106.787292 
L 294.268357 105.277157 
" clip-path="url(#p67d9302716)" style="fill: none; stroke: #008000; stroke-width: 1.5"/>
    <path d="M 279.695501 99.122301 
L 279.875794 98.810023 
" clip-path="url(#p67d9302716)" style="fill: none; stroke: #008000; stroke-width: 1.5"/>
    <path d="M 265.607418 93.621884 
L 266.012024 92.510239 
" clip-path="url(#p67d9302716)" style="fill: none; stroke: #008000; stroke-width: 1.5"/>
    <path d="M 251.202144 89.219762 
L 251.346723 88.399816 
" clip-path="url(#p67d9302716)" style="fill: none; stroke: #008000; stroke-width: 1.5"/>
    <path d="M 236.16 87.50351 
L 236.16 81.131657 
" clip-path="url(#p67d9302716)" style="fill: none; stroke: #008000; stroke-width: 1.5"/>
    <path d="M 203.232866 84.061444 
L 201.774043 80.05336 
" clip-path="url(#p67d9302716)" style="fill: none; stroke: #008000; stroke-width: 1.5"/>
    <path d="M 169.51769 95.106788 
L 167.887048 93.163464 
" clip-path="url(#p67d9302716)" style="fill: none; stroke: #008000; stroke-width: 1.5"/>
    <path d="M 142.578888 120.49892 
L 139.932787 118.971193 
" clip-path="url(#p67d9302716)" style="fill: none; stroke: #008000; stroke-width: 1.5"/>
    <path d="M 127.782194 155.418069 
L 126.100463 155.121534 
" clip-path="url(#p67d9302716)" style="fill: none; stroke: #008000; stroke-width: 1.5"/>
    <path d="M 131.932112 192.906189 
L 130.310666 193.192093 
" clip-path="url(#p67d9302716)" style="fill: none; stroke: #008000; stroke-width: 1.5"/>
    <path d="M 152.722758 222.700514 
L 150.617985 223.915706 
" clip-path="url(#p67d9302716)" style="fill: none; stroke: #008000; stroke-width: 1.5"/>
    <path d="M 178.131367 243.683832 
L 177.276196 244.702985 
" clip-path="url(#p67d9302716)" style="fill: none; stroke: #008000; stroke-width: 1.5"/>
    <path d="M 206.342497 256.450916 
L 205.438985 258.933295 
" clip-path="url(#p67d9302716)" style="fill: none; stroke: #008000; stroke-width: 1.5"/>
    <path d="M 236.16 285.198657 
L 236.16 286.82062 
" clip-path="url(#p67d9302716)" style="fill: none; stroke: #008000; stroke-width: 1.5"/>
    <path d="M 277.49298 288.08943 
L 280.903051 297.458521 
" clip-path="url(#p67d9302716)" style="fill: none; stroke: #008000; stroke-width: 1.5"/>
    <path d="M 304.374334 255.822678 
L 307.310318 259.321647 
" clip-path="url(#p67d9302716)" style="fill: none; stroke: #008000; stroke-width: 1.5"/>
    <path d="M 335.964859 232.150362 
L 337.131663 232.824017 
" clip-path="url(#p67d9302716)" style="fill: none; stroke: #008000; stroke-width: 1.5"/>
    <path d="M 347.67429 194.190978 
L 350.191416 194.634815 
" clip-path="url(#p67d9302716)" style="fill: none; stroke: #008000; stroke-width: 1.5"/>
    <path d="M 346.046549 174.528 
L 350.138633 174.528 
" clip-path="url(#p67d9302716)" style="fill: none; stroke: #008000; stroke-width: 1.5"/>
   </g>
   <g id="line2d_14">
    <path d="M 338.991396 174.528 
L 338.784363 168.00603 
L 338.164098 161.510321 
L 337.133098 155.06703 
L 335.695516 148.702102 
L 333.857139 142.441165 
L 331.62537 136.309431 
L 329.009196 130.331589 
L 326.019151 124.531711 
L 322.667275 118.93315 
L 318.967065 113.55845 
L 314.933419 108.429253 
L 310.582581 103.566212 
L 305.93207 98.988909 
L 301.000611 94.715776 
L 295.808062 90.764018 
L 290.375331 87.149548 
L 284.724294 83.88692 
L 278.877706 80.989272 
L 272.859108 78.468272 
L 266.692737 76.33407 
L 260.40342 74.59526 
L 254.016484 73.258844 
L 247.557647 72.330204 
L 241.052915 71.813077 
L 234.528481 71.709548 
L 228.010616 72.020032 
L 221.525567 72.74328 
L 215.099444 73.876378 
L 208.758126 75.414766 
L 202.527145 77.352247 
L 196.431591 79.681021 
L 190.49601 82.39171 
L 184.744302 85.473399 
L 179.199627 88.91368 
L 173.884311 92.698699 
L 168.819757 96.813216 
L 164.026358 101.240664 
L 159.523416 105.963213 
L 155.329063 110.961849 
L 151.460188 116.216443 
L 147.932368 121.705837 
L 144.75981 127.407927 
L 141.955289 133.299753 
L 139.530096 139.357591 
L 137.493998 145.557048 
L 135.855194 151.87316 
L 134.620281 158.280496 
L 133.794233 164.753254 
L 133.380376 171.265372 
L 133.380376 177.790628 
L 133.794233 184.302746 
L 134.620281 190.775504 
L 135.855194 197.18284 
L 137.493998 203.498952 
L 139.530096 209.698409 
L 141.955289 215.756247 
L 144.75981 221.648073 
L 147.932368 227.350163 
L 151.460188 232.839557 
L 155.329063 238.094151 
L 159.523416 243.092787 
L 164.026358 247.815336 
L 168.819757 252.242784 
L 173.884311 256.357301 
L 179.199627 260.14232 
L 184.744302 263.582601 
L 190.49601 266.66429 
L 196.431591 269.374979 
L 202.527145 271.703753 
L 208.758126 273.641234 
L 215.099444 275.179622 
L 221.525567 276.31272 
L 228.010616 277.035968 
L 234.528481 277.346452 
L 241.052915 277.242923 
L 247.557647 276.725796 
L 254.016484 275.797156 
L 260.40342 274.46074 
L 266.692737 272.72193 
L 272.859108 270.587728 
L 278.877706 268.066728 
L 284.724294 265.16908 
L 290.375331 261.906452 
L 295.808062 258.291982 
L 301.000611 254.340224 
L 305.93207 250.067091 
L 310.582581 245.489788 
L 314.933419 240.626747 
L 318.967065 235.49755 
L 322.667275 230.12285 
L 326.019151 224.524289 
L 329.009196 218.724411 
L 331.62537 212.746569 
L 333.857139 206.614835 
L 335.695516 200.353898 
L 337.133098 193.98897 
L 338.164098 187.545679 
L 338.784363 181.04997 
L 338.991396 174.528 
" clip-path="url(#p67d9302716)" style="fill: none; stroke-dasharray: 5.55,2.4; stroke-dashoffset: 0; stroke: #ff0000; stroke-width: 1.5"/>
   </g>
   <g id="patch_3">
    <path d="M 369.216 174.528 
C 369.216 157.055246 365.774248 139.752393 359.087715 123.609673 
C 352.401182 107.466954 342.599903 92.798303 330.2448 80.4432 
C 317.889697 68.088097 303.221046 58.286818 287.078327 51.600285 
C 270.935607 44.913752 253.632754 41.472 236.16 41.472 
C 218.687246 41.472 201.384393 44.913752 185.241673 51.600285 
C 169.098954 58.286818 154.430303 68.088097 142.0752 80.4432 
C 129.720097 92.798303 119.918818 107.466954 113.232285 123.609673 
C 106.545752 139.752393 103.104 157.055246 103.104 174.528 
C 103.104 192.000754 106.545752 209.303607 113.232285 225.446327 
C 119.918818 241.589046 129.720097 256.257697 142.0752 268.6128 
C 154.430303 280.967903 169.098954 290.769182 185.241673 297.455715 
C 201.384393 304.142248 218.687246 307.584 236.16 307.584 
C 253.632754 307.584 270.935607 304.142248 287.078327 297.455715 
C 303.221046 290.769182 317.889697 280.967903 330.2448 268.6128 
C 342.599903 256.257697 352.401182 241.589046 359.087715 225.446327 
C 365.774248 209.303607 369.216 192.000754 369.216 174.528 
" style="fill: none; stroke: #000000; stroke-width: 0.8; stroke-linejoin: miter; stroke-linecap: square"/>
   </g>
   <g id="text_15">
    <!-- $\frac{\lambda}{4}$ wave plate -->
    <g transform="translate(197.88 16.632938) scale(0.12 -0.12)">
     <defs>
      <path id="DejaVuSans-Oblique-3bb" d="M 2350 4316 
L 3125 0 
L 2516 0 
L 2038 2588 
L 328 0 
L -281 0 
L 1903 3356 
L 1794 3975 
Q 1725 4369 1391 4369 
L 1091 4369 
L 1184 4863 
L 1550 4856 
Q 2253 4847 2350 4316 
z
" transform="scale(0.015625)"/>
      <path id="DejaVuSans-77" d="M 269 3500 
L 844 3500 
L 1563 769 
L 2278 3500 
L 2956 3500 
L 3675 769 
L 4391 3500 
L 4966 3500 
L 4050 0 
L 3372 0 
L 2619 2869 
L 1863 0 
L 1184 0 
L 269 3500 
z
" transform="scale(0.015625)"/>
      <path id="DejaVuSans-76" d="M 191 3500 
L 800 3500 
L 1894 563 
L 2988 3500 
L 3597 3500 
L 2284 0 
L 1503 0 
L 191 3500 
z
" transform="scale(0.015625)"/>
      <path id="DejaVuSans-70" d="M 1159 525 
L 1159 -1331 
L 581 -1331 
L 581 3500 
L 1159 3500 
L 1159 2969 
Q 1341 3281 1617 3432 
Q 1894 3584 2278 3584 
Q 2916 3584 3314 3078 
Q 3713 2572 3713 1747 
Q 3713 922 3314 415 
Q 2916 -91 2278 -91 
Q 1894 -91 1617 61 
Q 1341 213 1159 525 
z
M 3116 1747 
Q 3116 2381 2855 2742 
Q 2594 3103 2138 3103 
Q 1681 3103 1420 2742 
Q 1159 2381 1159 1747 
Q 1159 1113 1420 752 
Q 1681 391 2138 391 
Q 2594 391 2855 752 
Q 3116 1113 3116 1747 
z
" transform="scale(0.015625)"/>
      <path id="DejaVuSans-74" d="M 1172 4494 
L 1172 3500 
L 2356 3500 
L 2356 3053 
L 1172 3053 
L 1172 1153 
Q 1172 725 1289 603 
Q 1406 481 1766 481 
L 2356 481 
L 2356 0 
L 1766 0 
Q 1100 0 847 248 
Q 594 497 594 1153 
L 594 3053 
L 172 3053 
L 172 3500 
L 594 3500 
L 594 4494 
L 1172 4494 
z
" transform="scale(0.015625)"/>
     </defs>
     <use xlink:href="#DejaVuSans-Oblique-3bb" transform="translate(2 43.810938) scale(0.7)"/>
     <use xlink:href="#DejaVuSans-34" transform="translate(0 -38.473437) scale(0.7)"/>
     <use xlink:href="#DejaVuSans-20" transform="translate(57.036133 0.014063)"/>
     <use xlink:href="#DejaVuSans-77" transform="translate(88.823242 0.014063)"/>
     <use xlink:href="#DejaVuSans-61" transform="translate(170.610352 0.014063)"/>
     <use xlink:href="#DejaVuSans-76" transform="translate(231.889648 0.014063)"/>
     <use xlink:href="#DejaVuSans-65" transform="translate(291.069336 0.014063)"/>
     <use xlink:href="#DejaVuSans-20" transform="translate(352.592773 0.014063)"/>
     <use xlink:href="#DejaVuSans-70" transform="translate(384.379883 0.014063)"/>
     <use xlink:href="#DejaVuSans-6c" transform="translate(447.856445 0.014063)"/>
     <use xlink:href="#DejaVuSans-61" transform="translate(475.639648 0.014063)"/>
     <use xlink:href="#DejaVuSans-74" transform="translate(536.918945 0.014063)"/>
     <use xlink:href="#DejaVuSans-65" transform="translate(576.12793 0.014063)"/>
     <path d="M 0 18.810937 
L 0 25.060937 
L 44.536133 25.060937 
L 44.536133 18.810937 
L 0 18.810937 
z
"/>
    </g>
   </g>
  </g>
 </g>
 <defs>
  <clipPath id="p67d9302716">
   <path d="M 369.216 174.528 
C 369.216 157.055246 365.774248 139.752393 359.087715 123.609673 
C 352.401182 107.466954 342.599903 92.798303 330.2448 80.4432 
C 317.889697 68.088097 303.221046 58.286818 287.078327 51.600285 
C 270.935607 44.913752 253.632754 41.472 236.16 41.472 
C 218.687246 41.472 201.384393 44.913752 185.241673 51.600285 
C 169.098954 58.286818 154.430303 68.088097 142.0752 80.4432 
C 129.720097 92.798303 119.918818 107.466954 113.232285 123.609673 
C 106.545752 139.752393 103.104 157.055246 103.104 174.528 
C 103.104 192.000754 106.545752 209.303607 113.232285 225.446327 
C 119.918818 241.589046 129.720097 256.257697 142.0752 268.6128 
C 154.430303 280.967903 169.098954 290.769182 185.241673 297.455715 
C 201.384393 304.142248 218.687246 307.584 236.16 307.584 
C 253.632754 307.584 270.935607 304.142248 287.078327 297.455715 
C 303.221046 290.769182 317.889697 280.967903 330.2448 268.6128 
C 342.599903 256.257697 352.401182 241.589046 359.087715 225.446327 
C 365.774248 209.303607 369.216 192.000754 369.216 174.528 
M 236.16 174.528 
C 236.16 174.528 236.16 174.528 236.16 174.528 
C 236.16 174.528 236.16 174.528 236.16 174.528 
C 236.16 174.528 236.16 174.528 236.16 174.528 
C 236.16 174.528 236.16 174.528 236.16 174.528 
C 236.16 174.528 236.16 174.528 236.16 174.528 
C 236.16 174.528 236.16 174.528 236.16 174.528 
C 236.16 174.528 236.16 174.528 236.16 174.528 
C 236.16 174.528 236.16 174.528 236.16 174.528 
C 236.16 174.528 236.16 174.528 236.16 174.528 
C 236.16 174.528 236.16 174.528 236.16 174.528 
C 236.16 174.528 236.16 174.528 236.16 174.528 
C 236.16 174.528 236.16 174.528 236.16 174.528 
C 236.16 174.528 236.16 174.528 236.16 174.528 
C 236.16 174.528 236.16 174.528 236.16 174.528 
C 236.16 174.528 236.16 174.528 236.16 174.528 
C 236.16 174.528 236.16 174.528 236.16 174.528 
M 369.216 174.528 
z
"/>
  </clipPath>
 </defs>
</svg>
