<?xml version="1.0" encoding="utf-8" standalone="no"?>
<!DOCTYPE svg PUBLIC "-//W3C//DTD SVG 1.1//EN"
  "http://www.w3.org/Graphics/SVG/1.1/DTD/svg11.dtd">
<svg xmlns:xlink="http://www.w3.org/1999/xlink" width="460.8pt" height="345.6pt" viewBox="0 0 460.8 345.6" xmlns="http://www.w3.org/2000/svg" version="1.1">
 <metadata>
  <rdf:RDF xmlns:dc="http://purl.org/dc/elements/1.1/" xmlns:cc="http://creativecommons.org/ns#" xmlns:rdf="http://www.w3.org/1999/02/22-rdf-syntax-ns#">
   <cc:Work>
    <dc:type rdf:resource="http://purl.org/dc/dcmitype/StillImage"/>
    <dc:date>2022-12-28T17:50:15.398781</dc:date>
    <dc:format>image/svg+xml</dc:format>
    <dc:creator>
     <cc:Agent>
      <dc:title>Matplotlib v3.6.2, https://matplotlib.org/</dc:title>
     </cc:Agent>
    </dc:creator>
   </cc:Work>
  </rdf:RDF>
 </metadata>
 <defs>
  <style type="text/css">*{stroke-linejoin: round; stroke-linecap: butt}</style>
 </defs>
 <g id="figure_1">
  <g id="patch_1">
   <path d="M 0 345.6 
L 460.8 345.6 
L 460.8 0 
L 0 0 
z
" style="fill: #ffffff"/>
  </g>
  <g id="axes_1">
   <g id="patch_2">
    <path d="M 57.6 307.584 
L 414.72 307.584 
L 414.72 41.472 
L 57.6 41.472 
z
" style="fill: #ffffff"/>
   </g>
   <g id="matplotlib.axis_1">
    <g id="xtick_1">
     <g id="line2d_1">
      <path d="M 98.488846 307.584 
L 98.488846 41.472 
" clip-path="url(#p7ab057fdf6)" style="fill: none; stroke: #b0b0b0; stroke-width: 0.8; stroke-linecap: square"/>
     </g>
     <g id="line2d_2">
      <defs>
       <path id="m5285feb4a8" d="M 0 0 
L 0 3.5 
" style="stroke: #000000; stroke-width: 0.8"/>
      </defs>
      <g>
       <use xlink:href="#m5285feb4a8" x="98.488846" y="307.584" style="stroke: #000000; stroke-width: 0.8"/>
      </g>
     </g>
     <g id="text_1">
      <!-- 0.8 -->
      <g transform="translate(90.537283 322.182437) scale(0.1 -0.1)">
       <defs>
        <path id="DejaVuSans-30" d="M 2034 4250 
Q 1547 4250 1301 3770 
Q 1056 3291 1056 2328 
Q 1056 1369 1301 889 
Q 1547 409 2034 409 
Q 2525 409 2770 889 
Q 3016 1369 3016 2328 
Q 3016 3291 2770 3770 
Q 2525 4250 2034 4250 
z
M 2034 4750 
Q 2819 4750 3233 4129 
Q 3647 3509 3647 2328 
Q 3647 1150 3233 529 
Q 2819 -91 2034 -91 
Q 1250 -91 836 529 
Q 422 1150 422 2328 
Q 422 3509 836 4129 
Q 1250 4750 2034 4750 
z
" transform="scale(0.015625)"/>
        <path id="DejaVuSans-2e" d="M 684 794 
L 1344 794 
L 1344 0 
L 684 0 
L 684 794 
z
" transform="scale(0.015625)"/>
        <path id="DejaVuSans-38" d="M 2034 2216 
Q 1584 2216 1326 1975 
Q 1069 1734 1069 1313 
Q 1069 891 1326 650 
Q 1584 409 2034 409 
Q 2484 409 2743 651 
Q 3003 894 3003 1313 
Q 3003 1734 2745 1975 
Q 2488 2216 2034 2216 
z
M 1403 2484 
Q 997 2584 770 2862 
Q 544 3141 544 3541 
Q 544 4100 942 4425 
Q 1341 4750 2034 4750 
Q 2731 4750 3128 4425 
Q 3525 4100 3525 3541 
Q 3525 3141 3298 2862 
Q 3072 2584 2669 2484 
Q 3125 2378 3379 2068 
Q 3634 1759 3634 1313 
Q 3634 634 3220 271 
Q 2806 -91 2034 -91 
Q 1263 -91 848 271 
Q 434 634 434 1313 
Q 434 1759 690 2068 
Q 947 2378 1403 2484 
z
M 1172 3481 
Q 1172 3119 1398 2916 
Q 1625 2713 2034 2713 
Q 2441 2713 2670 2916 
Q 2900 3119 2900 3481 
Q 2900 3844 2670 4047 
Q 2441 4250 2034 4250 
Q 1625 4250 1398 4047 
Q 1172 3844 1172 3481 
z
" transform="scale(0.015625)"/>
       </defs>
       <use xlink:href="#DejaVuSans-30"/>
       <use xlink:href="#DejaVuSans-2e" x="63.623047"/>
       <use xlink:href="#DejaVuSans-38" x="95.410156"/>
      </g>
     </g>
    </g>
    <g id="xtick_2">
     <g id="line2d_3">
      <path d="M 141.518031 307.584 
L 141.518031 41.472 
" clip-path="url(#p7ab057fdf6)" style="fill: none; stroke: #b0b0b0; stroke-width: 0.8; stroke-linecap: square"/>
     </g>
     <g id="line2d_4">
      <g>
       <use xlink:href="#m5285feb4a8" x="141.518031" y="307.584" style="stroke: #000000; stroke-width: 0.8"/>
      </g>
     </g>
     <g id="text_2">
      <!-- 1.0 -->
      <g transform="translate(133.566469 322.182437) scale(0.1 -0.1)">
       <defs>
        <path id="DejaVuSans-31" d="M 794 531 
L 1825 531 
L 1825 4091 
L 703 3866 
L 703 4441 
L 1819 4666 
L 2450 4666 
L 2450 531 
L 3481 531 
L 3481 0 
L 794 0 
L 794 531 
z
" transform="scale(0.015625)"/>
       </defs>
       <use xlink:href="#DejaVuSans-31"/>
       <use xlink:href="#DejaVuSans-2e" x="63.623047"/>
       <use xlink:href="#DejaVuSans-30" x="95.410156"/>
      </g>
     </g>
    </g>
    <g id="xtick_3">
     <g id="line2d_5">
      <path d="M 184.547217 307.584 
L 184.547217 41.472 
" clip-path="url(#p7ab057fdf6)" style="fill: none; stroke: #b0b0b0; stroke-width: 0.8; stroke-linecap: square"/>
     </g>
     <g id="line2d_6">
      <g>
       <use xlink:href="#m5285feb4a8" x="184.547217" y="307.584" style="stroke: #000000; stroke-width: 0.8"/>
      </g>
     </g>
     <g id="text_3">
      <!-- 1.2 -->
      <g transform="translate(176.595654 322.182437) scale(0.1 -0.1)">
       <defs>
        <path id="DejaVuSans-32" d="M 1228 531 
L 3431 531 
L 3431 0 
L 469 0 
L 469 531 
Q 828 903 1448 1529 
Q 2069 2156 2228 2338 
Q 2531 2678 2651 2914 
Q 2772 3150 2772 3378 
Q 2772 3750 2511 3984 
Q 2250 4219 1831 4219 
Q 1534 4219 1204 4116 
Q 875 4013 500 3803 
L 500 4441 
Q 881 4594 1212 4672 
Q 1544 4750 1819 4750 
Q 2544 4750 2975 4387 
Q 3406 4025 3406 3419 
Q 3406 3131 3298 2873 
Q 3191 2616 2906 2266 
Q 2828 2175 2409 1742 
Q 1991 1309 1228 531 
z
" transform="scale(0.015625)"/>
       </defs>
       <use xlink:href="#DejaVuSans-31"/>
       <use xlink:href="#DejaVuSans-2e" x="63.623047"/>
       <use xlink:href="#DejaVuSans-32" x="95.410156"/>
      </g>
     </g>
    </g>
    <g id="xtick_4">
     <g id="line2d_7">
      <path d="M 227.576402 307.584 
L 227.576402 41.472 
" clip-path="url(#p7ab057fdf6)" style="fill: none; stroke: #b0b0b0; stroke-width: 0.8; stroke-linecap: square"/>
     </g>
     <g id="line2d_8">
      <g>
       <use xlink:href="#m5285feb4a8" x="227.576402" y="307.584" style="stroke: #000000; stroke-width: 0.8"/>
      </g>
     </g>
     <g id="text_4">
      <!-- 1.4 -->
      <g transform="translate(219.624839 322.182437) scale(0.1 -0.1)">
       <defs>
        <path id="DejaVuSans-34" d="M 2419 4116 
L 825 1625 
L 2419 1625 
L 2419 4116 
z
M 2253 4666 
L 3047 4666 
L 3047 1625 
L 3713 1625 
L 3713 1100 
L 3047 1100 
L 3047 0 
L 2419 0 
L 2419 1100 
L 313 1100 
L 313 1709 
L 2253 4666 
z
" transform="scale(0.015625)"/>
       </defs>
       <use xlink:href="#DejaVuSans-31"/>
       <use xlink:href="#DejaVuSans-2e" x="63.623047"/>
       <use xlink:href="#DejaVuSans-34" x="95.410156"/>
      </g>
     </g>
    </g>
    <g id="xtick_5">
     <g id="line2d_9">
      <path d="M 270.605587 307.584 
L 270.605587 41.472 
" clip-path="url(#p7ab057fdf6)" style="fill: none; stroke: #b0b0b0; stroke-width: 0.8; stroke-linecap: square"/>
     </g>
     <g id="line2d_10">
      <g>
       <use xlink:href="#m5285feb4a8" x="270.605587" y="307.584" style="stroke: #000000; stroke-width: 0.8"/>
      </g>
     </g>
     <g id="text_5">
      <!-- 1.6 -->
      <g transform="translate(262.654025 322.182437) scale(0.1 -0.1)">
       <defs>
        <path id="DejaVuSans-36" d="M 2113 2584 
Q 1688 2584 1439 2293 
Q 1191 2003 1191 1497 
Q 1191 994 1439 701 
Q 1688 409 2113 409 
Q 2538 409 2786 701 
Q 3034 994 3034 1497 
Q 3034 2003 2786 2293 
Q 2538 2584 2113 2584 
z
M 3366 4563 
L 3366 3988 
Q 3128 4100 2886 4159 
Q 2644 4219 2406 4219 
Q 1781 4219 1451 3797 
Q 1122 3375 1075 2522 
Q 1259 2794 1537 2939 
Q 1816 3084 2150 3084 
Q 2853 3084 3261 2657 
Q 3669 2231 3669 1497 
Q 3669 778 3244 343 
Q 2819 -91 2113 -91 
Q 1303 -91 875 529 
Q 447 1150 447 2328 
Q 447 3434 972 4092 
Q 1497 4750 2381 4750 
Q 2619 4750 2861 4703 
Q 3103 4656 3366 4563 
z
" transform="scale(0.015625)"/>
       </defs>
       <use xlink:href="#DejaVuSans-31"/>
       <use xlink:href="#DejaVuSans-2e" x="63.623047"/>
       <use xlink:href="#DejaVuSans-36" x="95.410156"/>
      </g>
     </g>
    </g>
    <g id="xtick_6">
     <g id="line2d_11">
      <path d="M 313.634773 307.584 
L 313.634773 41.472 
" clip-path="url(#p7ab057fdf6)" style="fill: none; stroke: #b0b0b0; stroke-width: 0.8; stroke-linecap: square"/>
     </g>
     <g id="line2d_12">
      <g>
       <use xlink:href="#m5285feb4a8" x="313.634773" y="307.584" style="stroke: #000000; stroke-width: 0.8"/>
      </g>
     </g>
     <g id="text_6">
      <!-- 1.8 -->
      <g transform="translate(305.68321 322.182437) scale(0.1 -0.1)">
       <use xlink:href="#DejaVuSans-31"/>
       <use xlink:href="#DejaVuSans-2e" x="63.623047"/>
       <use xlink:href="#DejaVuSans-38" x="95.410156"/>
      </g>
     </g>
    </g>
    <g id="xtick_7">
     <g id="line2d_13">
      <path d="M 356.663958 307.584 
L 356.663958 41.472 
" clip-path="url(#p7ab057fdf6)" style="fill: none; stroke: #b0b0b0; stroke-width: 0.8; stroke-linecap: square"/>
     </g>
     <g id="line2d_14">
      <g>
       <use xlink:href="#m5285feb4a8" x="356.663958" y="307.584" style="stroke: #000000; stroke-width: 0.8"/>
      </g>
     </g>
     <g id="text_7">
      <!-- 2.0 -->
      <g transform="translate(348.712396 322.182437) scale(0.1 -0.1)">
       <use xlink:href="#DejaVuSans-32"/>
       <use xlink:href="#DejaVuSans-2e" x="63.623047"/>
       <use xlink:href="#DejaVuSans-30" x="95.410156"/>
      </g>
     </g>
    </g>
    <g id="xtick_8">
     <g id="line2d_15">
      <path d="M 399.693144 307.584 
L 399.693144 41.472 
" clip-path="url(#p7ab057fdf6)" style="fill: none; stroke: #b0b0b0; stroke-width: 0.8; stroke-linecap: square"/>
     </g>
     <g id="line2d_16">
      <g>
       <use xlink:href="#m5285feb4a8" x="399.693144" y="307.584" style="stroke: #000000; stroke-width: 0.8"/>
      </g>
     </g>
     <g id="text_8">
      <!-- 2.2 -->
      <g transform="translate(391.741581 322.182437) scale(0.1 -0.1)">
       <use xlink:href="#DejaVuSans-32"/>
       <use xlink:href="#DejaVuSans-2e" x="63.623047"/>
       <use xlink:href="#DejaVuSans-32" x="95.410156"/>
      </g>
     </g>
    </g>
    <g id="text_9">
     <!-- angle [deg] -->
     <g transform="translate(207.371719 335.860562) scale(0.1 -0.1)">
      <defs>
       <path id="DejaVuSans-61" d="M 2194 1759 
Q 1497 1759 1228 1600 
Q 959 1441 959 1056 
Q 959 750 1161 570 
Q 1363 391 1709 391 
Q 2188 391 2477 730 
Q 2766 1069 2766 1631 
L 2766 1759 
L 2194 1759 
z
M 3341 1997 
L 3341 0 
L 2766 0 
L 2766 531 
Q 2569 213 2275 61 
Q 1981 -91 1556 -91 
Q 1019 -91 701 211 
Q 384 513 384 1019 
Q 384 1609 779 1909 
Q 1175 2209 1959 2209 
L 2766 2209 
L 2766 2266 
Q 2766 2663 2505 2880 
Q 2244 3097 1772 3097 
Q 1472 3097 1187 3025 
Q 903 2953 641 2809 
L 641 3341 
Q 956 3463 1253 3523 
Q 1550 3584 1831 3584 
Q 2591 3584 2966 3190 
Q 3341 2797 3341 1997 
z
" transform="scale(0.015625)"/>
       <path id="DejaVuSans-6e" d="M 3513 2113 
L 3513 0 
L 2938 0 
L 2938 2094 
Q 2938 2591 2744 2837 
Q 2550 3084 2163 3084 
Q 1697 3084 1428 2787 
Q 1159 2491 1159 1978 
L 1159 0 
L 581 0 
L 581 3500 
L 1159 3500 
L 1159 2956 
Q 1366 3272 1645 3428 
Q 1925 3584 2291 3584 
Q 2894 3584 3203 3211 
Q 3513 2838 3513 2113 
z
" transform="scale(0.015625)"/>
       <path id="DejaVuSans-67" d="M 2906 1791 
Q 2906 2416 2648 2759 
Q 2391 3103 1925 3103 
Q 1463 3103 1205 2759 
Q 947 2416 947 1791 
Q 947 1169 1205 825 
Q 1463 481 1925 481 
Q 2391 481 2648 825 
Q 2906 1169 2906 1791 
z
M 3481 434 
Q 3481 -459 3084 -895 
Q 2688 -1331 1869 -1331 
Q 1566 -1331 1297 -1286 
Q 1028 -1241 775 -1147 
L 775 -588 
Q 1028 -725 1275 -790 
Q 1522 -856 1778 -856 
Q 2344 -856 2625 -561 
Q 2906 -266 2906 331 
L 2906 616 
Q 2728 306 2450 153 
Q 2172 0 1784 0 
Q 1141 0 747 490 
Q 353 981 353 1791 
Q 353 2603 747 3093 
Q 1141 3584 1784 3584 
Q 2172 3584 2450 3431 
Q 2728 3278 2906 2969 
L 2906 3500 
L 3481 3500 
L 3481 434 
z
" transform="scale(0.015625)"/>
       <path id="DejaVuSans-6c" d="M 603 4863 
L 1178 4863 
L 1178 0 
L 603 0 
L 603 4863 
z
" transform="scale(0.015625)"/>
       <path id="DejaVuSans-65" d="M 3597 1894 
L 3597 1613 
L 953 1613 
Q 991 1019 1311 708 
Q 1631 397 2203 397 
Q 2534 397 2845 478 
Q 3156 559 3463 722 
L 3463 178 
Q 3153 47 2828 -22 
Q 2503 -91 2169 -91 
Q 1331 -91 842 396 
Q 353 884 353 1716 
Q 353 2575 817 3079 
Q 1281 3584 2069 3584 
Q 2775 3584 3186 3129 
Q 3597 2675 3597 1894 
z
M 3022 2063 
Q 3016 2534 2758 2815 
Q 2500 3097 2075 3097 
Q 1594 3097 1305 2825 
Q 1016 2553 972 2059 
L 3022 2063 
z
" transform="scale(0.015625)"/>
       <path id="DejaVuSans-20" transform="scale(0.015625)"/>
       <path id="DejaVuSans-5b" d="M 550 4863 
L 1875 4863 
L 1875 4416 
L 1125 4416 
L 1125 -397 
L 1875 -397 
L 1875 -844 
L 550 -844 
L 550 4863 
z
" transform="scale(0.015625)"/>
       <path id="DejaVuSans-64" d="M 2906 2969 
L 2906 4863 
L 3481 4863 
L 3481 0 
L 2906 0 
L 2906 525 
Q 2725 213 2448 61 
Q 2172 -91 1784 -91 
Q 1150 -91 751 415 
Q 353 922 353 1747 
Q 353 2572 751 3078 
Q 1150 3584 1784 3584 
Q 2172 3584 2448 3432 
Q 2725 3281 2906 2969 
z
M 947 1747 
Q 947 1113 1208 752 
Q 1469 391 1925 391 
Q 2381 391 2643 752 
Q 2906 1113 2906 1747 
Q 2906 2381 2643 2742 
Q 2381 3103 1925 3103 
Q 1469 3103 1208 2742 
Q 947 2381 947 1747 
z
" transform="scale(0.015625)"/>
       <path id="DejaVuSans-5d" d="M 1947 4863 
L 1947 -844 
L 622 -844 
L 622 -397 
L 1369 -397 
L 1369 4416 
L 622 4416 
L 622 4863 
L 1947 4863 
z
" transform="scale(0.015625)"/>
      </defs>
      <use xlink:href="#DejaVuSans-61"/>
      <use xlink:href="#DejaVuSans-6e" x="61.279297"/>
      <use xlink:href="#DejaVuSans-67" x="124.658203"/>
      <use xlink:href="#DejaVuSans-6c" x="188.134766"/>
      <use xlink:href="#DejaVuSans-65" x="215.917969"/>
      <use xlink:href="#DejaVuSans-20" x="277.441406"/>
      <use xlink:href="#DejaVuSans-5b" x="309.228516"/>
      <use xlink:href="#DejaVuSans-64" x="348.242188"/>
      <use xlink:href="#DejaVuSans-65" x="411.71875"/>
      <use xlink:href="#DejaVuSans-67" x="473.242188"/>
      <use xlink:href="#DejaVuSans-5d" x="536.71875"/>
     </g>
    </g>
   </g>
   <g id="matplotlib.axis_2">
    <g id="ytick_1">
     <g id="line2d_17">
      <path d="M 57.6 295.512157 
L 414.72 295.512157 
" clip-path="url(#p7ab057fdf6)" style="fill: none; stroke: #b0b0b0; stroke-width: 0.8; stroke-linecap: square"/>
     </g>
     <g id="line2d_18">
      <defs>
       <path id="m1a419ea286" d="M 0 0 
L -3.5 0 
" style="stroke: #000000; stroke-width: 0.8"/>
      </defs>
      <g>
       <use xlink:href="#m1a419ea286" x="57.6" y="295.512157" style="stroke: #000000; stroke-width: 0.8"/>
      </g>
     </g>
     <g id="text_10">
      <!-- 0 -->
      <g transform="translate(44.2375 299.311376) scale(0.1 -0.1)">
       <use xlink:href="#DejaVuSans-30"/>
      </g>
     </g>
    </g>
    <g id="ytick_2">
     <g id="line2d_19">
      <path d="M 57.6 257.419062 
L 414.72 257.419062 
" clip-path="url(#p7ab057fdf6)" style="fill: none; stroke: #b0b0b0; stroke-width: 0.8; stroke-linecap: square"/>
     </g>
     <g id="line2d_20">
      <g>
       <use xlink:href="#m1a419ea286" x="57.6" y="257.419062" style="stroke: #000000; stroke-width: 0.8"/>
      </g>
     </g>
     <g id="text_11">
      <!-- 20 -->
      <g transform="translate(37.875 261.218281) scale(0.1 -0.1)">
       <use xlink:href="#DejaVuSans-32"/>
       <use xlink:href="#DejaVuSans-30" x="63.623047"/>
      </g>
     </g>
    </g>
    <g id="ytick_3">
     <g id="line2d_21">
      <path d="M 57.6 219.325967 
L 414.72 219.325967 
" clip-path="url(#p7ab057fdf6)" style="fill: none; stroke: #b0b0b0; stroke-width: 0.8; stroke-linecap: square"/>
     </g>
     <g id="line2d_22">
      <g>
       <use xlink:href="#m1a419ea286" x="57.6" y="219.325967" style="stroke: #000000; stroke-width: 0.8"/>
      </g>
     </g>
     <g id="text_12">
      <!-- 40 -->
      <g transform="translate(37.875 223.125185) scale(0.1 -0.1)">
       <use xlink:href="#DejaVuSans-34"/>
       <use xlink:href="#DejaVuSans-30" x="63.623047"/>
      </g>
     </g>
    </g>
    <g id="ytick_4">
     <g id="line2d_23">
      <path d="M 57.6 181.232871 
L 414.72 181.232871 
" clip-path="url(#p7ab057fdf6)" style="fill: none; stroke: #b0b0b0; stroke-width: 0.8; stroke-linecap: square"/>
     </g>
     <g id="line2d_24">
      <g>
       <use xlink:href="#m1a419ea286" x="57.6" y="181.232871" style="stroke: #000000; stroke-width: 0.8"/>
      </g>
     </g>
     <g id="text_13">
      <!-- 60 -->
      <g transform="translate(37.875 185.03209) scale(0.1 -0.1)">
       <use xlink:href="#DejaVuSans-36"/>
       <use xlink:href="#DejaVuSans-30" x="63.623047"/>
      </g>
     </g>
    </g>
    <g id="ytick_5">
     <g id="line2d_25">
      <path d="M 57.6 143.139776 
L 414.72 143.139776 
" clip-path="url(#p7ab057fdf6)" style="fill: none; stroke: #b0b0b0; stroke-width: 0.8; stroke-linecap: square"/>
     </g>
     <g id="line2d_26">
      <g>
       <use xlink:href="#m1a419ea286" x="57.6" y="143.139776" style="stroke: #000000; stroke-width: 0.8"/>
      </g>
     </g>
     <g id="text_14">
      <!-- 80 -->
      <g transform="translate(37.875 146.938995) scale(0.1 -0.1)">
       <use xlink:href="#DejaVuSans-38"/>
       <use xlink:href="#DejaVuSans-30" x="63.623047"/>
      </g>
     </g>
    </g>
    <g id="ytick_6">
     <g id="line2d_27">
      <path d="M 57.6 105.046681 
L 414.72 105.046681 
" clip-path="url(#p7ab057fdf6)" style="fill: none; stroke: #b0b0b0; stroke-width: 0.8; stroke-linecap: square"/>
     </g>
     <g id="line2d_28">
      <g>
       <use xlink:href="#m1a419ea286" x="57.6" y="105.046681" style="stroke: #000000; stroke-width: 0.8"/>
      </g>
     </g>
     <g id="text_15">
      <!-- 100 -->
      <g transform="translate(31.5125 108.845899) scale(0.1 -0.1)">
       <use xlink:href="#DejaVuSans-31"/>
       <use xlink:href="#DejaVuSans-30" x="63.623047"/>
       <use xlink:href="#DejaVuSans-30" x="127.246094"/>
      </g>
     </g>
    </g>
    <g id="ytick_7">
     <g id="line2d_29">
      <path d="M 57.6 66.953585 
L 414.72 66.953585 
" clip-path="url(#p7ab057fdf6)" style="fill: none; stroke: #b0b0b0; stroke-width: 0.8; stroke-linecap: square"/>
     </g>
     <g id="line2d_30">
      <g>
       <use xlink:href="#m1a419ea286" x="57.6" y="66.953585" style="stroke: #000000; stroke-width: 0.8"/>
      </g>
     </g>
     <g id="text_16">
      <!-- 120 -->
      <g transform="translate(31.5125 70.752804) scale(0.1 -0.1)">
       <use xlink:href="#DejaVuSans-31"/>
       <use xlink:href="#DejaVuSans-32" x="63.623047"/>
       <use xlink:href="#DejaVuSans-30" x="127.246094"/>
      </g>
     </g>
    </g>
    <g id="text_17">
     <!-- light power [$\mu$ Amper] -->
     <g transform="translate(25.4125 229.528) rotate(-90) scale(0.1 -0.1)">
      <defs>
       <path id="DejaVuSans-69" d="M 603 3500 
L 1178 3500 
L 1178 0 
L 603 0 
L 603 3500 
z
M 603 4863 
L 1178 4863 
L 1178 4134 
L 603 4134 
L 603 4863 
z
" transform="scale(0.015625)"/>
       <path id="DejaVuSans-68" d="M 3513 2113 
L 3513 0 
L 2938 0 
L 2938 2094 
Q 2938 2591 2744 2837 
Q 2550 3084 2163 3084 
Q 1697 3084 1428 2787 
Q 1159 2491 1159 1978 
L 1159 0 
L 581 0 
L 581 4863 
L 1159 4863 
L 1159 2956 
Q 1366 3272 1645 3428 
Q 1925 3584 2291 3584 
Q 2894 3584 3203 3211 
Q 3513 2838 3513 2113 
z
" transform="scale(0.015625)"/>
       <path id="DejaVuSans-74" d="M 1172 4494 
L 1172 3500 
L 2356 3500 
L 2356 3053 
L 1172 3053 
L 1172 1153 
Q 1172 725 1289 603 
Q 1406 481 1766 481 
L 2356 481 
L 2356 0 
L 1766 0 
Q 1100 0 847 248 
Q 594 497 594 1153 
L 594 3053 
L 172 3053 
L 172 3500 
L 594 3500 
L 594 4494 
L 1172 4494 
z
" transform="scale(0.015625)"/>
       <path id="DejaVuSans-70" d="M 1159 525 
L 1159 -1331 
L 581 -1331 
L 581 3500 
L 1159 3500 
L 1159 2969 
Q 1341 3281 1617 3432 
Q 1894 3584 2278 3584 
Q 2916 3584 3314 3078 
Q 3713 2572 3713 1747 
Q 3713 922 3314 415 
Q 2916 -91 2278 -91 
Q 1894 -91 1617 61 
Q 1341 213 1159 525 
z
M 3116 1747 
Q 3116 2381 2855 2742 
Q 2594 3103 2138 3103 
Q 1681 3103 1420 2742 
Q 1159 2381 1159 1747 
Q 1159 1113 1420 752 
Q 1681 391 2138 391 
Q 2594 391 2855 752 
Q 3116 1113 3116 1747 
z
" transform="scale(0.015625)"/>
       <path id="DejaVuSans-6f" d="M 1959 3097 
Q 1497 3097 1228 2736 
Q 959 2375 959 1747 
Q 959 1119 1226 758 
Q 1494 397 1959 397 
Q 2419 397 2687 759 
Q 2956 1122 2956 1747 
Q 2956 2369 2687 2733 
Q 2419 3097 1959 3097 
z
M 1959 3584 
Q 2709 3584 3137 3096 
Q 3566 2609 3566 1747 
Q 3566 888 3137 398 
Q 2709 -91 1959 -91 
Q 1206 -91 779 398 
Q 353 888 353 1747 
Q 353 2609 779 3096 
Q 1206 3584 1959 3584 
z
" transform="scale(0.015625)"/>
       <path id="DejaVuSans-77" d="M 269 3500 
L 844 3500 
L 1563 769 
L 2278 3500 
L 2956 3500 
L 3675 769 
L 4391 3500 
L 4966 3500 
L 4050 0 
L 3372 0 
L 2619 2869 
L 1863 0 
L 1184 0 
L 269 3500 
z
" transform="scale(0.015625)"/>
       <path id="DejaVuSans-72" d="M 2631 2963 
Q 2534 3019 2420 3045 
Q 2306 3072 2169 3072 
Q 1681 3072 1420 2755 
Q 1159 2438 1159 1844 
L 1159 0 
L 581 0 
L 581 3500 
L 1159 3500 
L 1159 2956 
Q 1341 3275 1631 3429 
Q 1922 3584 2338 3584 
Q 2397 3584 2469 3576 
Q 2541 3569 2628 3553 
L 2631 2963 
z
" transform="scale(0.015625)"/>
       <path id="DejaVuSans-Oblique-3bc" d="M -84 -1331 
L 856 3500 
L 1434 3500 
L 1009 1322 
Q 997 1256 987 1175 
Q 978 1094 978 1013 
Q 978 722 1161 565 
Q 1344 409 1684 409 
Q 2147 409 2431 671 
Q 2716 934 2816 1459 
L 3213 3500 
L 3788 3500 
L 3266 809 
Q 3253 750 3248 706 
Q 3244 663 3244 628 
Q 3244 531 3283 486 
Q 3322 441 3406 441 
Q 3438 441 3492 456 
Q 3547 472 3647 513 
L 3559 50 
Q 3422 -19 3297 -55 
Q 3172 -91 3053 -91 
Q 2847 -91 2730 40 
Q 2613 172 2613 403 
Q 2438 153 2195 31 
Q 1953 -91 1625 -91 
Q 1334 -91 1117 43 
Q 900 178 831 397 
L 494 -1331 
L -84 -1331 
z
" transform="scale(0.015625)"/>
       <path id="DejaVuSans-41" d="M 2188 4044 
L 1331 1722 
L 3047 1722 
L 2188 4044 
z
M 1831 4666 
L 2547 4666 
L 4325 0 
L 3669 0 
L 3244 1197 
L 1141 1197 
L 716 0 
L 50 0 
L 1831 4666 
z
" transform="scale(0.015625)"/>
       <path id="DejaVuSans-6d" d="M 3328 2828 
Q 3544 3216 3844 3400 
Q 4144 3584 4550 3584 
Q 5097 3584 5394 3201 
Q 5691 2819 5691 2113 
L 5691 0 
L 5113 0 
L 5113 2094 
Q 5113 2597 4934 2840 
Q 4756 3084 4391 3084 
Q 3944 3084 3684 2787 
Q 3425 2491 3425 1978 
L 3425 0 
L 2847 0 
L 2847 2094 
Q 2847 2600 2669 2842 
Q 2491 3084 2119 3084 
Q 1678 3084 1418 2786 
Q 1159 2488 1159 1978 
L 1159 0 
L 581 0 
L 581 3500 
L 1159 3500 
L 1159 2956 
Q 1356 3278 1631 3431 
Q 1906 3584 2284 3584 
Q 2666 3584 2933 3390 
Q 3200 3197 3328 2828 
z
" transform="scale(0.015625)"/>
      </defs>
      <use xlink:href="#DejaVuSans-6c" transform="translate(0 0.015625)"/>
      <use xlink:href="#DejaVuSans-69" transform="translate(27.783203 0.015625)"/>
      <use xlink:href="#DejaVuSans-67" transform="translate(55.566406 0.015625)"/>
      <use xlink:href="#DejaVuSans-68" transform="translate(119.042969 0.015625)"/>
      <use xlink:href="#DejaVuSans-74" transform="translate(182.421875 0.015625)"/>
      <use xlink:href="#DejaVuSans-20" transform="translate(221.630859 0.015625)"/>
      <use xlink:href="#DejaVuSans-70" transform="translate(253.417969 0.015625)"/>
      <use xlink:href="#DejaVuSans-6f" transform="translate(316.894531 0.015625)"/>
      <use xlink:href="#DejaVuSans-77" transform="translate(378.076172 0.015625)"/>
      <use xlink:href="#DejaVuSans-65" transform="translate(459.863281 0.015625)"/>
      <use xlink:href="#DejaVuSans-72" transform="translate(521.386719 0.015625)"/>
      <use xlink:href="#DejaVuSans-20" transform="translate(562.5 0.015625)"/>
      <use xlink:href="#DejaVuSans-5b" transform="translate(594.287109 0.015625)"/>
      <use xlink:href="#DejaVuSans-Oblique-3bc" transform="translate(633.300781 0.015625)"/>
      <use xlink:href="#DejaVuSans-20" transform="translate(696.923828 0.015625)"/>
      <use xlink:href="#DejaVuSans-41" transform="translate(728.710938 0.015625)"/>
      <use xlink:href="#DejaVuSans-6d" transform="translate(797.119141 0.015625)"/>
      <use xlink:href="#DejaVuSans-70" transform="translate(894.53125 0.015625)"/>
      <use xlink:href="#DejaVuSans-65" transform="translate(958.007812 0.015625)"/>
      <use xlink:href="#DejaVuSans-72" transform="translate(1019.53125 0.015625)"/>
      <use xlink:href="#DejaVuSans-5d" transform="translate(1060.644531 0.015625)"/>
     </g>
    </g>
   </g>
   <g id="line2d_31">
    <defs>
     <path id="m26464f6397" d="M 0 1.5 
C 0.397805 1.5 0.77937 1.341951 1.06066 1.06066 
C 1.341951 0.77937 1.5 0.397805 1.5 0 
C 1.5 -0.397805 1.341951 -0.77937 1.06066 -1.06066 
C 0.77937 -1.341951 0.397805 -1.5 0 -1.5 
C -0.397805 -1.5 -0.77937 -1.341951 -1.06066 -1.06066 
C -1.341951 -0.77937 -1.5 -0.397805 -1.5 0 
C -1.5 0.397805 -1.341951 0.77937 -1.06066 1.06066 
C -0.77937 1.341951 -0.397805 1.5 0 1.5 
z
" style="stroke: #0000ff"/>
    </defs>
    <g clip-path="url(#p7ab057fdf6)">
     <use xlink:href="#m26464f6397" x="95.34732" y="83.388166" style="fill: #0000ff; stroke: #0000ff"/>
     <use xlink:href="#m26464f6397" x="106.612334" y="91.588579" style="fill: #0000ff; stroke: #0000ff"/>
     <use xlink:href="#m26464f6397" x="114.122344" y="68.84717" style="fill: #0000ff; stroke: #0000ff"/>
     <use xlink:href="#m26464f6397" x="121.632354" y="62.450979" style="fill: #0000ff; stroke: #0000ff"/>
     <use xlink:href="#m26464f6397" x="132.897368" y="62.908046" style="fill: #0000ff; stroke: #0000ff"/>
     <use xlink:href="#m26464f6397" x="140.407378" y="65.955444" style="fill: #0000ff; stroke: #0000ff"/>
     <use xlink:href="#m26464f6397" x="151.672392" y="64.97766" style="fill: #0000ff; stroke: #0000ff"/>
     <use xlink:href="#m26464f6397" x="159.182402" y="74.363924" style="fill: #0000ff; stroke: #0000ff"/>
     <use xlink:href="#m26464f6397" x="170.447416" y="83.382153" style="fill: #0000ff; stroke: #0000ff"/>
     <use xlink:href="#m26464f6397" x="177.957426" y="95.971359" style="fill: #0000ff; stroke: #0000ff"/>
     <use xlink:href="#m26464f6397" x="189.22244" y="120.257575" style="fill: #0000ff; stroke: #0000ff"/>
     <use xlink:href="#m26464f6397" x="200.487454" y="126.704404" style="fill: #0000ff; stroke: #0000ff"/>
     <use xlink:href="#m26464f6397" x="207.997464" y="148.593546" style="fill: #0000ff; stroke: #0000ff"/>
     <use xlink:href="#m26464f6397" x="215.507474" y="171.533094" style="fill: #0000ff; stroke: #0000ff"/>
     <use xlink:href="#m26464f6397" x="226.772488" y="193.36332" style="fill: #0000ff; stroke: #0000ff"/>
     <use xlink:href="#m26464f6397" x="245.547512" y="224.342409" style="fill: #0000ff; stroke: #0000ff"/>
     <use xlink:href="#m26464f6397" x="264.322536" y="269.485875" style="fill: #0000ff; stroke: #0000ff"/>
     <use xlink:href="#m26464f6397" x="275.58755" y="277.528813" style="fill: #0000ff; stroke: #0000ff"/>
     <use xlink:href="#m26464f6397" x="283.09756" y="286.415636" style="fill: #0000ff; stroke: #0000ff"/>
     <use xlink:href="#m26464f6397" x="290.60757" y="292.72798" style="fill: #0000ff; stroke: #0000ff"/>
     <use xlink:href="#m26464f6397" x="301.872584" y="295.486069" style="fill: #0000ff; stroke: #0000ff"/>
     <use xlink:href="#m26464f6397" x="313.137598" y="293.365582" style="fill: #0000ff; stroke: #0000ff"/>
     <use xlink:href="#m26464f6397" x="320.647608" y="291.008214" style="fill: #0000ff; stroke: #0000ff"/>
     <use xlink:href="#m26464f6397" x="339.422632" y="269.950923" style="fill: #0000ff; stroke: #0000ff"/>
     <use xlink:href="#m26464f6397" x="376.97268" y="205.228944" style="fill: #0000ff; stroke: #0000ff"/>
    </g>
   </g>
   <g id="LineCollection_1">
    <path d="M 91.592315 83.388166 
L 99.102325 83.388166 
" clip-path="url(#p7ab057fdf6)" style="fill: none; stroke: #008000; stroke-width: 1.5"/>
    <path d="M 102.85733 91.588579 
L 110.367339 91.588579 
" clip-path="url(#p7ab057fdf6)" style="fill: none; stroke: #008000; stroke-width: 1.5"/>
    <path d="M 110.367339 68.84717 
L 117.877349 68.84717 
" clip-path="url(#p7ab057fdf6)" style="fill: none; stroke: #008000; stroke-width: 1.5"/>
    <path d="M 117.877349 62.450979 
L 125.387358 62.450979 
" clip-path="url(#p7ab057fdf6)" style="fill: none; stroke: #008000; stroke-width: 1.5"/>
    <path d="M 129.142363 62.908046 
L 136.652373 62.908046 
" clip-path="url(#p7ab057fdf6)" style="fill: none; stroke: #008000; stroke-width: 1.5"/>
    <path d="M 136.652373 65.955444 
L 144.162382 65.955444 
" clip-path="url(#p7ab057fdf6)" style="fill: none; stroke: #008000; stroke-width: 1.5"/>
    <path d="M 147.917387 64.97766 
L 155.427397 64.97766 
" clip-path="url(#p7ab057fdf6)" style="fill: none; stroke: #008000; stroke-width: 1.5"/>
    <path d="M 155.427397 74.363924 
L 162.937406 74.363924 
" clip-path="url(#p7ab057fdf6)" style="fill: none; stroke: #008000; stroke-width: 1.5"/>
    <path d="M 166.692411 83.382153 
L 174.202421 83.382153 
" clip-path="url(#p7ab057fdf6)" style="fill: none; stroke: #008000; stroke-width: 1.5"/>
    <path d="M 174.202421 95.971359 
L 181.71243 95.971359 
" clip-path="url(#p7ab057fdf6)" style="fill: none; stroke: #008000; stroke-width: 1.5"/>
    <path d="M 185.467435 120.257575 
L 192.977445 120.257575 
" clip-path="url(#p7ab057fdf6)" style="fill: none; stroke: #008000; stroke-width: 1.5"/>
    <path d="M 196.73245 126.704404 
L 204.242459 126.704404 
" clip-path="url(#p7ab057fdf6)" style="fill: none; stroke: #008000; stroke-width: 1.5"/>
    <path d="M 204.242459 148.593546 
L 211.752469 148.593546 
" clip-path="url(#p7ab057fdf6)" style="fill: none; stroke: #008000; stroke-width: 1.5"/>
    <path d="M 211.752469 171.533094 
L 219.262478 171.533094 
" clip-path="url(#p7ab057fdf6)" style="fill: none; stroke: #008000; stroke-width: 1.5"/>
    <path d="M 223.017483 193.36332 
L 230.527493 193.36332 
" clip-path="url(#p7ab057fdf6)" style="fill: none; stroke: #008000; stroke-width: 1.5"/>
    <path d="M 241.792507 224.342409 
L 249.302517 224.342409 
" clip-path="url(#p7ab057fdf6)" style="fill: none; stroke: #008000; stroke-width: 1.5"/>
    <path d="M 260.567531 269.485875 
L 268.077541 269.485875 
" clip-path="url(#p7ab057fdf6)" style="fill: none; stroke: #008000; stroke-width: 1.5"/>
    <path d="M 271.832546 277.528813 
L 279.342555 277.528813 
" clip-path="url(#p7ab057fdf6)" style="fill: none; stroke: #008000; stroke-width: 1.5"/>
    <path d="M 279.342555 286.415636 
L 286.852565 286.415636 
" clip-path="url(#p7ab057fdf6)" style="fill: none; stroke: #008000; stroke-width: 1.5"/>
    <path d="M 286.852565 292.72798 
L 294.362574 292.72798 
" clip-path="url(#p7ab057fdf6)" style="fill: none; stroke: #008000; stroke-width: 1.5"/>
    <path d="M 298.117579 295.486069 
L 305.627589 295.486069 
" clip-path="url(#p7ab057fdf6)" style="fill: none; stroke: #008000; stroke-width: 1.5"/>
    <path d="M 309.382594 293.365582 
L 316.892603 293.365582 
" clip-path="url(#p7ab057fdf6)" style="fill: none; stroke: #008000; stroke-width: 1.5"/>
    <path d="M 316.892603 291.008214 
L 324.402613 291.008214 
" clip-path="url(#p7ab057fdf6)" style="fill: none; stroke: #008000; stroke-width: 1.5"/>
    <path d="M 335.667627 269.950923 
L 343.177637 269.950923 
" clip-path="url(#p7ab057fdf6)" style="fill: none; stroke: #008000; stroke-width: 1.5"/>
    <path d="M 373.217675 205.228944 
L 380.727685 205.228944 
" clip-path="url(#p7ab057fdf6)" style="fill: none; stroke: #008000; stroke-width: 1.5"/>
   </g>
   <g id="LineCollection_2">
    <path d="M 95.34732 93.328368 
L 95.34732 73.447963 
" clip-path="url(#p7ab057fdf6)" style="fill: none; stroke: #008000; stroke-width: 1.5"/>
    <path d="M 106.612334 95.405698 
L 106.612334 87.77146 
" clip-path="url(#p7ab057fdf6)" style="fill: none; stroke: #008000; stroke-width: 1.5"/>
    <path d="M 114.122344 78.976885 
L 114.122344 58.717454 
" clip-path="url(#p7ab057fdf6)" style="fill: none; stroke: #008000; stroke-width: 1.5"/>
    <path d="M 121.632354 71.25715 
L 121.632354 53.644807 
" clip-path="url(#p7ab057fdf6)" style="fill: none; stroke: #008000; stroke-width: 1.5"/>
    <path d="M 132.897368 72.248092 
L 132.897368 53.568 
" clip-path="url(#p7ab057fdf6)" style="fill: none; stroke: #008000; stroke-width: 1.5"/>
    <path d="M 140.407378 67.587924 
L 140.407378 64.322965 
" clip-path="url(#p7ab057fdf6)" style="fill: none; stroke: #008000; stroke-width: 1.5"/>
    <path d="M 151.672392 73.77107 
L 151.672392 56.18425 
" clip-path="url(#p7ab057fdf6)" style="fill: none; stroke: #008000; stroke-width: 1.5"/>
    <path d="M 159.182402 76.944541 
L 159.182402 71.783307 
" clip-path="url(#p7ab057fdf6)" style="fill: none; stroke: #008000; stroke-width: 1.5"/>
    <path d="M 170.447416 92.295938 
L 170.447416 74.468369 
" clip-path="url(#p7ab057fdf6)" style="fill: none; stroke: #008000; stroke-width: 1.5"/>
    <path d="M 177.957426 104.005003 
L 177.957426 87.937716 
" clip-path="url(#p7ab057fdf6)" style="fill: none; stroke: #008000; stroke-width: 1.5"/>
    <path d="M 189.22244 121.282527 
L 189.22244 119.232623 
" clip-path="url(#p7ab057fdf6)" style="fill: none; stroke: #008000; stroke-width: 1.5"/>
    <path d="M 200.487454 132.462575 
L 200.487454 120.946232 
" clip-path="url(#p7ab057fdf6)" style="fill: none; stroke: #008000; stroke-width: 1.5"/>
    <path d="M 207.997464 152.049237 
L 207.997464 145.137854 
" clip-path="url(#p7ab057fdf6)" style="fill: none; stroke: #008000; stroke-width: 1.5"/>
    <path d="M 215.507474 171.95488 
L 215.507474 171.111308 
" clip-path="url(#p7ab057fdf6)" style="fill: none; stroke: #008000; stroke-width: 1.5"/>
    <path d="M 226.772488 195.982373 
L 226.772488 190.744267 
" clip-path="url(#p7ab057fdf6)" style="fill: none; stroke: #008000; stroke-width: 1.5"/>
    <path d="M 245.547512 224.905806 
L 245.547512 223.779012 
" clip-path="url(#p7ab057fdf6)" style="fill: none; stroke: #008000; stroke-width: 1.5"/>
    <path d="M 264.322536 270.049634 
L 264.322536 268.922117 
" clip-path="url(#p7ab057fdf6)" style="fill: none; stroke: #008000; stroke-width: 1.5"/>
    <path d="M 275.58755 277.585349 
L 275.58755 277.472277 
" clip-path="url(#p7ab057fdf6)" style="fill: none; stroke: #008000; stroke-width: 1.5"/>
    <path d="M 283.09756 286.491898 
L 283.09756 286.339373 
" clip-path="url(#p7ab057fdf6)" style="fill: none; stroke: #008000; stroke-width: 1.5"/>
    <path d="M 290.60757 292.80238 
L 290.60757 292.65358 
" clip-path="url(#p7ab057fdf6)" style="fill: none; stroke: #008000; stroke-width: 1.5"/>
    <path d="M 301.872584 295.488 
L 301.872584 295.484138 
" clip-path="url(#p7ab057fdf6)" style="fill: none; stroke: #008000; stroke-width: 1.5"/>
    <path d="M 313.137598 293.411625 
L 313.137598 293.319539 
" clip-path="url(#p7ab057fdf6)" style="fill: none; stroke: #008000; stroke-width: 1.5"/>
    <path d="M 320.647608 291.034515 
L 320.647608 290.981912 
" clip-path="url(#p7ab057fdf6)" style="fill: none; stroke: #008000; stroke-width: 1.5"/>
    <path d="M 339.422632 270.183081 
L 339.422632 269.718764 
" clip-path="url(#p7ab057fdf6)" style="fill: none; stroke: #008000; stroke-width: 1.5"/>
    <path d="M 376.97268 206.128969 
L 376.97268 204.328918 
" clip-path="url(#p7ab057fdf6)" style="fill: none; stroke: #008000; stroke-width: 1.5"/>
   </g>
   <g id="line2d_32">
    <path d="M 73.832727 133.321072 
L 77.112066 126.923604 
L 80.391405 120.721572 
L 83.670744 114.738024 
L 86.950083 108.995195 
L 90.229421 103.514428 
L 93.50876 98.316088 
L 96.788099 93.419495 
L 100.067438 88.842843 
L 103.346777 84.603142 
L 106.626116 80.716145 
L 109.905455 77.196298 
L 113.184793 74.056681 
L 116.464132 71.308962 
L 119.743471 68.96335 
L 123.02281 67.028563 
L 126.302149 65.51179 
L 129.581488 64.418668 
L 132.860826 63.75326 
L 136.140165 63.518038 
L 139.419504 63.713876 
L 142.698843 64.340047 
L 145.978182 65.394223 
L 149.257521 66.872487 
L 152.53686 68.769346 
L 155.816198 71.07775 
L 159.095537 73.789121 
L 162.374876 76.893384 
L 165.654215 80.379003 
L 168.933554 84.233024 
L 172.212893 88.441125 
L 175.492231 92.987669 
L 178.77157 97.85576 
L 182.050909 103.027308 
L 185.330248 108.483094 
L 188.609587 114.202843 
L 191.888926 120.165302 
L 195.168264 126.348311 
L 198.447603 132.728895 
L 201.726942 139.283341 
L 205.006281 145.987294 
L 208.28562 152.81584 
L 211.564959 159.743602 
L 214.844298 166.744838 
L 218.123636 173.793529 
L 221.402975 180.863481 
L 224.682314 187.928422 
L 227.961653 194.962097 
L 231.240992 201.938367 
L 234.520331 208.831309 
L 237.799669 215.615307 
L 241.079008 222.265151 
L 244.358347 228.756129 
L 247.637686 235.06412 
L 250.917025 241.165682 
L 254.196364 247.038141 
L 257.475702 252.659674 
L 260.755041 258.009391 
L 264.03438 263.067412 
L 267.313719 267.81494 
L 270.593058 272.234333 
L 273.872397 276.309168 
L 277.151736 280.024302 
L 280.431074 283.365928 
L 283.710413 286.32163 
L 286.989752 288.880424 
L 290.269091 291.0328 
L 293.54843 292.77076 
L 296.827769 294.087846 
L 300.107107 294.979162 
L 303.386446 295.441398 
L 306.665785 295.472835 
L 309.945124 295.073355 
L 313.224463 294.244445 
L 316.503802 292.989184 
L 319.78314 291.312237 
L 323.062479 289.219835 
L 326.341818 286.719755 
L 329.621157 283.821286 
L 332.900496 280.535201 
L 336.179835 276.87371 
L 339.459174 272.85042 
L 342.738512 268.480282 
L 346.017851 263.779537 
L 349.29719 258.765653 
L 352.576529 253.457262 
L 355.855868 247.874091 
L 359.135207 242.036888 
L 362.414545 235.967344 
L 365.693884 229.688015 
L 368.973223 223.222236 
L 372.252562 216.594034 
L 375.531901 209.828041 
L 378.81124 202.9494 
L 382.090579 195.983673 
L 385.369917 188.956746 
L 388.649256 181.894731 
L 391.928595 174.823873 
L 395.207934 167.770447 
L 398.487273 160.760665 
" clip-path="url(#p7ab057fdf6)" style="fill: none; stroke-dasharray: 5.55,2.4; stroke-dashoffset: 0; stroke: #ff0000; stroke-width: 1.5"/>
   </g>
   <g id="patch_3">
    <path d="M 57.6 307.584 
L 57.6 41.472 
" style="fill: none; stroke: #000000; stroke-width: 0.8; stroke-linejoin: miter; stroke-linecap: square"/>
   </g>
   <g id="patch_4">
    <path d="M 414.72 307.584 
L 414.72 41.472 
" style="fill: none; stroke: #000000; stroke-width: 0.8; stroke-linejoin: miter; stroke-linecap: square"/>
   </g>
   <g id="patch_5">
    <path d="M 57.6 307.584 
L 414.72 307.584 
" style="fill: none; stroke: #000000; stroke-width: 0.8; stroke-linejoin: miter; stroke-linecap: square"/>
   </g>
   <g id="patch_6">
    <path d="M 57.6 41.472 
L 414.72 41.472 
" style="fill: none; stroke: #000000; stroke-width: 0.8; stroke-linejoin: miter; stroke-linecap: square"/>
   </g>
   <g id="text_18">
    <!-- halfwave plate -->
    <g transform="translate(192.075938 35.472) scale(0.12 -0.12)">
     <defs>
      <path id="DejaVuSans-66" d="M 2375 4863 
L 2375 4384 
L 1825 4384 
Q 1516 4384 1395 4259 
Q 1275 4134 1275 3809 
L 1275 3500 
L 2222 3500 
L 2222 3053 
L 1275 3053 
L 1275 0 
L 697 0 
L 697 3053 
L 147 3053 
L 147 3500 
L 697 3500 
L 697 3744 
Q 697 4328 969 4595 
Q 1241 4863 1831 4863 
L 2375 4863 
z
" transform="scale(0.015625)"/>
      <path id="DejaVuSans-76" d="M 191 3500 
L 800 3500 
L 1894 563 
L 2988 3500 
L 3597 3500 
L 2284 0 
L 1503 0 
L 191 3500 
z
" transform="scale(0.015625)"/>
     </defs>
     <use xlink:href="#DejaVuSans-68"/>
     <use xlink:href="#DejaVuSans-61" x="63.378906"/>
     <use xlink:href="#DejaVuSans-6c" x="124.658203"/>
     <use xlink:href="#DejaVuSans-66" x="152.441406"/>
     <use xlink:href="#DejaVuSans-77" x="185.896484"/>
     <use xlink:href="#DejaVuSans-61" x="267.683594"/>
     <use xlink:href="#DejaVuSans-76" x="328.962891"/>
     <use xlink:href="#DejaVuSans-65" x="388.142578"/>
     <use xlink:href="#DejaVuSans-20" x="449.666016"/>
     <use xlink:href="#DejaVuSans-70" x="481.453125"/>
     <use xlink:href="#DejaVuSans-6c" x="544.929688"/>
     <use xlink:href="#DejaVuSans-61" x="572.712891"/>
     <use xlink:href="#DejaVuSans-74" x="633.992188"/>
     <use xlink:href="#DejaVuSans-65" x="673.201172"/>
    </g>
   </g>
  </g>
 </g>
 <defs>
  <clipPath id="p7ab057fdf6">
   <rect x="57.6" y="41.472" width="357.12" height="266.112"/>
  </clipPath>
 </defs>
</svg>
