<?xml version="1.0" encoding="utf-8" standalone="no"?>
<!DOCTYPE svg PUBLIC "-//W3C//DTD SVG 1.1//EN"
  "http://www.w3.org/Graphics/SVG/1.1/DTD/svg11.dtd">
<svg xmlns:xlink="http://www.w3.org/1999/xlink" width="460.8pt" height="345.6pt" viewBox="0 0 460.8 345.6" xmlns="http://www.w3.org/2000/svg" version="1.1">
 <metadata>
  <rdf:RDF xmlns:dc="http://purl.org/dc/elements/1.1/" xmlns:cc="http://creativecommons.org/ns#" xmlns:rdf="http://www.w3.org/1999/02/22-rdf-syntax-ns#">
   <cc:Work>
    <dc:type rdf:resource="http://purl.org/dc/dcmitype/StillImage"/>
    <dc:date>2022-12-27T12:38:44.672128</dc:date>
    <dc:format>image/svg+xml</dc:format>
    <dc:creator>
     <cc:Agent>
      <dc:title>Matplotlib v3.6.2, https://matplotlib.org/</dc:title>
     </cc:Agent>
    </dc:creator>
   </cc:Work>
  </rdf:RDF>
 </metadata>
 <defs>
  <style type="text/css">*{stroke-linejoin: round; stroke-linecap: butt}</style>
 </defs>
 <g id="figure_1">
  <g id="patch_1">
   <path d="M 0 345.6 
L 460.8 345.6 
L 460.8 0 
L 0 0 
z
" style="fill: #ffffff"/>
  </g>
  <g id="axes_1">
   <g id="patch_2">
    <path d="M 57.6 307.584 
L 414.72 307.584 
L 414.72 41.472 
L 57.6 41.472 
z
" style="fill: #ffffff"/>
   </g>
   <g id="matplotlib.axis_1">
    <g id="xtick_1">
     <g id="line2d_1">
      <path d="M 96.667895 307.584 
L 96.667895 41.472 
" clip-path="url(#p7922a9759b)" style="fill: none; stroke: #b0b0b0; stroke-width: 0.8; stroke-linecap: square"/>
     </g>
     <g id="line2d_2">
      <defs>
       <path id="mc00e7fee60" d="M 0 0 
L 0 3.5 
" style="stroke: #000000; stroke-width: 0.8"/>
      </defs>
      <g>
       <use xlink:href="#mc00e7fee60" x="96.667895" y="307.584" style="stroke: #000000; stroke-width: 0.8"/>
      </g>
     </g>
     <g id="text_1">
      <!-- 0.0 -->
      <g transform="translate(88.716333 322.182437) scale(0.1 -0.1)">
       <defs>
        <path id="DejaVuSans-30" d="M 2034 4250 
Q 1547 4250 1301 3770 
Q 1056 3291 1056 2328 
Q 1056 1369 1301 889 
Q 1547 409 2034 409 
Q 2525 409 2770 889 
Q 3016 1369 3016 2328 
Q 3016 3291 2770 3770 
Q 2525 4250 2034 4250 
z
M 2034 4750 
Q 2819 4750 3233 4129 
Q 3647 3509 3647 2328 
Q 3647 1150 3233 529 
Q 2819 -91 2034 -91 
Q 1250 -91 836 529 
Q 422 1150 422 2328 
Q 422 3509 836 4129 
Q 1250 4750 2034 4750 
z
" transform="scale(0.015625)"/>
        <path id="DejaVuSans-2e" d="M 684 794 
L 1344 794 
L 1344 0 
L 684 0 
L 684 794 
z
" transform="scale(0.015625)"/>
       </defs>
       <use xlink:href="#DejaVuSans-30"/>
       <use xlink:href="#DejaVuSans-2e" x="63.623047"/>
       <use xlink:href="#DejaVuSans-30" x="95.410156"/>
      </g>
     </g>
    </g>
    <g id="xtick_2">
     <g id="line2d_3">
      <path d="M 142.338232 307.584 
L 142.338232 41.472 
" clip-path="url(#p7922a9759b)" style="fill: none; stroke: #b0b0b0; stroke-width: 0.8; stroke-linecap: square"/>
     </g>
     <g id="line2d_4">
      <g>
       <use xlink:href="#mc00e7fee60" x="142.338232" y="307.584" style="stroke: #000000; stroke-width: 0.8"/>
      </g>
     </g>
     <g id="text_2">
      <!-- 0.2 -->
      <g transform="translate(134.386669 322.182437) scale(0.1 -0.1)">
       <defs>
        <path id="DejaVuSans-32" d="M 1228 531 
L 3431 531 
L 3431 0 
L 469 0 
L 469 531 
Q 828 903 1448 1529 
Q 2069 2156 2228 2338 
Q 2531 2678 2651 2914 
Q 2772 3150 2772 3378 
Q 2772 3750 2511 3984 
Q 2250 4219 1831 4219 
Q 1534 4219 1204 4116 
Q 875 4013 500 3803 
L 500 4441 
Q 881 4594 1212 4672 
Q 1544 4750 1819 4750 
Q 2544 4750 2975 4387 
Q 3406 4025 3406 3419 
Q 3406 3131 3298 2873 
Q 3191 2616 2906 2266 
Q 2828 2175 2409 1742 
Q 1991 1309 1228 531 
z
" transform="scale(0.015625)"/>
       </defs>
       <use xlink:href="#DejaVuSans-30"/>
       <use xlink:href="#DejaVuSans-2e" x="63.623047"/>
       <use xlink:href="#DejaVuSans-32" x="95.410156"/>
      </g>
     </g>
    </g>
    <g id="xtick_3">
     <g id="line2d_5">
      <path d="M 188.008568 307.584 
L 188.008568 41.472 
" clip-path="url(#p7922a9759b)" style="fill: none; stroke: #b0b0b0; stroke-width: 0.8; stroke-linecap: square"/>
     </g>
     <g id="line2d_6">
      <g>
       <use xlink:href="#mc00e7fee60" x="188.008568" y="307.584" style="stroke: #000000; stroke-width: 0.8"/>
      </g>
     </g>
     <g id="text_3">
      <!-- 0.4 -->
      <g transform="translate(180.057006 322.182437) scale(0.1 -0.1)">
       <defs>
        <path id="DejaVuSans-34" d="M 2419 4116 
L 825 1625 
L 2419 1625 
L 2419 4116 
z
M 2253 4666 
L 3047 4666 
L 3047 1625 
L 3713 1625 
L 3713 1100 
L 3047 1100 
L 3047 0 
L 2419 0 
L 2419 1100 
L 313 1100 
L 313 1709 
L 2253 4666 
z
" transform="scale(0.015625)"/>
       </defs>
       <use xlink:href="#DejaVuSans-30"/>
       <use xlink:href="#DejaVuSans-2e" x="63.623047"/>
       <use xlink:href="#DejaVuSans-34" x="95.410156"/>
      </g>
     </g>
    </g>
    <g id="xtick_4">
     <g id="line2d_7">
      <path d="M 233.678905 307.584 
L 233.678905 41.472 
" clip-path="url(#p7922a9759b)" style="fill: none; stroke: #b0b0b0; stroke-width: 0.8; stroke-linecap: square"/>
     </g>
     <g id="line2d_8">
      <g>
       <use xlink:href="#mc00e7fee60" x="233.678905" y="307.584" style="stroke: #000000; stroke-width: 0.8"/>
      </g>
     </g>
     <g id="text_4">
      <!-- 0.6 -->
      <g transform="translate(225.727342 322.182437) scale(0.1 -0.1)">
       <defs>
        <path id="DejaVuSans-36" d="M 2113 2584 
Q 1688 2584 1439 2293 
Q 1191 2003 1191 1497 
Q 1191 994 1439 701 
Q 1688 409 2113 409 
Q 2538 409 2786 701 
Q 3034 994 3034 1497 
Q 3034 2003 2786 2293 
Q 2538 2584 2113 2584 
z
M 3366 4563 
L 3366 3988 
Q 3128 4100 2886 4159 
Q 2644 4219 2406 4219 
Q 1781 4219 1451 3797 
Q 1122 3375 1075 2522 
Q 1259 2794 1537 2939 
Q 1816 3084 2150 3084 
Q 2853 3084 3261 2657 
Q 3669 2231 3669 1497 
Q 3669 778 3244 343 
Q 2819 -91 2113 -91 
Q 1303 -91 875 529 
Q 447 1150 447 2328 
Q 447 3434 972 4092 
Q 1497 4750 2381 4750 
Q 2619 4750 2861 4703 
Q 3103 4656 3366 4563 
z
" transform="scale(0.015625)"/>
       </defs>
       <use xlink:href="#DejaVuSans-30"/>
       <use xlink:href="#DejaVuSans-2e" x="63.623047"/>
       <use xlink:href="#DejaVuSans-36" x="95.410156"/>
      </g>
     </g>
    </g>
    <g id="xtick_5">
     <g id="line2d_9">
      <path d="M 279.349241 307.584 
L 279.349241 41.472 
" clip-path="url(#p7922a9759b)" style="fill: none; stroke: #b0b0b0; stroke-width: 0.8; stroke-linecap: square"/>
     </g>
     <g id="line2d_10">
      <g>
       <use xlink:href="#mc00e7fee60" x="279.349241" y="307.584" style="stroke: #000000; stroke-width: 0.8"/>
      </g>
     </g>
     <g id="text_5">
      <!-- 0.8 -->
      <g transform="translate(271.397678 322.182437) scale(0.1 -0.1)">
       <defs>
        <path id="DejaVuSans-38" d="M 2034 2216 
Q 1584 2216 1326 1975 
Q 1069 1734 1069 1313 
Q 1069 891 1326 650 
Q 1584 409 2034 409 
Q 2484 409 2743 651 
Q 3003 894 3003 1313 
Q 3003 1734 2745 1975 
Q 2488 2216 2034 2216 
z
M 1403 2484 
Q 997 2584 770 2862 
Q 544 3141 544 3541 
Q 544 4100 942 4425 
Q 1341 4750 2034 4750 
Q 2731 4750 3128 4425 
Q 3525 4100 3525 3541 
Q 3525 3141 3298 2862 
Q 3072 2584 2669 2484 
Q 3125 2378 3379 2068 
Q 3634 1759 3634 1313 
Q 3634 634 3220 271 
Q 2806 -91 2034 -91 
Q 1263 -91 848 271 
Q 434 634 434 1313 
Q 434 1759 690 2068 
Q 947 2378 1403 2484 
z
M 1172 3481 
Q 1172 3119 1398 2916 
Q 1625 2713 2034 2713 
Q 2441 2713 2670 2916 
Q 2900 3119 2900 3481 
Q 2900 3844 2670 4047 
Q 2441 4250 2034 4250 
Q 1625 4250 1398 4047 
Q 1172 3844 1172 3481 
z
" transform="scale(0.015625)"/>
       </defs>
       <use xlink:href="#DejaVuSans-30"/>
       <use xlink:href="#DejaVuSans-2e" x="63.623047"/>
       <use xlink:href="#DejaVuSans-38" x="95.410156"/>
      </g>
     </g>
    </g>
    <g id="xtick_6">
     <g id="line2d_11">
      <path d="M 325.019577 307.584 
L 325.019577 41.472 
" clip-path="url(#p7922a9759b)" style="fill: none; stroke: #b0b0b0; stroke-width: 0.8; stroke-linecap: square"/>
     </g>
     <g id="line2d_12">
      <g>
       <use xlink:href="#mc00e7fee60" x="325.019577" y="307.584" style="stroke: #000000; stroke-width: 0.8"/>
      </g>
     </g>
     <g id="text_6">
      <!-- 1.0 -->
      <g transform="translate(317.068015 322.182437) scale(0.1 -0.1)">
       <defs>
        <path id="DejaVuSans-31" d="M 794 531 
L 1825 531 
L 1825 4091 
L 703 3866 
L 703 4441 
L 1819 4666 
L 2450 4666 
L 2450 531 
L 3481 531 
L 3481 0 
L 794 0 
L 794 531 
z
" transform="scale(0.015625)"/>
       </defs>
       <use xlink:href="#DejaVuSans-31"/>
       <use xlink:href="#DejaVuSans-2e" x="63.623047"/>
       <use xlink:href="#DejaVuSans-30" x="95.410156"/>
      </g>
     </g>
    </g>
    <g id="xtick_7">
     <g id="line2d_13">
      <path d="M 370.689914 307.584 
L 370.689914 41.472 
" clip-path="url(#p7922a9759b)" style="fill: none; stroke: #b0b0b0; stroke-width: 0.8; stroke-linecap: square"/>
     </g>
     <g id="line2d_14">
      <g>
       <use xlink:href="#mc00e7fee60" x="370.689914" y="307.584" style="stroke: #000000; stroke-width: 0.8"/>
      </g>
     </g>
     <g id="text_7">
      <!-- 1.2 -->
      <g transform="translate(362.738351 322.182437) scale(0.1 -0.1)">
       <use xlink:href="#DejaVuSans-31"/>
       <use xlink:href="#DejaVuSans-2e" x="63.623047"/>
       <use xlink:href="#DejaVuSans-32" x="95.410156"/>
      </g>
     </g>
    </g>
    <g id="text_8">
     <!-- angle [rad] -->
     <g transform="translate(208.502969 335.860562) scale(0.1 -0.1)">
      <defs>
       <path id="DejaVuSans-61" d="M 2194 1759 
Q 1497 1759 1228 1600 
Q 959 1441 959 1056 
Q 959 750 1161 570 
Q 1363 391 1709 391 
Q 2188 391 2477 730 
Q 2766 1069 2766 1631 
L 2766 1759 
L 2194 1759 
z
M 3341 1997 
L 3341 0 
L 2766 0 
L 2766 531 
Q 2569 213 2275 61 
Q 1981 -91 1556 -91 
Q 1019 -91 701 211 
Q 384 513 384 1019 
Q 384 1609 779 1909 
Q 1175 2209 1959 2209 
L 2766 2209 
L 2766 2266 
Q 2766 2663 2505 2880 
Q 2244 3097 1772 3097 
Q 1472 3097 1187 3025 
Q 903 2953 641 2809 
L 641 3341 
Q 956 3463 1253 3523 
Q 1550 3584 1831 3584 
Q 2591 3584 2966 3190 
Q 3341 2797 3341 1997 
z
" transform="scale(0.015625)"/>
       <path id="DejaVuSans-6e" d="M 3513 2113 
L 3513 0 
L 2938 0 
L 2938 2094 
Q 2938 2591 2744 2837 
Q 2550 3084 2163 3084 
Q 1697 3084 1428 2787 
Q 1159 2491 1159 1978 
L 1159 0 
L 581 0 
L 581 3500 
L 1159 3500 
L 1159 2956 
Q 1366 3272 1645 3428 
Q 1925 3584 2291 3584 
Q 2894 3584 3203 3211 
Q 3513 2838 3513 2113 
z
" transform="scale(0.015625)"/>
       <path id="DejaVuSans-67" d="M 2906 1791 
Q 2906 2416 2648 2759 
Q 2391 3103 1925 3103 
Q 1463 3103 1205 2759 
Q 947 2416 947 1791 
Q 947 1169 1205 825 
Q 1463 481 1925 481 
Q 2391 481 2648 825 
Q 2906 1169 2906 1791 
z
M 3481 434 
Q 3481 -459 3084 -895 
Q 2688 -1331 1869 -1331 
Q 1566 -1331 1297 -1286 
Q 1028 -1241 775 -1147 
L 775 -588 
Q 1028 -725 1275 -790 
Q 1522 -856 1778 -856 
Q 2344 -856 2625 -561 
Q 2906 -266 2906 331 
L 2906 616 
Q 2728 306 2450 153 
Q 2172 0 1784 0 
Q 1141 0 747 490 
Q 353 981 353 1791 
Q 353 2603 747 3093 
Q 1141 3584 1784 3584 
Q 2172 3584 2450 3431 
Q 2728 3278 2906 2969 
L 2906 3500 
L 3481 3500 
L 3481 434 
z
" transform="scale(0.015625)"/>
       <path id="DejaVuSans-6c" d="M 603 4863 
L 1178 4863 
L 1178 0 
L 603 0 
L 603 4863 
z
" transform="scale(0.015625)"/>
       <path id="DejaVuSans-65" d="M 3597 1894 
L 3597 1613 
L 953 1613 
Q 991 1019 1311 708 
Q 1631 397 2203 397 
Q 2534 397 2845 478 
Q 3156 559 3463 722 
L 3463 178 
Q 3153 47 2828 -22 
Q 2503 -91 2169 -91 
Q 1331 -91 842 396 
Q 353 884 353 1716 
Q 353 2575 817 3079 
Q 1281 3584 2069 3584 
Q 2775 3584 3186 3129 
Q 3597 2675 3597 1894 
z
M 3022 2063 
Q 3016 2534 2758 2815 
Q 2500 3097 2075 3097 
Q 1594 3097 1305 2825 
Q 1016 2553 972 2059 
L 3022 2063 
z
" transform="scale(0.015625)"/>
       <path id="DejaVuSans-20" transform="scale(0.015625)"/>
       <path id="DejaVuSans-5b" d="M 550 4863 
L 1875 4863 
L 1875 4416 
L 1125 4416 
L 1125 -397 
L 1875 -397 
L 1875 -844 
L 550 -844 
L 550 4863 
z
" transform="scale(0.015625)"/>
       <path id="DejaVuSans-72" d="M 2631 2963 
Q 2534 3019 2420 3045 
Q 2306 3072 2169 3072 
Q 1681 3072 1420 2755 
Q 1159 2438 1159 1844 
L 1159 0 
L 581 0 
L 581 3500 
L 1159 3500 
L 1159 2956 
Q 1341 3275 1631 3429 
Q 1922 3584 2338 3584 
Q 2397 3584 2469 3576 
Q 2541 3569 2628 3553 
L 2631 2963 
z
" transform="scale(0.015625)"/>
       <path id="DejaVuSans-64" d="M 2906 2969 
L 2906 4863 
L 3481 4863 
L 3481 0 
L 2906 0 
L 2906 525 
Q 2725 213 2448 61 
Q 2172 -91 1784 -91 
Q 1150 -91 751 415 
Q 353 922 353 1747 
Q 353 2572 751 3078 
Q 1150 3584 1784 3584 
Q 2172 3584 2448 3432 
Q 2725 3281 2906 2969 
z
M 947 1747 
Q 947 1113 1208 752 
Q 1469 391 1925 391 
Q 2381 391 2643 752 
Q 2906 1113 2906 1747 
Q 2906 2381 2643 2742 
Q 2381 3103 1925 3103 
Q 1469 3103 1208 2742 
Q 947 2381 947 1747 
z
" transform="scale(0.015625)"/>
       <path id="DejaVuSans-5d" d="M 1947 4863 
L 1947 -844 
L 622 -844 
L 622 -397 
L 1369 -397 
L 1369 4416 
L 622 4416 
L 622 4863 
L 1947 4863 
z
" transform="scale(0.015625)"/>
      </defs>
      <use xlink:href="#DejaVuSans-61"/>
      <use xlink:href="#DejaVuSans-6e" x="61.279297"/>
      <use xlink:href="#DejaVuSans-67" x="124.658203"/>
      <use xlink:href="#DejaVuSans-6c" x="188.134766"/>
      <use xlink:href="#DejaVuSans-65" x="215.917969"/>
      <use xlink:href="#DejaVuSans-20" x="277.441406"/>
      <use xlink:href="#DejaVuSans-5b" x="309.228516"/>
      <use xlink:href="#DejaVuSans-72" x="348.242188"/>
      <use xlink:href="#DejaVuSans-61" x="389.355469"/>
      <use xlink:href="#DejaVuSans-64" x="450.634766"/>
      <use xlink:href="#DejaVuSans-5d" x="514.111328"/>
     </g>
    </g>
   </g>
   <g id="matplotlib.axis_2">
    <g id="ytick_1">
     <g id="line2d_15">
      <path d="M 57.6 295.527026 
L 414.72 295.527026 
" clip-path="url(#p7922a9759b)" style="fill: none; stroke: #b0b0b0; stroke-width: 0.8; stroke-linecap: square"/>
     </g>
     <g id="line2d_16">
      <defs>
       <path id="m54fd18cf71" d="M 0 0 
L -3.5 0 
" style="stroke: #000000; stroke-width: 0.8"/>
      </defs>
      <g>
       <use xlink:href="#m54fd18cf71" x="57.6" y="295.527026" style="stroke: #000000; stroke-width: 0.8"/>
      </g>
     </g>
     <g id="text_9">
      <!-- 0 -->
      <g transform="translate(44.2375 299.326245) scale(0.1 -0.1)">
       <use xlink:href="#DejaVuSans-30"/>
      </g>
     </g>
    </g>
    <g id="ytick_2">
     <g id="line2d_17">
      <path d="M 57.6 245.159337 
L 414.72 245.159337 
" clip-path="url(#p7922a9759b)" style="fill: none; stroke: #b0b0b0; stroke-width: 0.8; stroke-linecap: square"/>
     </g>
     <g id="line2d_18">
      <g>
       <use xlink:href="#m54fd18cf71" x="57.6" y="245.159337" style="stroke: #000000; stroke-width: 0.8"/>
      </g>
     </g>
     <g id="text_10">
      <!-- 5 -->
      <g transform="translate(44.2375 248.958556) scale(0.1 -0.1)">
       <defs>
        <path id="DejaVuSans-35" d="M 691 4666 
L 3169 4666 
L 3169 4134 
L 1269 4134 
L 1269 2991 
Q 1406 3038 1543 3061 
Q 1681 3084 1819 3084 
Q 2600 3084 3056 2656 
Q 3513 2228 3513 1497 
Q 3513 744 3044 326 
Q 2575 -91 1722 -91 
Q 1428 -91 1123 -41 
Q 819 9 494 109 
L 494 744 
Q 775 591 1075 516 
Q 1375 441 1709 441 
Q 2250 441 2565 725 
Q 2881 1009 2881 1497 
Q 2881 1984 2565 2268 
Q 2250 2553 1709 2553 
Q 1456 2553 1204 2497 
Q 953 2441 691 2322 
L 691 4666 
z
" transform="scale(0.015625)"/>
       </defs>
       <use xlink:href="#DejaVuSans-35"/>
      </g>
     </g>
    </g>
    <g id="ytick_3">
     <g id="line2d_19">
      <path d="M 57.6 194.791647 
L 414.72 194.791647 
" clip-path="url(#p7922a9759b)" style="fill: none; stroke: #b0b0b0; stroke-width: 0.8; stroke-linecap: square"/>
     </g>
     <g id="line2d_20">
      <g>
       <use xlink:href="#m54fd18cf71" x="57.6" y="194.791647" style="stroke: #000000; stroke-width: 0.8"/>
      </g>
     </g>
     <g id="text_11">
      <!-- 10 -->
      <g transform="translate(37.875 198.590866) scale(0.1 -0.1)">
       <use xlink:href="#DejaVuSans-31"/>
       <use xlink:href="#DejaVuSans-30" x="63.623047"/>
      </g>
     </g>
    </g>
    <g id="ytick_4">
     <g id="line2d_21">
      <path d="M 57.6 144.423958 
L 414.72 144.423958 
" clip-path="url(#p7922a9759b)" style="fill: none; stroke: #b0b0b0; stroke-width: 0.8; stroke-linecap: square"/>
     </g>
     <g id="line2d_22">
      <g>
       <use xlink:href="#m54fd18cf71" x="57.6" y="144.423958" style="stroke: #000000; stroke-width: 0.8"/>
      </g>
     </g>
     <g id="text_12">
      <!-- 15 -->
      <g transform="translate(37.875 148.223177) scale(0.1 -0.1)">
       <use xlink:href="#DejaVuSans-31"/>
       <use xlink:href="#DejaVuSans-35" x="63.623047"/>
      </g>
     </g>
    </g>
    <g id="ytick_5">
     <g id="line2d_23">
      <path d="M 57.6 94.056269 
L 414.72 94.056269 
" clip-path="url(#p7922a9759b)" style="fill: none; stroke: #b0b0b0; stroke-width: 0.8; stroke-linecap: square"/>
     </g>
     <g id="line2d_24">
      <g>
       <use xlink:href="#m54fd18cf71" x="57.6" y="94.056269" style="stroke: #000000; stroke-width: 0.8"/>
      </g>
     </g>
     <g id="text_13">
      <!-- 20 -->
      <g transform="translate(37.875 97.855487) scale(0.1 -0.1)">
       <use xlink:href="#DejaVuSans-32"/>
       <use xlink:href="#DejaVuSans-30" x="63.623047"/>
      </g>
     </g>
    </g>
    <g id="ytick_6">
     <g id="line2d_25">
      <path d="M 57.6 43.688579 
L 414.72 43.688579 
" clip-path="url(#p7922a9759b)" style="fill: none; stroke: #b0b0b0; stroke-width: 0.8; stroke-linecap: square"/>
     </g>
     <g id="line2d_26">
      <g>
       <use xlink:href="#m54fd18cf71" x="57.6" y="43.688579" style="stroke: #000000; stroke-width: 0.8"/>
      </g>
     </g>
     <g id="text_14">
      <!-- 25 -->
      <g transform="translate(37.875 47.487798) scale(0.1 -0.1)">
       <use xlink:href="#DejaVuSans-32"/>
       <use xlink:href="#DejaVuSans-35" x="63.623047"/>
      </g>
     </g>
    </g>
    <g id="text_15">
     <!-- light power [$\mu$ Amper] -->
     <g transform="translate(31.775 229.528) rotate(-90) scale(0.1 -0.1)">
      <defs>
       <path id="DejaVuSans-69" d="M 603 3500 
L 1178 3500 
L 1178 0 
L 603 0 
L 603 3500 
z
M 603 4863 
L 1178 4863 
L 1178 4134 
L 603 4134 
L 603 4863 
z
" transform="scale(0.015625)"/>
       <path id="DejaVuSans-68" d="M 3513 2113 
L 3513 0 
L 2938 0 
L 2938 2094 
Q 2938 2591 2744 2837 
Q 2550 3084 2163 3084 
Q 1697 3084 1428 2787 
Q 1159 2491 1159 1978 
L 1159 0 
L 581 0 
L 581 4863 
L 1159 4863 
L 1159 2956 
Q 1366 3272 1645 3428 
Q 1925 3584 2291 3584 
Q 2894 3584 3203 3211 
Q 3513 2838 3513 2113 
z
" transform="scale(0.015625)"/>
       <path id="DejaVuSans-74" d="M 1172 4494 
L 1172 3500 
L 2356 3500 
L 2356 3053 
L 1172 3053 
L 1172 1153 
Q 1172 725 1289 603 
Q 1406 481 1766 481 
L 2356 481 
L 2356 0 
L 1766 0 
Q 1100 0 847 248 
Q 594 497 594 1153 
L 594 3053 
L 172 3053 
L 172 3500 
L 594 3500 
L 594 4494 
L 1172 4494 
z
" transform="scale(0.015625)"/>
       <path id="DejaVuSans-70" d="M 1159 525 
L 1159 -1331 
L 581 -1331 
L 581 3500 
L 1159 3500 
L 1159 2969 
Q 1341 3281 1617 3432 
Q 1894 3584 2278 3584 
Q 2916 3584 3314 3078 
Q 3713 2572 3713 1747 
Q 3713 922 3314 415 
Q 2916 -91 2278 -91 
Q 1894 -91 1617 61 
Q 1341 213 1159 525 
z
M 3116 1747 
Q 3116 2381 2855 2742 
Q 2594 3103 2138 3103 
Q 1681 3103 1420 2742 
Q 1159 2381 1159 1747 
Q 1159 1113 1420 752 
Q 1681 391 2138 391 
Q 2594 391 2855 752 
Q 3116 1113 3116 1747 
z
" transform="scale(0.015625)"/>
       <path id="DejaVuSans-6f" d="M 1959 3097 
Q 1497 3097 1228 2736 
Q 959 2375 959 1747 
Q 959 1119 1226 758 
Q 1494 397 1959 397 
Q 2419 397 2687 759 
Q 2956 1122 2956 1747 
Q 2956 2369 2687 2733 
Q 2419 3097 1959 3097 
z
M 1959 3584 
Q 2709 3584 3137 3096 
Q 3566 2609 3566 1747 
Q 3566 888 3137 398 
Q 2709 -91 1959 -91 
Q 1206 -91 779 398 
Q 353 888 353 1747 
Q 353 2609 779 3096 
Q 1206 3584 1959 3584 
z
" transform="scale(0.015625)"/>
       <path id="DejaVuSans-77" d="M 269 3500 
L 844 3500 
L 1563 769 
L 2278 3500 
L 2956 3500 
L 3675 769 
L 4391 3500 
L 4966 3500 
L 4050 0 
L 3372 0 
L 2619 2869 
L 1863 0 
L 1184 0 
L 269 3500 
z
" transform="scale(0.015625)"/>
       <path id="DejaVuSans-Oblique-3bc" d="M -84 -1331 
L 856 3500 
L 1434 3500 
L 1009 1322 
Q 997 1256 987 1175 
Q 978 1094 978 1013 
Q 978 722 1161 565 
Q 1344 409 1684 409 
Q 2147 409 2431 671 
Q 2716 934 2816 1459 
L 3213 3500 
L 3788 3500 
L 3266 809 
Q 3253 750 3248 706 
Q 3244 663 3244 628 
Q 3244 531 3283 486 
Q 3322 441 3406 441 
Q 3438 441 3492 456 
Q 3547 472 3647 513 
L 3559 50 
Q 3422 -19 3297 -55 
Q 3172 -91 3053 -91 
Q 2847 -91 2730 40 
Q 2613 172 2613 403 
Q 2438 153 2195 31 
Q 1953 -91 1625 -91 
Q 1334 -91 1117 43 
Q 900 178 831 397 
L 494 -1331 
L -84 -1331 
z
" transform="scale(0.015625)"/>
       <path id="DejaVuSans-41" d="M 2188 4044 
L 1331 1722 
L 3047 1722 
L 2188 4044 
z
M 1831 4666 
L 2547 4666 
L 4325 0 
L 3669 0 
L 3244 1197 
L 1141 1197 
L 716 0 
L 50 0 
L 1831 4666 
z
" transform="scale(0.015625)"/>
       <path id="DejaVuSans-6d" d="M 3328 2828 
Q 3544 3216 3844 3400 
Q 4144 3584 4550 3584 
Q 5097 3584 5394 3201 
Q 5691 2819 5691 2113 
L 5691 0 
L 5113 0 
L 5113 2094 
Q 5113 2597 4934 2840 
Q 4756 3084 4391 3084 
Q 3944 3084 3684 2787 
Q 3425 2491 3425 1978 
L 3425 0 
L 2847 0 
L 2847 2094 
Q 2847 2600 2669 2842 
Q 2491 3084 2119 3084 
Q 1678 3084 1418 2786 
Q 1159 2488 1159 1978 
L 1159 0 
L 581 0 
L 581 3500 
L 1159 3500 
L 1159 2956 
Q 1356 3278 1631 3431 
Q 1906 3584 2284 3584 
Q 2666 3584 2933 3390 
Q 3200 3197 3328 2828 
z
" transform="scale(0.015625)"/>
      </defs>
      <use xlink:href="#DejaVuSans-6c" transform="translate(0 0.015625)"/>
      <use xlink:href="#DejaVuSans-69" transform="translate(27.783203 0.015625)"/>
      <use xlink:href="#DejaVuSans-67" transform="translate(55.566406 0.015625)"/>
      <use xlink:href="#DejaVuSans-68" transform="translate(119.042969 0.015625)"/>
      <use xlink:href="#DejaVuSans-74" transform="translate(182.421875 0.015625)"/>
      <use xlink:href="#DejaVuSans-20" transform="translate(221.630859 0.015625)"/>
      <use xlink:href="#DejaVuSans-70" transform="translate(253.417969 0.015625)"/>
      <use xlink:href="#DejaVuSans-6f" transform="translate(316.894531 0.015625)"/>
      <use xlink:href="#DejaVuSans-77" transform="translate(378.076172 0.015625)"/>
      <use xlink:href="#DejaVuSans-65" transform="translate(459.863281 0.015625)"/>
      <use xlink:href="#DejaVuSans-72" transform="translate(521.386719 0.015625)"/>
      <use xlink:href="#DejaVuSans-20" transform="translate(562.5 0.015625)"/>
      <use xlink:href="#DejaVuSans-5b" transform="translate(594.287109 0.015625)"/>
      <use xlink:href="#DejaVuSans-Oblique-3bc" transform="translate(633.300781 0.015625)"/>
      <use xlink:href="#DejaVuSans-20" transform="translate(696.923828 0.015625)"/>
      <use xlink:href="#DejaVuSans-41" transform="translate(728.710938 0.015625)"/>
      <use xlink:href="#DejaVuSans-6d" transform="translate(797.119141 0.015625)"/>
      <use xlink:href="#DejaVuSans-70" transform="translate(894.53125 0.015625)"/>
      <use xlink:href="#DejaVuSans-65" transform="translate(958.007812 0.015625)"/>
      <use xlink:href="#DejaVuSans-72" transform="translate(1019.53125 0.015625)"/>
      <use xlink:href="#DejaVuSans-5d" transform="translate(1060.644531 0.015625)"/>
     </g>
    </g>
   </g>
   <g id="line2d_27">
    <defs>
     <path id="m2df703e7a1" d="M 0 1.5 
C 0.397805 1.5 0.77937 1.341951 1.06066 1.06066 
C 1.341951 0.77937 1.5 0.397805 1.5 0 
C 1.5 -0.397805 1.341951 -0.77937 1.06066 -1.06066 
C 0.77937 -1.341951 0.397805 -1.5 0 -1.5 
C -0.397805 -1.5 -0.77937 -1.341951 -1.06066 -1.06066 
C -1.341951 -0.77937 -1.5 -0.397805 -1.5 0 
C -1.5 0.397805 -1.341951 0.77937 -1.06066 1.06066 
C -0.77937 1.341951 -0.397805 1.5 0 1.5 
z
" style="stroke: #0000ff"/>
    </defs>
    <g clip-path="url(#p7922a9759b)">
     <use xlink:href="#m2df703e7a1" x="96.667895" y="122.264492" style="fill: #0000ff; stroke: #0000ff"/>
     <use xlink:href="#m2df703e7a1" x="112.60985" y="94.058586" style="fill: #0000ff; stroke: #0000ff"/>
     <use xlink:href="#m2df703e7a1" x="136.522782" y="66.860033" style="fill: #0000ff; stroke: #0000ff"/>
     <use xlink:href="#m2df703e7a1" x="144.49376" y="54.771788" style="fill: #0000ff; stroke: #0000ff"/>
     <use xlink:href="#m2df703e7a1" x="160.435715" y="62.830618" style="fill: #0000ff; stroke: #0000ff"/>
     <use xlink:href="#m2df703e7a1" x="168.406692" y="63.837972" style="fill: #0000ff; stroke: #0000ff"/>
     <use xlink:href="#m2df703e7a1" x="176.377669" y="73.91151" style="fill: #0000ff; stroke: #0000ff"/>
     <use xlink:href="#m2df703e7a1" x="196.305113" y="83.985048" style="fill: #0000ff; stroke: #0000ff"/>
     <use xlink:href="#m2df703e7a1" x="216.232556" y="120.249784" style="fill: #0000ff; stroke: #0000ff"/>
     <use xlink:href="#m2df703e7a1" x="236.16" y="147.448336" style="fill: #0000ff; stroke: #0000ff"/>
     <use xlink:href="#m2df703e7a1" x="256.087444" y="191.771903" style="fill: #0000ff; stroke: #0000ff"/>
     <use xlink:href="#m2df703e7a1" x="276.014887" y="232.066055" style="fill: #0000ff; stroke: #0000ff"/>
     <use xlink:href="#m2df703e7a1" x="295.942331" y="262.286668" style="fill: #0000ff; stroke: #0000ff"/>
     <use xlink:href="#m2df703e7a1" x="315.869774" y="285.758011" style="fill: #0000ff; stroke: #0000ff"/>
     <use xlink:href="#m2df703e7a1" x="323.840751" y="288.276396" style="fill: #0000ff; stroke: #0000ff"/>
     <use xlink:href="#m2df703e7a1" x="327.82624" y="292.003605" style="fill: #0000ff; stroke: #0000ff"/>
     <use xlink:href="#m2df703e7a1" x="335.797218" y="294.673093" style="fill: #0000ff; stroke: #0000ff"/>
     <use xlink:href="#m2df703e7a1" x="343.768195" y="295.237211" style="fill: #0000ff; stroke: #0000ff"/>
     <use xlink:href="#m2df703e7a1" x="351.739172" y="293.454194" style="fill: #0000ff; stroke: #0000ff"/>
     <use xlink:href="#m2df703e7a1" x="355.724661" y="292.487135" style="fill: #0000ff; stroke: #0000ff"/>
     <use xlink:href="#m2df703e7a1" x="375.652105" y="270.345499" style="fill: #0000ff; stroke: #0000ff"/>
    </g>
   </g>
   <g id="LineCollection_1">
    <path d="M 95.339399 122.264492 
L 97.996392 122.264492 
" clip-path="url(#p7922a9759b)" style="fill: none; stroke: #008000; stroke-width: 1.5"/>
    <path d="M 111.281354 94.058586 
L 113.938346 94.058586 
" clip-path="url(#p7922a9759b)" style="fill: none; stroke: #008000; stroke-width: 1.5"/>
    <path d="M 135.194286 66.860033 
L 137.851279 66.860033 
" clip-path="url(#p7922a9759b)" style="fill: none; stroke: #008000; stroke-width: 1.5"/>
    <path d="M 143.165264 54.771788 
L 145.822256 54.771788 
" clip-path="url(#p7922a9759b)" style="fill: none; stroke: #008000; stroke-width: 1.5"/>
    <path d="M 159.107218 62.830618 
L 161.764211 62.830618 
" clip-path="url(#p7922a9759b)" style="fill: none; stroke: #008000; stroke-width: 1.5"/>
    <path d="M 167.078196 63.837972 
L 169.735188 63.837972 
" clip-path="url(#p7922a9759b)" style="fill: none; stroke: #008000; stroke-width: 1.5"/>
    <path d="M 175.049173 73.91151 
L 177.706166 73.91151 
" clip-path="url(#p7922a9759b)" style="fill: none; stroke: #008000; stroke-width: 1.5"/>
    <path d="M 194.976617 83.985048 
L 197.633609 83.985048 
" clip-path="url(#p7922a9759b)" style="fill: none; stroke: #008000; stroke-width: 1.5"/>
    <path d="M 214.90406 120.249784 
L 217.561053 120.249784 
" clip-path="url(#p7922a9759b)" style="fill: none; stroke: #008000; stroke-width: 1.5"/>
    <path d="M 234.831504 147.448336 
L 237.488496 147.448336 
" clip-path="url(#p7922a9759b)" style="fill: none; stroke: #008000; stroke-width: 1.5"/>
    <path d="M 254.758947 191.771903 
L 257.41594 191.771903 
" clip-path="url(#p7922a9759b)" style="fill: none; stroke: #008000; stroke-width: 1.5"/>
    <path d="M 274.686391 232.066055 
L 277.343383 232.066055 
" clip-path="url(#p7922a9759b)" style="fill: none; stroke: #008000; stroke-width: 1.5"/>
    <path d="M 294.613834 262.286668 
L 297.270827 262.286668 
" clip-path="url(#p7922a9759b)" style="fill: none; stroke: #008000; stroke-width: 1.5"/>
    <path d="M 314.541278 285.758011 
L 317.19827 285.758011 
" clip-path="url(#p7922a9759b)" style="fill: none; stroke: #008000; stroke-width: 1.5"/>
    <path d="M 322.512255 288.276396 
L 325.169248 288.276396 
" clip-path="url(#p7922a9759b)" style="fill: none; stroke: #008000; stroke-width: 1.5"/>
    <path d="M 326.497744 292.003605 
L 329.154736 292.003605 
" clip-path="url(#p7922a9759b)" style="fill: none; stroke: #008000; stroke-width: 1.5"/>
    <path d="M 334.468721 294.673093 
L 337.125714 294.673093 
" clip-path="url(#p7922a9759b)" style="fill: none; stroke: #008000; stroke-width: 1.5"/>
    <path d="M 342.439699 295.237211 
L 345.096691 295.237211 
" clip-path="url(#p7922a9759b)" style="fill: none; stroke: #008000; stroke-width: 1.5"/>
    <path d="M 350.410676 293.454194 
L 353.067669 293.454194 
" clip-path="url(#p7922a9759b)" style="fill: none; stroke: #008000; stroke-width: 1.5"/>
    <path d="M 354.396165 292.487135 
L 357.053157 292.487135 
" clip-path="url(#p7922a9759b)" style="fill: none; stroke: #008000; stroke-width: 1.5"/>
    <path d="M 374.323608 270.345499 
L 376.980601 270.345499 
" clip-path="url(#p7922a9759b)" style="fill: none; stroke: #008000; stroke-width: 1.5"/>
   </g>
   <g id="LineCollection_2">
    <path d="M 96.667895 123.130816 
L 96.667895 121.398167 
" clip-path="url(#p7922a9759b)" style="fill: none; stroke: #008000; stroke-width: 1.5"/>
    <path d="M 112.60985 95.065939 
L 112.60985 93.051232 
" clip-path="url(#p7922a9759b)" style="fill: none; stroke: #008000; stroke-width: 1.5"/>
    <path d="M 136.522782 68.00338 
L 136.522782 65.716687 
" clip-path="url(#p7922a9759b)" style="fill: none; stroke: #008000; stroke-width: 1.5"/>
    <path d="M 144.49376 55.975576 
L 144.49376 53.568 
" clip-path="url(#p7922a9759b)" style="fill: none; stroke: #008000; stroke-width: 1.5"/>
    <path d="M 160.435715 63.994112 
L 160.435715 61.667124 
" clip-path="url(#p7922a9759b)" style="fill: none; stroke: #008000; stroke-width: 1.5"/>
    <path d="M 168.406692 64.996429 
L 168.406692 62.679515 
" clip-path="url(#p7922a9759b)" style="fill: none; stroke: #008000; stroke-width: 1.5"/>
    <path d="M 176.377669 75.019599 
L 176.377669 72.803421 
" clip-path="url(#p7922a9759b)" style="fill: none; stroke: #008000; stroke-width: 1.5"/>
    <path d="M 196.305113 85.042769 
L 196.305113 82.927326 
" clip-path="url(#p7922a9759b)" style="fill: none; stroke: #008000; stroke-width: 1.5"/>
    <path d="M 216.232556 121.126182 
L 216.232556 119.373386 
" clip-path="url(#p7922a9759b)" style="fill: none; stroke: #008000; stroke-width: 1.5"/>
    <path d="M 236.16 148.188741 
L 236.16 146.707931 
" clip-path="url(#p7922a9759b)" style="fill: none; stroke: #008000; stroke-width: 1.5"/>
    <path d="M 256.087444 192.29069 
L 256.087444 191.253116 
" clip-path="url(#p7922a9759b)" style="fill: none; stroke: #008000; stroke-width: 1.5"/>
    <path d="M 276.014887 232.383371 
L 276.014887 231.748738 
" clip-path="url(#p7922a9759b)" style="fill: none; stroke: #008000; stroke-width: 1.5"/>
    <path d="M 295.942331 262.452882 
L 295.942331 262.120455 
" clip-path="url(#p7922a9759b)" style="fill: none; stroke: #008000; stroke-width: 1.5"/>
    <path d="M 315.869774 285.806868 
L 315.869774 285.709155 
" clip-path="url(#p7922a9759b)" style="fill: none; stroke: #008000; stroke-width: 1.5"/>
    <path d="M 323.840751 288.312661 
L 323.840751 288.240131 
" clip-path="url(#p7922a9759b)" style="fill: none; stroke: #008000; stroke-width: 1.5"/>
    <path d="M 327.82624 292.021234 
L 327.82624 291.985976 
" clip-path="url(#p7922a9759b)" style="fill: none; stroke: #008000; stroke-width: 1.5"/>
    <path d="M 335.797218 294.677374 
L 335.797218 294.668811 
" clip-path="url(#p7922a9759b)" style="fill: none; stroke: #008000; stroke-width: 1.5"/>
    <path d="M 343.768195 295.238672 
L 343.768195 295.235749 
" clip-path="url(#p7922a9759b)" style="fill: none; stroke: #008000; stroke-width: 1.5"/>
    <path d="M 351.739172 293.46457 
L 351.739172 293.443819 
" clip-path="url(#p7922a9759b)" style="fill: none; stroke: #008000; stroke-width: 1.5"/>
    <path d="M 355.724661 292.502346 
L 355.724661 292.471924 
" clip-path="url(#p7922a9759b)" style="fill: none; stroke: #008000; stroke-width: 1.5"/>
    <path d="M 375.652105 270.471418 
L 375.652105 270.219579 
" clip-path="url(#p7922a9759b)" style="fill: none; stroke: #008000; stroke-width: 1.5"/>
   </g>
   <g id="line2d_28">
    <path d="M 73.832727 167.663895 
L 77.112066 160.939717 
L 80.391405 154.270797 
L 83.670744 147.679135 
L 86.950083 141.186476 
L 90.229421 134.814238 
L 93.50876 128.583443 
L 96.788099 122.514644 
L 100.067438 116.627863 
L 103.346777 110.942518 
L 106.626116 105.477365 
L 109.905455 100.250434 
L 113.184793 95.278966 
L 116.464132 90.579362 
L 119.743471 86.167125 
L 123.02281 82.056811 
L 126.302149 78.261979 
L 129.581488 74.795148 
L 132.860826 71.667755 
L 136.140165 68.890115 
L 139.419504 66.471393 
L 142.698843 64.419567 
L 145.978182 62.741407 
L 149.257521 61.442447 
L 152.53686 60.526973 
L 155.816198 59.998006 
L 159.095537 59.85729 
L 162.374876 60.105289 
L 165.654215 60.741185 
L 168.933554 61.762881 
L 172.212893 63.167006 
L 175.492231 64.948928 
L 178.77157 67.102769 
L 182.050909 69.621423 
L 185.330248 72.496582 
L 188.609587 75.718761 
L 191.888926 79.27733 
L 195.168264 83.160551 
L 198.447603 87.355613 
L 201.726942 91.848677 
L 205.006281 96.624921 
L 208.28562 101.668589 
L 211.564959 106.963042 
L 214.844298 112.490815 
L 218.123636 118.233672 
L 221.402975 124.172669 
L 224.682314 130.288214 
L 227.961653 136.560132 
L 231.240992 142.967732 
L 234.520331 149.489878 
L 237.799669 156.105053 
L 241.079008 162.791435 
L 244.358347 169.526967 
L 247.637686 176.289428 
L 250.917025 183.05651 
L 254.196364 189.80589 
L 257.475702 196.515303 
L 260.755041 203.162614 
L 264.03438 209.725895 
L 267.313719 216.183496 
L 270.593058 222.514112 
L 273.872397 228.696861 
L 277.151736 234.711346 
L 280.431074 240.537726 
L 283.710413 246.156781 
L 286.989752 251.549974 
L 290.269091 256.699514 
L 293.54843 261.588414 
L 296.827769 266.200544 
L 300.107107 270.520691 
L 303.386446 274.534603 
L 306.665785 278.229039 
L 309.945124 281.591811 
L 313.224463 284.611826 
L 316.503802 287.27912 
L 319.78314 289.584897 
L 323.062479 291.521547 
L 326.341818 293.082684 
L 329.621157 294.263157 
L 332.900496 295.059071 
L 336.179835 295.467802 
L 339.459174 295.488 
L 342.738512 295.1196 
L 346.017851 294.363815 
L 349.29719 293.223141 
L 352.576529 291.701339 
L 355.855868 289.803431 
L 359.135207 287.535676 
L 362.414545 284.905555 
L 365.693884 281.921746 
L 368.973223 278.594092 
L 372.252562 274.933569 
L 375.531901 270.952254 
L 378.81124 266.66328 
L 382.090579 262.080796 
L 385.369917 257.219919 
L 388.649256 252.096685 
L 391.928595 246.727994 
L 395.207934 241.131556 
L 398.487273 235.325835 
" clip-path="url(#p7922a9759b)" style="fill: none; stroke-dasharray: 5.55,2.4; stroke-dashoffset: 0; stroke: #ff0000; stroke-width: 1.5"/>
   </g>
   <g id="patch_3">
    <path d="M 57.6 307.584 
L 57.6 41.472 
" style="fill: none; stroke: #000000; stroke-width: 0.8; stroke-linejoin: miter; stroke-linecap: square"/>
   </g>
   <g id="patch_4">
    <path d="M 414.72 307.584 
L 414.72 41.472 
" style="fill: none; stroke: #000000; stroke-width: 0.8; stroke-linejoin: miter; stroke-linecap: square"/>
   </g>
   <g id="patch_5">
    <path d="M 57.6 307.584 
L 414.72 307.584 
" style="fill: none; stroke: #000000; stroke-width: 0.8; stroke-linejoin: miter; stroke-linecap: square"/>
   </g>
   <g id="patch_6">
    <path d="M 57.6 41.472 
L 414.72 41.472 
" style="fill: none; stroke: #000000; stroke-width: 0.8; stroke-linejoin: miter; stroke-linecap: square"/>
   </g>
   <g id="text_16">
    <!-- malus law 3 polarizers -->
    <g transform="translate(168.864375 35.472) scale(0.12 -0.12)">
     <defs>
      <path id="DejaVuSans-75" d="M 544 1381 
L 544 3500 
L 1119 3500 
L 1119 1403 
Q 1119 906 1312 657 
Q 1506 409 1894 409 
Q 2359 409 2629 706 
Q 2900 1003 2900 1516 
L 2900 3500 
L 3475 3500 
L 3475 0 
L 2900 0 
L 2900 538 
Q 2691 219 2414 64 
Q 2138 -91 1772 -91 
Q 1169 -91 856 284 
Q 544 659 544 1381 
z
M 1991 3584 
L 1991 3584 
z
" transform="scale(0.015625)"/>
      <path id="DejaVuSans-73" d="M 2834 3397 
L 2834 2853 
Q 2591 2978 2328 3040 
Q 2066 3103 1784 3103 
Q 1356 3103 1142 2972 
Q 928 2841 928 2578 
Q 928 2378 1081 2264 
Q 1234 2150 1697 2047 
L 1894 2003 
Q 2506 1872 2764 1633 
Q 3022 1394 3022 966 
Q 3022 478 2636 193 
Q 2250 -91 1575 -91 
Q 1294 -91 989 -36 
Q 684 19 347 128 
L 347 722 
Q 666 556 975 473 
Q 1284 391 1588 391 
Q 1994 391 2212 530 
Q 2431 669 2431 922 
Q 2431 1156 2273 1281 
Q 2116 1406 1581 1522 
L 1381 1569 
Q 847 1681 609 1914 
Q 372 2147 372 2553 
Q 372 3047 722 3315 
Q 1072 3584 1716 3584 
Q 2034 3584 2315 3537 
Q 2597 3491 2834 3397 
z
" transform="scale(0.015625)"/>
      <path id="DejaVuSans-33" d="M 2597 2516 
Q 3050 2419 3304 2112 
Q 3559 1806 3559 1356 
Q 3559 666 3084 287 
Q 2609 -91 1734 -91 
Q 1441 -91 1130 -33 
Q 819 25 488 141 
L 488 750 
Q 750 597 1062 519 
Q 1375 441 1716 441 
Q 2309 441 2620 675 
Q 2931 909 2931 1356 
Q 2931 1769 2642 2001 
Q 2353 2234 1838 2234 
L 1294 2234 
L 1294 2753 
L 1863 2753 
Q 2328 2753 2575 2939 
Q 2822 3125 2822 3475 
Q 2822 3834 2567 4026 
Q 2313 4219 1838 4219 
Q 1578 4219 1281 4162 
Q 984 4106 628 3988 
L 628 4550 
Q 988 4650 1302 4700 
Q 1616 4750 1894 4750 
Q 2613 4750 3031 4423 
Q 3450 4097 3450 3541 
Q 3450 3153 3228 2886 
Q 3006 2619 2597 2516 
z
" transform="scale(0.015625)"/>
      <path id="DejaVuSans-7a" d="M 353 3500 
L 3084 3500 
L 3084 2975 
L 922 459 
L 3084 459 
L 3084 0 
L 275 0 
L 275 525 
L 2438 3041 
L 353 3041 
L 353 3500 
z
" transform="scale(0.015625)"/>
     </defs>
     <use xlink:href="#DejaVuSans-6d"/>
     <use xlink:href="#DejaVuSans-61" x="97.412109"/>
     <use xlink:href="#DejaVuSans-6c" x="158.691406"/>
     <use xlink:href="#DejaVuSans-75" x="186.474609"/>
     <use xlink:href="#DejaVuSans-73" x="249.853516"/>
     <use xlink:href="#DejaVuSans-20" x="301.953125"/>
     <use xlink:href="#DejaVuSans-6c" x="333.740234"/>
     <use xlink:href="#DejaVuSans-61" x="361.523438"/>
     <use xlink:href="#DejaVuSans-77" x="422.802734"/>
     <use xlink:href="#DejaVuSans-20" x="504.589844"/>
     <use xlink:href="#DejaVuSans-33" x="536.376953"/>
     <use xlink:href="#DejaVuSans-20" x="600"/>
     <use xlink:href="#DejaVuSans-70" x="631.787109"/>
     <use xlink:href="#DejaVuSans-6f" x="695.263672"/>
     <use xlink:href="#DejaVuSans-6c" x="756.445312"/>
     <use xlink:href="#DejaVuSans-61" x="784.228516"/>
     <use xlink:href="#DejaVuSans-72" x="845.507812"/>
     <use xlink:href="#DejaVuSans-69" x="886.621094"/>
     <use xlink:href="#DejaVuSans-7a" x="914.404297"/>
     <use xlink:href="#DejaVuSans-65" x="966.894531"/>
     <use xlink:href="#DejaVuSans-72" x="1028.417969"/>
     <use xlink:href="#DejaVuSans-73" x="1069.53125"/>
    </g>
   </g>
  </g>
 </g>
 <defs>
  <clipPath id="p7922a9759b">
   <rect x="57.6" y="41.472" width="357.12" height="266.112"/>
  </clipPath>
 </defs>
</svg>
