<?xml version="1.0" encoding="utf-8" standalone="no"?>
<!DOCTYPE svg PUBLIC "-//W3C//DTD SVG 1.1//EN"
  "http://www.w3.org/Graphics/SVG/1.1/DTD/svg11.dtd">
<svg xmlns:xlink="http://www.w3.org/1999/xlink" width="460.8pt" height="345.6pt" viewBox="0 0 460.8 345.6" xmlns="http://www.w3.org/2000/svg" version="1.1">
 <metadata>
  <rdf:RDF xmlns:dc="http://purl.org/dc/elements/1.1/" xmlns:cc="http://creativecommons.org/ns#" xmlns:rdf="http://www.w3.org/1999/02/22-rdf-syntax-ns#">
   <cc:Work>
    <dc:type rdf:resource="http://purl.org/dc/dcmitype/StillImage"/>
    <dc:date>2022-12-28T18:12:52.828059</dc:date>
    <dc:format>image/svg+xml</dc:format>
    <dc:creator>
     <cc:Agent>
      <dc:title>Matplotlib v3.6.2, https://matplotlib.org/</dc:title>
     </cc:Agent>
    </dc:creator>
   </cc:Work>
  </rdf:RDF>
 </metadata>
 <defs>
  <style type="text/css">*{stroke-linejoin: round; stroke-linecap: butt}</style>
 </defs>
 <g id="figure_1">
  <g id="patch_1">
   <path d="M 0 345.6 
L 460.8 345.6 
L 460.8 0 
L 0 0 
z
" style="fill: #ffffff"/>
  </g>
  <g id="axes_1">
   <g id="patch_2">
    <path d="M 369.216 174.528 
C 369.216 157.055246 365.774248 139.752393 359.087715 123.609673 
C 352.401182 107.466954 342.599903 92.798303 330.2448 80.4432 
C 317.889697 68.088097 303.221046 58.286818 287.078327 51.600285 
C 270.935607 44.913752 253.632754 41.472 236.16 41.472 
C 218.687246 41.472 201.384393 44.913752 185.241673 51.600285 
C 169.098954 58.286818 154.430303 68.088097 142.0752 80.4432 
C 129.720097 92.798303 119.918818 107.466954 113.232285 123.609673 
C 106.545752 139.752393 103.104 157.055246 103.104 174.528 
C 103.104 192.000754 106.545752 209.303607 113.232285 225.446327 
C 119.918818 241.589046 129.720097 256.257697 142.0752 268.6128 
C 154.430303 280.967903 169.098954 290.769182 185.241673 297.455715 
C 201.384393 304.142248 218.687246 307.584 236.16 307.584 
C 253.632754 307.584 270.935607 304.142248 287.078327 297.455715 
C 303.221046 290.769182 317.889697 280.967903 330.2448 268.6128 
C 342.599903 256.257697 352.401182 241.589046 359.087715 225.446327 
C 365.774248 209.303607 369.216 192.000754 369.216 174.528 
M 236.16 174.528 
C 236.16 174.528 236.16 174.528 236.16 174.528 
C 236.16 174.528 236.16 174.528 236.16 174.528 
C 236.16 174.528 236.16 174.528 236.16 174.528 
C 236.16 174.528 236.16 174.528 236.16 174.528 
C 236.16 174.528 236.16 174.528 236.16 174.528 
C 236.16 174.528 236.16 174.528 236.16 174.528 
C 236.16 174.528 236.16 174.528 236.16 174.528 
C 236.16 174.528 236.16 174.528 236.16 174.528 
C 236.16 174.528 236.16 174.528 236.16 174.528 
C 236.16 174.528 236.16 174.528 236.16 174.528 
C 236.16 174.528 236.16 174.528 236.16 174.528 
C 236.16 174.528 236.16 174.528 236.16 174.528 
C 236.16 174.528 236.16 174.528 236.16 174.528 
C 236.16 174.528 236.16 174.528 236.16 174.528 
C 236.16 174.528 236.16 174.528 236.16 174.528 
C 236.16 174.528 236.16 174.528 236.16 174.528 
M 369.216 174.528 
z
" style="fill: #ffffff"/>
   </g>
   <g id="matplotlib.axis_1">
    <g id="xtick_1">
     <g id="line2d_1">
      <path d="M 236.16 174.528 
L 369.216 174.528 
" clip-path="url(#p62e96cbe81)" style="fill: none; stroke: #b0b0b0; stroke-width: 0.8; stroke-linecap: square"/>
     </g>
     <g id="text_1">
      <!-- 0° -->
      <g transform="translate(377.53475 177.287375) scale(0.1 -0.1)">
       <defs>
        <path id="DejaVuSans-30" d="M 2034 4250 
Q 1547 4250 1301 3770 
Q 1056 3291 1056 2328 
Q 1056 1369 1301 889 
Q 1547 409 2034 409 
Q 2525 409 2770 889 
Q 3016 1369 3016 2328 
Q 3016 3291 2770 3770 
Q 2525 4250 2034 4250 
z
M 2034 4750 
Q 2819 4750 3233 4129 
Q 3647 3509 3647 2328 
Q 3647 1150 3233 529 
Q 2819 -91 2034 -91 
Q 1250 -91 836 529 
Q 422 1150 422 2328 
Q 422 3509 836 4129 
Q 1250 4750 2034 4750 
z
" transform="scale(0.015625)"/>
        <path id="DejaVuSans-b0" d="M 1600 4347 
Q 1350 4347 1178 4173 
Q 1006 4000 1006 3750 
Q 1006 3503 1178 3333 
Q 1350 3163 1600 3163 
Q 1850 3163 2022 3333 
Q 2194 3503 2194 3750 
Q 2194 3997 2020 4172 
Q 1847 4347 1600 4347 
z
M 1600 4750 
Q 1800 4750 1984 4673 
Q 2169 4597 2303 4453 
Q 2447 4313 2519 4134 
Q 2591 3956 2591 3750 
Q 2591 3338 2302 3052 
Q 2013 2766 1594 2766 
Q 1172 2766 890 3047 
Q 609 3328 609 3750 
Q 609 4169 896 4459 
Q 1184 4750 1600 4750 
z
" transform="scale(0.015625)"/>
       </defs>
       <use xlink:href="#DejaVuSans-30"/>
       <use xlink:href="#DejaVuSans-b0" x="63.623047"/>
      </g>
     </g>
    </g>
    <g id="xtick_2">
     <g id="line2d_2">
      <path d="M 236.16 174.528 
L 330.2448 80.4432 
" clip-path="url(#p62e96cbe81)" style="fill: none; stroke: #b0b0b0; stroke-width: 0.8; stroke-linecap: square"/>
     </g>
     <g id="text_2">
      <!-- 45° -->
      <g transform="translate(331.281795 73.30308) scale(0.1 -0.1)">
       <defs>
        <path id="DejaVuSans-34" d="M 2419 4116 
L 825 1625 
L 2419 1625 
L 2419 4116 
z
M 2253 4666 
L 3047 4666 
L 3047 1625 
L 3713 1625 
L 3713 1100 
L 3047 1100 
L 3047 0 
L 2419 0 
L 2419 1100 
L 313 1100 
L 313 1709 
L 2253 4666 
z
" transform="scale(0.015625)"/>
        <path id="DejaVuSans-35" d="M 691 4666 
L 3169 4666 
L 3169 4134 
L 1269 4134 
L 1269 2991 
Q 1406 3038 1543 3061 
Q 1681 3084 1819 3084 
Q 2600 3084 3056 2656 
Q 3513 2228 3513 1497 
Q 3513 744 3044 326 
Q 2575 -91 1722 -91 
Q 1428 -91 1123 -41 
Q 819 9 494 109 
L 494 744 
Q 775 591 1075 516 
Q 1375 441 1709 441 
Q 2250 441 2565 725 
Q 2881 1009 2881 1497 
Q 2881 1984 2565 2268 
Q 2250 2553 1709 2553 
Q 1456 2553 1204 2497 
Q 953 2441 691 2322 
L 691 4666 
z
" transform="scale(0.015625)"/>
       </defs>
       <use xlink:href="#DejaVuSans-34"/>
       <use xlink:href="#DejaVuSans-35" x="63.623047"/>
       <use xlink:href="#DejaVuSans-b0" x="127.246094"/>
      </g>
     </g>
    </g>
    <g id="xtick_3">
     <g id="line2d_3">
      <path d="M 236.16 174.528 
L 236.16 41.472 
" clip-path="url(#p62e96cbe81)" style="fill: none; stroke: #b0b0b0; stroke-width: 0.8; stroke-linecap: square"/>
     </g>
     <g id="text_3">
      <!-- 90° -->
      <g transform="translate(227.2975 30.231375) scale(0.1 -0.1)">
       <defs>
        <path id="DejaVuSans-39" d="M 703 97 
L 703 672 
Q 941 559 1184 500 
Q 1428 441 1663 441 
Q 2288 441 2617 861 
Q 2947 1281 2994 2138 
Q 2813 1869 2534 1725 
Q 2256 1581 1919 1581 
Q 1219 1581 811 2004 
Q 403 2428 403 3163 
Q 403 3881 828 4315 
Q 1253 4750 1959 4750 
Q 2769 4750 3195 4129 
Q 3622 3509 3622 2328 
Q 3622 1225 3098 567 
Q 2575 -91 1691 -91 
Q 1453 -91 1209 -44 
Q 966 3 703 97 
z
M 1959 2075 
Q 2384 2075 2632 2365 
Q 2881 2656 2881 3163 
Q 2881 3666 2632 3958 
Q 2384 4250 1959 4250 
Q 1534 4250 1286 3958 
Q 1038 3666 1038 3163 
Q 1038 2656 1286 2365 
Q 1534 2075 1959 2075 
z
" transform="scale(0.015625)"/>
       </defs>
       <use xlink:href="#DejaVuSans-39"/>
       <use xlink:href="#DejaVuSans-30" x="63.623047"/>
       <use xlink:href="#DejaVuSans-b0" x="127.246094"/>
      </g>
     </g>
    </g>
    <g id="xtick_4">
     <g id="line2d_4">
      <path d="M 236.16 174.528 
L 142.0752 80.4432 
" clip-path="url(#p62e96cbe81)" style="fill: none; stroke: #b0b0b0; stroke-width: 0.8; stroke-linecap: square"/>
     </g>
     <g id="text_4">
      <!-- 135° -->
      <g transform="translate(120.131955 73.30308) scale(0.1 -0.1)">
       <defs>
        <path id="DejaVuSans-31" d="M 794 531 
L 1825 531 
L 1825 4091 
L 703 3866 
L 703 4441 
L 1819 4666 
L 2450 4666 
L 2450 531 
L 3481 531 
L 3481 0 
L 794 0 
L 794 531 
z
" transform="scale(0.015625)"/>
        <path id="DejaVuSans-33" d="M 2597 2516 
Q 3050 2419 3304 2112 
Q 3559 1806 3559 1356 
Q 3559 666 3084 287 
Q 2609 -91 1734 -91 
Q 1441 -91 1130 -33 
Q 819 25 488 141 
L 488 750 
Q 750 597 1062 519 
Q 1375 441 1716 441 
Q 2309 441 2620 675 
Q 2931 909 2931 1356 
Q 2931 1769 2642 2001 
Q 2353 2234 1838 2234 
L 1294 2234 
L 1294 2753 
L 1863 2753 
Q 2328 2753 2575 2939 
Q 2822 3125 2822 3475 
Q 2822 3834 2567 4026 
Q 2313 4219 1838 4219 
Q 1578 4219 1281 4162 
Q 984 4106 628 3988 
L 628 4550 
Q 988 4650 1302 4700 
Q 1616 4750 1894 4750 
Q 2613 4750 3031 4423 
Q 3450 4097 3450 3541 
Q 3450 3153 3228 2886 
Q 3006 2619 2597 2516 
z
" transform="scale(0.015625)"/>
       </defs>
       <use xlink:href="#DejaVuSans-31"/>
       <use xlink:href="#DejaVuSans-33" x="63.623047"/>
       <use xlink:href="#DejaVuSans-35" x="127.246094"/>
       <use xlink:href="#DejaVuSans-b0" x="190.869141"/>
      </g>
     </g>
    </g>
    <g id="xtick_5">
     <g id="line2d_5">
      <path d="M 236.16 174.528 
L 103.104 174.528 
" clip-path="url(#p62e96cbe81)" style="fill: none; stroke: #b0b0b0; stroke-width: 0.8; stroke-linecap: square"/>
     </g>
     <g id="text_5">
      <!-- 180° -->
      <g transform="translate(77.06025 177.287375) scale(0.1 -0.1)">
       <defs>
        <path id="DejaVuSans-38" d="M 2034 2216 
Q 1584 2216 1326 1975 
Q 1069 1734 1069 1313 
Q 1069 891 1326 650 
Q 1584 409 2034 409 
Q 2484 409 2743 651 
Q 3003 894 3003 1313 
Q 3003 1734 2745 1975 
Q 2488 2216 2034 2216 
z
M 1403 2484 
Q 997 2584 770 2862 
Q 544 3141 544 3541 
Q 544 4100 942 4425 
Q 1341 4750 2034 4750 
Q 2731 4750 3128 4425 
Q 3525 4100 3525 3541 
Q 3525 3141 3298 2862 
Q 3072 2584 2669 2484 
Q 3125 2378 3379 2068 
Q 3634 1759 3634 1313 
Q 3634 634 3220 271 
Q 2806 -91 2034 -91 
Q 1263 -91 848 271 
Q 434 634 434 1313 
Q 434 1759 690 2068 
Q 947 2378 1403 2484 
z
M 1172 3481 
Q 1172 3119 1398 2916 
Q 1625 2713 2034 2713 
Q 2441 2713 2670 2916 
Q 2900 3119 2900 3481 
Q 2900 3844 2670 4047 
Q 2441 4250 2034 4250 
Q 1625 4250 1398 4047 
Q 1172 3844 1172 3481 
z
" transform="scale(0.015625)"/>
       </defs>
       <use xlink:href="#DejaVuSans-31"/>
       <use xlink:href="#DejaVuSans-38" x="63.623047"/>
       <use xlink:href="#DejaVuSans-30" x="127.246094"/>
       <use xlink:href="#DejaVuSans-b0" x="190.869141"/>
      </g>
     </g>
    </g>
    <g id="xtick_6">
     <g id="line2d_6">
      <path d="M 236.16 174.528 
L 142.0752 268.6128 
" clip-path="url(#p62e96cbe81)" style="fill: none; stroke: #b0b0b0; stroke-width: 0.8; stroke-linecap: square"/>
     </g>
     <g id="text_6">
      <!-- 225° -->
      <g transform="translate(120.131955 281.27167) scale(0.1 -0.1)">
       <defs>
        <path id="DejaVuSans-32" d="M 1228 531 
L 3431 531 
L 3431 0 
L 469 0 
L 469 531 
Q 828 903 1448 1529 
Q 2069 2156 2228 2338 
Q 2531 2678 2651 2914 
Q 2772 3150 2772 3378 
Q 2772 3750 2511 3984 
Q 2250 4219 1831 4219 
Q 1534 4219 1204 4116 
Q 875 4013 500 3803 
L 500 4441 
Q 881 4594 1212 4672 
Q 1544 4750 1819 4750 
Q 2544 4750 2975 4387 
Q 3406 4025 3406 3419 
Q 3406 3131 3298 2873 
Q 3191 2616 2906 2266 
Q 2828 2175 2409 1742 
Q 1991 1309 1228 531 
z
" transform="scale(0.015625)"/>
       </defs>
       <use xlink:href="#DejaVuSans-32"/>
       <use xlink:href="#DejaVuSans-32" x="63.623047"/>
       <use xlink:href="#DejaVuSans-35" x="127.246094"/>
       <use xlink:href="#DejaVuSans-b0" x="190.869141"/>
      </g>
     </g>
    </g>
    <g id="xtick_7">
     <g id="line2d_7">
      <path d="M 236.16 174.528 
L 236.16 307.584 
" clip-path="url(#p62e96cbe81)" style="fill: none; stroke: #b0b0b0; stroke-width: 0.8; stroke-linecap: square"/>
     </g>
     <g id="text_7">
      <!-- 270° -->
      <g transform="translate(224.11625 324.343375) scale(0.1 -0.1)">
       <defs>
        <path id="DejaVuSans-37" d="M 525 4666 
L 3525 4666 
L 3525 4397 
L 1831 0 
L 1172 0 
L 2766 4134 
L 525 4134 
L 525 4666 
z
" transform="scale(0.015625)"/>
       </defs>
       <use xlink:href="#DejaVuSans-32"/>
       <use xlink:href="#DejaVuSans-37" x="63.623047"/>
       <use xlink:href="#DejaVuSans-30" x="127.246094"/>
       <use xlink:href="#DejaVuSans-b0" x="190.869141"/>
      </g>
     </g>
    </g>
    <g id="xtick_8">
     <g id="line2d_8">
      <path d="M 236.16 174.528 
L 330.2448 268.6128 
" clip-path="url(#p62e96cbe81)" style="fill: none; stroke: #b0b0b0; stroke-width: 0.8; stroke-linecap: square"/>
     </g>
     <g id="text_8">
      <!-- 315° -->
      <g transform="translate(328.100545 281.27167) scale(0.1 -0.1)">
       <use xlink:href="#DejaVuSans-33"/>
       <use xlink:href="#DejaVuSans-31" x="63.623047"/>
       <use xlink:href="#DejaVuSans-35" x="127.246094"/>
       <use xlink:href="#DejaVuSans-b0" x="190.869141"/>
      </g>
     </g>
    </g>
    <g id="text_9">
     <!-- angle [deg] -->
     <g transform="translate(207.371719 338.0215) scale(0.1 -0.1)">
      <defs>
       <path id="DejaVuSans-61" d="M 2194 1759 
Q 1497 1759 1228 1600 
Q 959 1441 959 1056 
Q 959 750 1161 570 
Q 1363 391 1709 391 
Q 2188 391 2477 730 
Q 2766 1069 2766 1631 
L 2766 1759 
L 2194 1759 
z
M 3341 1997 
L 3341 0 
L 2766 0 
L 2766 531 
Q 2569 213 2275 61 
Q 1981 -91 1556 -91 
Q 1019 -91 701 211 
Q 384 513 384 1019 
Q 384 1609 779 1909 
Q 1175 2209 1959 2209 
L 2766 2209 
L 2766 2266 
Q 2766 2663 2505 2880 
Q 2244 3097 1772 3097 
Q 1472 3097 1187 3025 
Q 903 2953 641 2809 
L 641 3341 
Q 956 3463 1253 3523 
Q 1550 3584 1831 3584 
Q 2591 3584 2966 3190 
Q 3341 2797 3341 1997 
z
" transform="scale(0.015625)"/>
       <path id="DejaVuSans-6e" d="M 3513 2113 
L 3513 0 
L 2938 0 
L 2938 2094 
Q 2938 2591 2744 2837 
Q 2550 3084 2163 3084 
Q 1697 3084 1428 2787 
Q 1159 2491 1159 1978 
L 1159 0 
L 581 0 
L 581 3500 
L 1159 3500 
L 1159 2956 
Q 1366 3272 1645 3428 
Q 1925 3584 2291 3584 
Q 2894 3584 3203 3211 
Q 3513 2838 3513 2113 
z
" transform="scale(0.015625)"/>
       <path id="DejaVuSans-67" d="M 2906 1791 
Q 2906 2416 2648 2759 
Q 2391 3103 1925 3103 
Q 1463 3103 1205 2759 
Q 947 2416 947 1791 
Q 947 1169 1205 825 
Q 1463 481 1925 481 
Q 2391 481 2648 825 
Q 2906 1169 2906 1791 
z
M 3481 434 
Q 3481 -459 3084 -895 
Q 2688 -1331 1869 -1331 
Q 1566 -1331 1297 -1286 
Q 1028 -1241 775 -1147 
L 775 -588 
Q 1028 -725 1275 -790 
Q 1522 -856 1778 -856 
Q 2344 -856 2625 -561 
Q 2906 -266 2906 331 
L 2906 616 
Q 2728 306 2450 153 
Q 2172 0 1784 0 
Q 1141 0 747 490 
Q 353 981 353 1791 
Q 353 2603 747 3093 
Q 1141 3584 1784 3584 
Q 2172 3584 2450 3431 
Q 2728 3278 2906 2969 
L 2906 3500 
L 3481 3500 
L 3481 434 
z
" transform="scale(0.015625)"/>
       <path id="DejaVuSans-6c" d="M 603 4863 
L 1178 4863 
L 1178 0 
L 603 0 
L 603 4863 
z
" transform="scale(0.015625)"/>
       <path id="DejaVuSans-65" d="M 3597 1894 
L 3597 1613 
L 953 1613 
Q 991 1019 1311 708 
Q 1631 397 2203 397 
Q 2534 397 2845 478 
Q 3156 559 3463 722 
L 3463 178 
Q 3153 47 2828 -22 
Q 2503 -91 2169 -91 
Q 1331 -91 842 396 
Q 353 884 353 1716 
Q 353 2575 817 3079 
Q 1281 3584 2069 3584 
Q 2775 3584 3186 3129 
Q 3597 2675 3597 1894 
z
M 3022 2063 
Q 3016 2534 2758 2815 
Q 2500 3097 2075 3097 
Q 1594 3097 1305 2825 
Q 1016 2553 972 2059 
L 3022 2063 
z
" transform="scale(0.015625)"/>
       <path id="DejaVuSans-20" transform="scale(0.015625)"/>
       <path id="DejaVuSans-5b" d="M 550 4863 
L 1875 4863 
L 1875 4416 
L 1125 4416 
L 1125 -397 
L 1875 -397 
L 1875 -844 
L 550 -844 
L 550 4863 
z
" transform="scale(0.015625)"/>
       <path id="DejaVuSans-64" d="M 2906 2969 
L 2906 4863 
L 3481 4863 
L 3481 0 
L 2906 0 
L 2906 525 
Q 2725 213 2448 61 
Q 2172 -91 1784 -91 
Q 1150 -91 751 415 
Q 353 922 353 1747 
Q 353 2572 751 3078 
Q 1150 3584 1784 3584 
Q 2172 3584 2448 3432 
Q 2725 3281 2906 2969 
z
M 947 1747 
Q 947 1113 1208 752 
Q 1469 391 1925 391 
Q 2381 391 2643 752 
Q 2906 1113 2906 1747 
Q 2906 2381 2643 2742 
Q 2381 3103 1925 3103 
Q 1469 3103 1208 2742 
Q 947 2381 947 1747 
z
" transform="scale(0.015625)"/>
       <path id="DejaVuSans-5d" d="M 1947 4863 
L 1947 -844 
L 622 -844 
L 622 -397 
L 1369 -397 
L 1369 4416 
L 622 4416 
L 622 4863 
L 1947 4863 
z
" transform="scale(0.015625)"/>
      </defs>
      <use xlink:href="#DejaVuSans-61"/>
      <use xlink:href="#DejaVuSans-6e" x="61.279297"/>
      <use xlink:href="#DejaVuSans-67" x="124.658203"/>
      <use xlink:href="#DejaVuSans-6c" x="188.134766"/>
      <use xlink:href="#DejaVuSans-65" x="215.917969"/>
      <use xlink:href="#DejaVuSans-20" x="277.441406"/>
      <use xlink:href="#DejaVuSans-5b" x="309.228516"/>
      <use xlink:href="#DejaVuSans-64" x="348.242188"/>
      <use xlink:href="#DejaVuSans-65" x="411.71875"/>
      <use xlink:href="#DejaVuSans-67" x="473.242188"/>
      <use xlink:href="#DejaVuSans-5d" x="536.71875"/>
     </g>
    </g>
   </g>
   <g id="matplotlib.axis_2">
    <g id="ytick_1">
     <g id="line2d_9">
      <path d="M 251.076903 174.528 
C 251.076903 172.56913 250.691048 170.629308 249.941421 168.819548 
C 249.191794 167.009789 248.092973 165.365287 246.707843 163.980157 
C 245.322713 162.595027 243.678211 161.496206 241.868452 160.746579 
C 240.058692 159.996952 238.11887 159.611097 236.16 159.611097 
C 234.20113 159.611097 232.261308 159.996952 230.451548 160.746579 
C 228.641789 161.496206 226.997287 162.595027 225.612157 163.980157 
C 224.227027 165.365287 223.128206 167.009789 222.378579 168.819548 
C 221.628952 170.629308 221.243097 172.56913 221.243097 174.528 
C 221.243097 176.48687 221.628952 178.426692 222.378579 180.236452 
C 223.128206 182.046211 224.227027 183.690713 225.612157 185.075843 
C 226.997287 186.460973 228.641789 187.559794 230.451548 188.309421 
C 232.261308 189.059048 234.20113 189.444903 236.16 189.444903 
C 238.11887 189.444903 240.058692 189.059048 241.868452 188.309421 
C 243.678211 187.559794 245.322713 186.460973 246.707843 185.075843 
C 248.092973 183.690713 249.191794 182.046211 249.941421 180.236452 
C 250.691048 178.426692 251.076903 176.48687 251.076903 174.528 
" clip-path="url(#p62e96cbe81)" style="fill: none; stroke: #b0b0b0; stroke-width: 0.8; stroke-linecap: square"/>
     </g>
     <g id="text_10">
      <!-- 20 -->
      <g transform="translate(249.941421 178.156764) scale(0.1 -0.1)">
       <use xlink:href="#DejaVuSans-32"/>
       <use xlink:href="#DejaVuSans-30" x="63.623047"/>
      </g>
     </g>
    </g>
    <g id="ytick_2">
     <g id="line2d_10">
      <path d="M 265.993806 174.528 
C 265.993806 170.61026 265.222097 166.730616 263.722843 163.111097 
C 262.223589 159.491577 260.025947 156.202574 257.255687 153.432313 
C 254.485426 150.662053 251.196423 148.464411 247.576903 146.965157 
C 243.957384 145.465903 240.07774 144.694194 236.16 144.694194 
C 232.24226 144.694194 228.362616 145.465903 224.743097 146.965157 
C 221.123577 148.464411 217.834574 150.662053 215.064313 153.432313 
C 212.294053 156.202574 210.096411 159.491577 208.597157 163.111097 
C 207.097903 166.730616 206.326194 170.61026 206.326194 174.528 
C 206.326194 178.44574 207.097903 182.325384 208.597157 185.944903 
C 210.096411 189.564423 212.294053 192.853426 215.064313 195.623687 
C 217.834574 198.393947 221.123577 200.591589 224.743097 202.090843 
C 228.362616 203.590097 232.24226 204.361806 236.16 204.361806 
C 240.07774 204.361806 243.957384 203.590097 247.576903 202.090843 
C 251.196423 200.591589 254.485426 198.393947 257.255687 195.623687 
C 260.025947 192.853426 262.223589 189.564423 263.722843 185.944903 
C 265.222097 182.325384 265.993806 178.44574 265.993806 174.528 
" clip-path="url(#p62e96cbe81)" style="fill: none; stroke: #b0b0b0; stroke-width: 0.8; stroke-linecap: square"/>
     </g>
     <g id="text_11">
      <!-- 40 -->
      <g transform="translate(263.722843 183.865216) scale(0.1 -0.1)">
       <use xlink:href="#DejaVuSans-34"/>
       <use xlink:href="#DejaVuSans-30" x="63.623047"/>
      </g>
     </g>
    </g>
    <g id="ytick_3">
     <g id="line2d_11">
      <path d="M 280.910709 174.528 
C 280.910709 168.651391 279.753145 162.831924 277.504264 157.402645 
C 275.255383 151.973366 271.95892 147.03986 267.80353 142.88447 
C 263.64814 138.72908 258.714634 135.432617 253.285355 133.183736 
C 247.856076 130.934855 242.036609 129.777291 236.16 129.777291 
C 230.283391 129.777291 224.463924 130.934855 219.034645 133.183736 
C 213.605366 135.432617 208.67186 138.72908 204.51647 142.88447 
C 200.36108 147.03986 197.064617 151.973366 194.815736 157.402645 
C 192.566855 162.831924 191.409291 168.651391 191.409291 174.528 
C 191.409291 180.404609 192.566855 186.224076 194.815736 191.653355 
C 197.064617 197.082634 200.36108 202.01614 204.51647 206.17153 
C 208.67186 210.32692 213.605366 213.623383 219.034645 215.872264 
C 224.463924 218.121145 230.283391 219.278709 236.16 219.278709 
C 242.036609 219.278709 247.856076 218.121145 253.285355 215.872264 
C 258.714634 213.623383 263.64814 210.32692 267.80353 206.17153 
C 271.95892 202.01614 275.255383 197.082634 277.504264 191.653355 
C 279.753145 186.224076 280.910709 180.404609 280.910709 174.528 
" clip-path="url(#p62e96cbe81)" style="fill: none; stroke: #b0b0b0; stroke-width: 0.8; stroke-linecap: square"/>
     </g>
     <g id="text_12">
      <!-- 60 -->
      <g transform="translate(277.504264 189.573667) scale(0.1 -0.1)">
       <defs>
        <path id="DejaVuSans-36" d="M 2113 2584 
Q 1688 2584 1439 2293 
Q 1191 2003 1191 1497 
Q 1191 994 1439 701 
Q 1688 409 2113 409 
Q 2538 409 2786 701 
Q 3034 994 3034 1497 
Q 3034 2003 2786 2293 
Q 2538 2584 2113 2584 
z
M 3366 4563 
L 3366 3988 
Q 3128 4100 2886 4159 
Q 2644 4219 2406 4219 
Q 1781 4219 1451 3797 
Q 1122 3375 1075 2522 
Q 1259 2794 1537 2939 
Q 1816 3084 2150 3084 
Q 2853 3084 3261 2657 
Q 3669 2231 3669 1497 
Q 3669 778 3244 343 
Q 2819 -91 2113 -91 
Q 1303 -91 875 529 
Q 447 1150 447 2328 
Q 447 3434 972 4092 
Q 1497 4750 2381 4750 
Q 2619 4750 2861 4703 
Q 3103 4656 3366 4563 
z
" transform="scale(0.015625)"/>
       </defs>
       <use xlink:href="#DejaVuSans-36"/>
       <use xlink:href="#DejaVuSans-30" x="63.623047"/>
      </g>
     </g>
    </g>
    <g id="ytick_4">
     <g id="line2d_12">
      <path d="M 295.827612 174.528 
C 295.827612 166.692521 294.284194 158.933232 291.285686 151.694193 
C 288.287178 144.455155 283.891894 137.877147 278.351373 132.336627 
C 272.810853 126.796106 266.232845 122.400822 258.993807 119.402314 
C 251.754768 116.403806 243.995479 114.860388 236.16 114.860388 
C 228.324521 114.860388 220.565232 116.403806 213.326193 119.402314 
C 206.087155 122.400822 199.509147 126.796106 193.968627 132.336627 
C 188.428106 137.877147 184.032822 144.455155 181.034314 151.694193 
C 178.035806 158.933232 176.492388 166.692521 176.492388 174.528 
C 176.492388 182.363479 178.035806 190.122768 181.034314 197.361807 
C 184.032822 204.600845 188.428106 211.178853 193.968627 216.719373 
C 199.509147 222.259894 206.087155 226.655178 213.326193 229.653686 
C 220.565232 232.652194 228.324521 234.195612 236.16 234.195612 
C 243.995479 234.195612 251.754768 232.652194 258.993807 229.653686 
C 266.232845 226.655178 272.810853 222.259894 278.351373 216.719373 
C 283.891894 211.178853 288.287178 204.600845 291.285686 197.361807 
C 294.284194 190.122768 295.827612 182.363479 295.827612 174.528 
" clip-path="url(#p62e96cbe81)" style="fill: none; stroke: #b0b0b0; stroke-width: 0.8; stroke-linecap: square"/>
     </g>
     <g id="text_13">
      <!-- 80 -->
      <g transform="translate(291.285686 195.282119) scale(0.1 -0.1)">
       <use xlink:href="#DejaVuSans-38"/>
       <use xlink:href="#DejaVuSans-30" x="63.623047"/>
      </g>
     </g>
    </g>
    <g id="ytick_5">
     <g id="line2d_13">
      <path d="M 310.744515 174.528 
C 310.744515 164.733651 308.815242 155.03454 305.067107 145.985742 
C 301.318972 136.936943 295.824867 128.714434 288.899216 121.788784 
C 281.973566 114.863133 273.751057 109.369028 264.702258 105.620893 
C 255.65346 101.872758 245.954349 99.943485 236.16 99.943485 
C 226.365651 99.943485 216.66654 101.872758 207.617742 105.620893 
C 198.568943 109.369028 190.346434 114.863133 183.420784 121.788784 
C 176.495133 128.714434 171.001028 136.936943 167.252893 145.985742 
C 163.504758 155.03454 161.575485 164.733651 161.575485 174.528 
C 161.575485 184.322349 163.504758 194.02146 167.252893 203.070258 
C 171.001028 212.119057 176.495133 220.341566 183.420784 227.267216 
C 190.346434 234.192867 198.568943 239.686972 207.617742 243.435107 
C 216.66654 247.183242 226.365651 249.112515 236.16 249.112515 
C 245.954349 249.112515 255.65346 247.183242 264.702258 243.435107 
C 273.751057 239.686972 281.973566 234.192867 288.899216 227.267216 
C 295.824867 220.341566 301.318972 212.119057 305.067107 203.070258 
C 308.815242 194.02146 310.744515 184.322349 310.744515 174.528 
" clip-path="url(#p62e96cbe81)" style="fill: none; stroke: #b0b0b0; stroke-width: 0.8; stroke-linecap: square"/>
     </g>
     <g id="text_14">
      <!-- 100 -->
      <g transform="translate(305.067107 200.990571) scale(0.1 -0.1)">
       <use xlink:href="#DejaVuSans-31"/>
       <use xlink:href="#DejaVuSans-30" x="63.623047"/>
       <use xlink:href="#DejaVuSans-30" x="127.246094"/>
      </g>
     </g>
    </g>
    <g id="ytick_6">
     <g id="line2d_14">
      <path d="M 325.661418 174.528 
C 325.661418 162.774781 323.34629 151.135848 318.848528 140.27729 
C 314.350766 129.418732 307.75784 119.551721 299.44706 111.24094 
C 291.136279 102.93016 281.269268 96.337234 270.41071 91.839472 
C 259.552152 87.34171 247.913219 85.026582 236.16 85.026582 
C 224.406781 85.026582 212.767848 87.34171 201.90929 91.839472 
C 191.050732 96.337234 181.183721 102.93016 172.87294 111.24094 
C 164.56216 119.551721 157.969234 129.418732 153.471472 140.27729 
C 148.97371 151.135848 146.658582 162.774781 146.658582 174.528 
C 146.658582 186.281219 148.97371 197.920152 153.471472 208.77871 
C 157.969234 219.637268 164.56216 229.504279 172.87294 237.81506 
C 181.183721 246.12584 191.050732 252.718766 201.90929 257.216528 
C 212.767848 261.71429 224.406781 264.029418 236.16 264.029418 
C 247.913219 264.029418 259.552152 261.71429 270.41071 257.216528 
C 281.269268 252.718766 291.136279 246.12584 299.44706 237.81506 
C 307.75784 229.504279 314.350766 219.637268 318.848528 208.77871 
C 323.34629 197.920152 325.661418 186.281219 325.661418 174.528 
" clip-path="url(#p62e96cbe81)" style="fill: none; stroke: #b0b0b0; stroke-width: 0.8; stroke-linecap: square"/>
     </g>
     <g id="text_15">
      <!-- 120 -->
      <g transform="translate(318.848528 206.699022) scale(0.1 -0.1)">
       <use xlink:href="#DejaVuSans-31"/>
       <use xlink:href="#DejaVuSans-32" x="63.623047"/>
       <use xlink:href="#DejaVuSans-30" x="127.246094"/>
      </g>
     </g>
    </g>
    <g id="ytick_7">
     <g id="line2d_15">
      <path d="M 340.578321 174.528 
C 340.578321 160.815912 337.877339 147.237156 332.62995 134.568838 
C 327.382561 121.900521 319.690814 110.389008 309.994903 100.693097 
C 300.298992 90.997186 288.787479 83.305439 276.119162 78.05805 
C 263.450844 72.810661 249.872088 70.109679 236.16 70.109679 
C 222.447912 70.109679 208.869156 72.810661 196.200838 78.05805 
C 183.532521 83.305439 172.021008 90.997186 162.325097 100.693097 
C 152.629186 110.389008 144.937439 121.900521 139.69005 134.568838 
C 134.442661 147.237156 131.741679 160.815912 131.741679 174.528 
C 131.741679 188.240088 134.442661 201.818844 139.69005 214.487162 
C 144.937439 227.155479 152.629186 238.666992 162.325097 248.362903 
C 172.021008 258.058814 183.532521 265.750561 196.200838 270.99795 
C 208.869156 276.245339 222.447912 278.946321 236.16 278.946321 
C 249.872088 278.946321 263.450844 276.245339 276.119162 270.99795 
C 288.787479 265.750561 300.298992 258.058814 309.994903 248.362903 
C 319.690814 238.666992 327.382561 227.155479 332.62995 214.487162 
C 337.877339 201.818844 340.578321 188.240088 340.578321 174.528 
" clip-path="url(#p62e96cbe81)" style="fill: none; stroke: #b0b0b0; stroke-width: 0.8; stroke-linecap: square"/>
     </g>
     <g id="text_16">
      <!-- 140 -->
      <g transform="translate(332.62995 212.407474) scale(0.1 -0.1)">
       <use xlink:href="#DejaVuSans-31"/>
       <use xlink:href="#DejaVuSans-34" x="63.623047"/>
       <use xlink:href="#DejaVuSans-30" x="127.246094"/>
      </g>
     </g>
    </g>
    <g id="ytick_8">
     <g id="line2d_16">
      <path d="M 355.495224 174.528 
C 355.495224 158.857042 352.408387 143.338464 346.411371 128.860387 
C 340.414355 114.382309 331.623787 101.226294 320.542746 90.145254 
C 309.461706 79.064213 296.305691 70.273645 281.827613 64.276629 
C 267.349536 58.279613 251.830958 55.192776 236.16 55.192776 
C 220.489042 55.192776 204.970464 58.279613 190.492387 64.276629 
C 176.014309 70.273645 162.858294 79.064213 151.777254 90.145254 
C 140.696213 101.226294 131.905645 114.382309 125.908629 128.860387 
C 119.911613 143.338464 116.824776 158.857042 116.824776 174.528 
C 116.824776 190.198958 119.911613 205.717536 125.908629 220.195613 
C 131.905645 234.673691 140.696213 247.829706 151.777254 258.910746 
C 162.858294 269.991787 176.014309 278.782355 190.492387 284.779371 
C 204.970464 290.776387 220.489042 293.863224 236.16 293.863224 
C 251.830958 293.863224 267.349536 290.776387 281.827613 284.779371 
C 296.305691 278.782355 309.461706 269.991787 320.542746 258.910746 
C 331.623787 247.829706 340.414355 234.673691 346.411371 220.195613 
C 352.408387 205.717536 355.495224 190.198958 355.495224 174.528 
" clip-path="url(#p62e96cbe81)" style="fill: none; stroke: #b0b0b0; stroke-width: 0.8; stroke-linecap: square"/>
     </g>
     <g id="text_17">
      <!-- 160 -->
      <g transform="translate(346.411371 218.115926) scale(0.1 -0.1)">
       <use xlink:href="#DejaVuSans-31"/>
       <use xlink:href="#DejaVuSans-36" x="63.623047"/>
       <use xlink:href="#DejaVuSans-30" x="127.246094"/>
      </g>
     </g>
    </g>
   </g>
   <g id="line2d_17">
    <defs>
     <path id="mc789205e8c" d="M 0 1.5 
C 0.397805 1.5 0.77937 1.341951 1.06066 1.06066 
C 1.341951 0.77937 1.5 0.397805 1.5 0 
C 1.5 -0.397805 1.341951 -0.77937 1.06066 -1.06066 
C 0.77937 -1.341951 0.397805 -1.5 0 -1.5 
C -0.397805 -1.5 -0.77937 -1.341951 -1.06066 -1.06066 
C -1.341951 -0.77937 -1.5 -0.397805 -1.5 0 
C -1.5 0.397805 -1.341951 0.77937 -1.06066 1.06066 
C -0.77937 1.341951 -0.397805 1.5 0 1.5 
z
" style="stroke: #0000ff"/>
    </defs>
    <g clip-path="url(#p62e96cbe81)">
     <use xlink:href="#mc789205e8c" x="298.547774" y="174.528" style="fill: #0000ff; stroke: #0000ff"/>
     <use xlink:href="#mc789205e8c" x="325.329624" y="142.072911" style="fill: #0000ff; stroke: #0000ff"/>
     <use xlink:href="#mc789205e8c" x="322.717158" y="101.897921" style="fill: #0000ff; stroke: #0000ff"/>
     <use xlink:href="#mc789205e8c" x="289.692378" y="81.807201" style="fill: #0000ff; stroke: #0000ff"/>
     <use xlink:href="#mc789205e8c" x="250.295904" y="94.359307" style="fill: #0000ff; stroke: #0000ff"/>
     <use xlink:href="#mc789205e8c" x="228.15976" y="129.156385" style="fill: #0000ff; stroke: #0000ff"/>
     <use xlink:href="#mc789205e8c" x="227.623798" y="159.742865" style="fill: #0000ff; stroke: #0000ff"/>
     <use xlink:href="#mc789205e8c" x="229.067825" y="168.576958" style="fill: #0000ff; stroke: #0000ff"/>
     <use xlink:href="#mc789205e8c" x="210.09888" y="165.042528" style="fill: #0000ff; stroke: #0000ff"/>
     <use xlink:href="#mc789205e8c" x="169.369961" y="174.528" style="fill: #0000ff; stroke: #0000ff"/>
     <use xlink:href="#mc789205e8c" x="149.4356" y="189.819852" style="fill: #0000ff; stroke: #0000ff"/>
     <use xlink:href="#mc789205e8c" x="130.604124" y="235.470713" style="fill: #0000ff; stroke: #0000ff"/>
     <use xlink:href="#mc789205e8c" x="154.549942" y="271.78708" style="fill: #0000ff; stroke: #0000ff"/>
     <use xlink:href="#mc789205e8c" x="200.415998" y="272.733838" style="fill: #0000ff; stroke: #0000ff"/>
     <use xlink:href="#mc789205e8c" x="236.16" y="241.830387" style="fill: #0000ff; stroke: #0000ff"/>
     <use xlink:href="#mc789205e8c" x="247.066715" y="204.493953" style="fill: #0000ff; stroke: #0000ff"/>
     <use xlink:href="#mc789205e8c" x="242.162479" y="181.681476" style="fill: #0000ff; stroke: #0000ff"/>
     <use xlink:href="#mc789205e8c" x="242.715142" y="180.028417" style="fill: #0000ff; stroke: #0000ff"/>
     <use xlink:href="#mc789205e8c" x="248.38384" y="181.585438" style="fill: #0000ff; stroke: #0000ff"/>
     <use xlink:href="#mc789205e8c" x="259.968926" y="183.19374" style="fill: #0000ff; stroke: #0000ff"/>
     <use xlink:href="#mc789205e8c" x="277.099435" y="181.746727" style="fill: #0000ff; stroke: #0000ff"/>
    </g>
   </g>
   <g id="LineCollection_1">
    <path d="M 298.547774 174.528 
L 298.547774 174.528 
" clip-path="url(#p62e96cbe81)" style="fill: none; stroke: #008000; stroke-width: 1.5"/>
    <path d="M 325.329624 142.072911 
L 325.329624 142.072911 
" clip-path="url(#p62e96cbe81)" style="fill: none; stroke: #008000; stroke-width: 1.5"/>
    <path d="M 322.717158 101.897921 
L 322.717158 101.897921 
" clip-path="url(#p62e96cbe81)" style="fill: none; stroke: #008000; stroke-width: 1.5"/>
    <path d="M 289.692378 81.807201 
L 289.692378 81.807201 
" clip-path="url(#p62e96cbe81)" style="fill: none; stroke: #008000; stroke-width: 1.5"/>
    <path d="M 250.295904 94.359307 
L 250.295904 94.359307 
" clip-path="url(#p62e96cbe81)" style="fill: none; stroke: #008000; stroke-width: 1.5"/>
    <path d="M 228.15976 129.156385 
L 228.15976 129.156385 
" clip-path="url(#p62e96cbe81)" style="fill: none; stroke: #008000; stroke-width: 1.5"/>
    <path d="M 227.623798 159.742865 
L 227.623798 159.742865 
" clip-path="url(#p62e96cbe81)" style="fill: none; stroke: #008000; stroke-width: 1.5"/>
    <path d="M 229.067825 168.576958 
L 229.067825 168.576958 
" clip-path="url(#p62e96cbe81)" style="fill: none; stroke: #008000; stroke-width: 1.5"/>
    <path d="M 210.09888 165.042528 
L 210.09888 165.042528 
" clip-path="url(#p62e96cbe81)" style="fill: none; stroke: #008000; stroke-width: 1.5"/>
    <path d="M 169.369961 174.528 
L 169.369961 174.528 
" clip-path="url(#p62e96cbe81)" style="fill: none; stroke: #008000; stroke-width: 1.5"/>
    <path d="M 149.4356 189.819852 
L 149.4356 189.819852 
" clip-path="url(#p62e96cbe81)" style="fill: none; stroke: #008000; stroke-width: 1.5"/>
    <path d="M 130.604124 235.470713 
L 130.604124 235.470713 
" clip-path="url(#p62e96cbe81)" style="fill: none; stroke: #008000; stroke-width: 1.5"/>
    <path d="M 154.549942 271.78708 
L 154.549942 271.78708 
" clip-path="url(#p62e96cbe81)" style="fill: none; stroke: #008000; stroke-width: 1.5"/>
    <path d="M 200.415998 272.733838 
L 200.415998 272.733838 
" clip-path="url(#p62e96cbe81)" style="fill: none; stroke: #008000; stroke-width: 1.5"/>
    <path d="M 236.16 241.830387 
L 236.16 241.830387 
" clip-path="url(#p62e96cbe81)" style="fill: none; stroke: #008000; stroke-width: 1.5"/>
    <path d="M 247.066715 204.493953 
L 247.066715 204.493953 
" clip-path="url(#p62e96cbe81)" style="fill: none; stroke: #008000; stroke-width: 1.5"/>
    <path d="M 242.162479 181.681476 
L 242.162479 181.681476 
" clip-path="url(#p62e96cbe81)" style="fill: none; stroke: #008000; stroke-width: 1.5"/>
    <path d="M 242.715142 180.028417 
L 242.715142 180.028417 
" clip-path="url(#p62e96cbe81)" style="fill: none; stroke: #008000; stroke-width: 1.5"/>
    <path d="M 248.38384 181.585438 
L 248.38384 181.585438 
" clip-path="url(#p62e96cbe81)" style="fill: none; stroke: #008000; stroke-width: 1.5"/>
    <path d="M 259.968926 183.19374 
L 259.968926 183.19374 
" clip-path="url(#p62e96cbe81)" style="fill: none; stroke: #008000; stroke-width: 1.5"/>
    <path d="M 277.099435 181.746727 
L 277.099435 181.746727 
" clip-path="url(#p62e96cbe81)" style="fill: none; stroke: #008000; stroke-width: 1.5"/>
   </g>
   <g id="LineCollection_2">
    <path d="M 298.037817 174.528 
L 299.05773 174.528 
" clip-path="url(#p62e96cbe81)" style="fill: none; stroke: #008000; stroke-width: 1.5"/>
    <path d="M 325.046334 142.17602 
L 325.612913 141.969802 
" clip-path="url(#p62e96cbe81)" style="fill: none; stroke: #008000; stroke-width: 1.5"/>
    <path d="M 322.433768 102.135713 
L 323.000548 101.660129 
" clip-path="url(#p62e96cbe81)" style="fill: none; stroke: #008000; stroke-width: 1.5"/>
    <path d="M 289.500435 82.139656 
L 289.884322 81.474745 
" clip-path="url(#p62e96cbe81)" style="fill: none; stroke: #008000; stroke-width: 1.5"/>
    <path d="M 250.192836 94.943833 
L 250.398971 93.774781 
" clip-path="url(#p62e96cbe81)" style="fill: none; stroke: #008000; stroke-width: 1.5"/>
    <path d="M 228.244631 129.637712 
L 228.074889 128.675058 
" clip-path="url(#p62e96cbe81)" style="fill: none; stroke: #008000; stroke-width: 1.5"/>
    <path d="M 227.85382 160.141275 
L 227.393776 159.344454 
" clip-path="url(#p62e96cbe81)" style="fill: none; stroke: #008000; stroke-width: 1.5"/>
    <path d="M 229.134301 168.632739 
L 229.001348 168.521178 
" clip-path="url(#p62e96cbe81)" style="fill: none; stroke: #008000; stroke-width: 1.5"/>
    <path d="M 210.257121 165.100123 
L 209.940639 164.984933 
" clip-path="url(#p62e96cbe81)" style="fill: none; stroke: #008000; stroke-width: 1.5"/>
    <path d="M 170.114404 174.528 
L 168.625518 174.528 
" clip-path="url(#p62e96cbe81)" style="fill: none; stroke: #008000; stroke-width: 1.5"/>
    <path d="M 149.752469 189.763979 
L 149.118731 189.875724 
" clip-path="url(#p62e96cbe81)" style="fill: none; stroke: #008000; stroke-width: 1.5"/>
    <path d="M 130.826063 235.342577 
L 130.382186 235.598849 
" clip-path="url(#p62e96cbe81)" style="fill: none; stroke: #008000; stroke-width: 1.5"/>
    <path d="M 154.654264 271.662754 
L 154.44562 271.911406 
" clip-path="url(#p62e96cbe81)" style="fill: none; stroke: #008000; stroke-width: 1.5"/>
    <path d="M 200.483674 272.547899 
L 200.348322 272.919778 
" clip-path="url(#p62e96cbe81)" style="fill: none; stroke: #008000; stroke-width: 1.5"/>
    <path d="M 236.16 240.990744 
L 236.16 242.67003 
" clip-path="url(#p62e96cbe81)" style="fill: none; stroke: #008000; stroke-width: 1.5"/>
    <path d="M 246.893014 204.016713 
L 247.240416 204.971193 
" clip-path="url(#p62e96cbe81)" style="fill: none; stroke: #008000; stroke-width: 1.5"/>
    <path d="M 242.107504 181.61596 
L 242.217455 181.746993 
" clip-path="url(#p62e96cbe81)" style="fill: none; stroke: #008000; stroke-width: 1.5"/>
    <path d="M 242.675336 179.995016 
L 242.754948 180.061818 
" clip-path="url(#p62e96cbe81)" style="fill: none; stroke: #008000; stroke-width: 1.5"/>
    <path d="M 248.312234 181.544095 
L 248.455447 181.62678 
" clip-path="url(#p62e96cbe81)" style="fill: none; stroke: #008000; stroke-width: 1.5"/>
    <path d="M 259.943751 183.184577 
L 259.994101 183.202903 
" clip-path="url(#p62e96cbe81)" style="fill: none; stroke: #008000; stroke-width: 1.5"/>
    <path d="M 276.838029 181.700634 
L 277.360841 181.79282 
" clip-path="url(#p62e96cbe81)" style="fill: none; stroke: #008000; stroke-width: 1.5"/>
   </g>
   <g id="patch_3">
    <path d="M 369.216 174.528 
C 369.216 157.055246 365.774248 139.752393 359.087715 123.609673 
C 352.401182 107.466954 342.599903 92.798303 330.2448 80.4432 
C 317.889697 68.088097 303.221046 58.286818 287.078327 51.600285 
C 270.935607 44.913752 253.632754 41.472 236.16 41.472 
C 218.687246 41.472 201.384393 44.913752 185.241673 51.600285 
C 169.098954 58.286818 154.430303 68.088097 142.0752 80.4432 
C 129.720097 92.798303 119.918818 107.466954 113.232285 123.609673 
C 106.545752 139.752393 103.104 157.055246 103.104 174.528 
C 103.104 192.000754 106.545752 209.303607 113.232285 225.446327 
C 119.918818 241.589046 129.720097 256.257697 142.0752 268.6128 
C 154.430303 280.967903 169.098954 290.769182 185.241673 297.455715 
C 201.384393 304.142248 218.687246 307.584 236.16 307.584 
C 253.632754 307.584 270.935607 304.142248 287.078327 297.455715 
C 303.221046 290.769182 317.889697 280.967903 330.2448 268.6128 
C 342.599903 256.257697 352.401182 241.589046 359.087715 225.446327 
C 365.774248 209.303607 369.216 192.000754 369.216 174.528 
" style="fill: none; stroke: #000000; stroke-width: 0.8; stroke-linejoin: miter; stroke-linecap: square"/>
   </g>
   <g id="text_18">
    <!-- $\frac{\lambda}{4}$ wave plate (elyptic) -->
    <g transform="translate(171.24 16.632938) scale(0.12 -0.12)">
     <defs>
      <path id="DejaVuSans-Oblique-3bb" d="M 2350 4316 
L 3125 0 
L 2516 0 
L 2038 2588 
L 328 0 
L -281 0 
L 1903 3356 
L 1794 3975 
Q 1725 4369 1391 4369 
L 1091 4369 
L 1184 4863 
L 1550 4856 
Q 2253 4847 2350 4316 
z
" transform="scale(0.015625)"/>
      <path id="DejaVuSans-77" d="M 269 3500 
L 844 3500 
L 1563 769 
L 2278 3500 
L 2956 3500 
L 3675 769 
L 4391 3500 
L 4966 3500 
L 4050 0 
L 3372 0 
L 2619 2869 
L 1863 0 
L 1184 0 
L 269 3500 
z
" transform="scale(0.015625)"/>
      <path id="DejaVuSans-76" d="M 191 3500 
L 800 3500 
L 1894 563 
L 2988 3500 
L 3597 3500 
L 2284 0 
L 1503 0 
L 191 3500 
z
" transform="scale(0.015625)"/>
      <path id="DejaVuSans-70" d="M 1159 525 
L 1159 -1331 
L 581 -1331 
L 581 3500 
L 1159 3500 
L 1159 2969 
Q 1341 3281 1617 3432 
Q 1894 3584 2278 3584 
Q 2916 3584 3314 3078 
Q 3713 2572 3713 1747 
Q 3713 922 3314 415 
Q 2916 -91 2278 -91 
Q 1894 -91 1617 61 
Q 1341 213 1159 525 
z
M 3116 1747 
Q 3116 2381 2855 2742 
Q 2594 3103 2138 3103 
Q 1681 3103 1420 2742 
Q 1159 2381 1159 1747 
Q 1159 1113 1420 752 
Q 1681 391 2138 391 
Q 2594 391 2855 752 
Q 3116 1113 3116 1747 
z
" transform="scale(0.015625)"/>
      <path id="DejaVuSans-74" d="M 1172 4494 
L 1172 3500 
L 2356 3500 
L 2356 3053 
L 1172 3053 
L 1172 1153 
Q 1172 725 1289 603 
Q 1406 481 1766 481 
L 2356 481 
L 2356 0 
L 1766 0 
Q 1100 0 847 248 
Q 594 497 594 1153 
L 594 3053 
L 172 3053 
L 172 3500 
L 594 3500 
L 594 4494 
L 1172 4494 
z
" transform="scale(0.015625)"/>
      <path id="DejaVuSans-28" d="M 1984 4856 
Q 1566 4138 1362 3434 
Q 1159 2731 1159 2009 
Q 1159 1288 1364 580 
Q 1569 -128 1984 -844 
L 1484 -844 
Q 1016 -109 783 600 
Q 550 1309 550 2009 
Q 550 2706 781 3412 
Q 1013 4119 1484 4856 
L 1984 4856 
z
" transform="scale(0.015625)"/>
      <path id="DejaVuSans-79" d="M 2059 -325 
Q 1816 -950 1584 -1140 
Q 1353 -1331 966 -1331 
L 506 -1331 
L 506 -850 
L 844 -850 
Q 1081 -850 1212 -737 
Q 1344 -625 1503 -206 
L 1606 56 
L 191 3500 
L 800 3500 
L 1894 763 
L 2988 3500 
L 3597 3500 
L 2059 -325 
z
" transform="scale(0.015625)"/>
      <path id="DejaVuSans-69" d="M 603 3500 
L 1178 3500 
L 1178 0 
L 603 0 
L 603 3500 
z
M 603 4863 
L 1178 4863 
L 1178 4134 
L 603 4134 
L 603 4863 
z
" transform="scale(0.015625)"/>
      <path id="DejaVuSans-63" d="M 3122 3366 
L 3122 2828 
Q 2878 2963 2633 3030 
Q 2388 3097 2138 3097 
Q 1578 3097 1268 2742 
Q 959 2388 959 1747 
Q 959 1106 1268 751 
Q 1578 397 2138 397 
Q 2388 397 2633 464 
Q 2878 531 3122 666 
L 3122 134 
Q 2881 22 2623 -34 
Q 2366 -91 2075 -91 
Q 1284 -91 818 406 
Q 353 903 353 1747 
Q 353 2603 823 3093 
Q 1294 3584 2113 3584 
Q 2378 3584 2631 3529 
Q 2884 3475 3122 3366 
z
" transform="scale(0.015625)"/>
      <path id="DejaVuSans-29" d="M 513 4856 
L 1013 4856 
Q 1481 4119 1714 3412 
Q 1947 2706 1947 2009 
Q 1947 1309 1714 600 
Q 1481 -109 1013 -844 
L 513 -844 
Q 928 -128 1133 580 
Q 1338 1288 1338 2009 
Q 1338 2731 1133 3434 
Q 928 4138 513 4856 
z
" transform="scale(0.015625)"/>
     </defs>
     <use xlink:href="#DejaVuSans-Oblique-3bb" transform="translate(2 43.810938) scale(0.7)"/>
     <use xlink:href="#DejaVuSans-34" transform="translate(0 -38.473437) scale(0.7)"/>
     <use xlink:href="#DejaVuSans-20" transform="translate(57.036133 0.014063)"/>
     <use xlink:href="#DejaVuSans-77" transform="translate(88.823242 0.014063)"/>
     <use xlink:href="#DejaVuSans-61" transform="translate(170.610352 0.014063)"/>
     <use xlink:href="#DejaVuSans-76" transform="translate(231.889648 0.014063)"/>
     <use xlink:href="#DejaVuSans-65" transform="translate(291.069336 0.014063)"/>
     <use xlink:href="#DejaVuSans-20" transform="translate(352.592773 0.014063)"/>
     <use xlink:href="#DejaVuSans-70" transform="translate(384.379883 0.014063)"/>
     <use xlink:href="#DejaVuSans-6c" transform="translate(447.856445 0.014063)"/>
     <use xlink:href="#DejaVuSans-61" transform="translate(475.639648 0.014063)"/>
     <use xlink:href="#DejaVuSans-74" transform="translate(536.918945 0.014063)"/>
     <use xlink:href="#DejaVuSans-65" transform="translate(576.12793 0.014063)"/>
     <use xlink:href="#DejaVuSans-20" transform="translate(637.651367 0.014063)"/>
     <use xlink:href="#DejaVuSans-28" transform="translate(669.438477 0.014063)"/>
     <use xlink:href="#DejaVuSans-65" transform="translate(708.452148 0.014063)"/>
     <use xlink:href="#DejaVuSans-6c" transform="translate(769.975586 0.014063)"/>
     <use xlink:href="#DejaVuSans-79" transform="translate(797.758789 0.014063)"/>
     <use xlink:href="#DejaVuSans-70" transform="translate(856.938477 0.014063)"/>
     <use xlink:href="#DejaVuSans-74" transform="translate(920.415039 0.014063)"/>
     <use xlink:href="#DejaVuSans-69" transform="translate(959.624023 0.014063)"/>
     <use xlink:href="#DejaVuSans-63" transform="translate(987.407227 0.014063)"/>
     <use xlink:href="#DejaVuSans-29" transform="translate(1042.387695 0.014063)"/>
     <path d="M 0 18.810937 
L 0 25.060937 
L 44.536133 25.060937 
L 44.536133 18.810937 
L 0 18.810937 
z
"/>
    </g>
   </g>
  </g>
 </g>
 <defs>
  <clipPath id="p62e96cbe81">
   <path d="M 369.216 174.528 
C 369.216 157.055246 365.774248 139.752393 359.087715 123.609673 
C 352.401182 107.466954 342.599903 92.798303 330.2448 80.4432 
C 317.889697 68.088097 303.221046 58.286818 287.078327 51.600285 
C 270.935607 44.913752 253.632754 41.472 236.16 41.472 
C 218.687246 41.472 201.384393 44.913752 185.241673 51.600285 
C 169.098954 58.286818 154.430303 68.088097 142.0752 80.4432 
C 129.720097 92.798303 119.918818 107.466954 113.232285 123.609673 
C 106.545752 139.752393 103.104 157.055246 103.104 174.528 
C 103.104 192.000754 106.545752 209.303607 113.232285 225.446327 
C 119.918818 241.589046 129.720097 256.257697 142.0752 268.6128 
C 154.430303 280.967903 169.098954 290.769182 185.241673 297.455715 
C 201.384393 304.142248 218.687246 307.584 236.16 307.584 
C 253.632754 307.584 270.935607 304.142248 287.078327 297.455715 
C 303.221046 290.769182 317.889697 280.967903 330.2448 268.6128 
C 342.599903 256.257697 352.401182 241.589046 359.087715 225.446327 
C 365.774248 209.303607 369.216 192.000754 369.216 174.528 
M 236.16 174.528 
C 236.16 174.528 236.16 174.528 236.16 174.528 
C 236.16 174.528 236.16 174.528 236.16 174.528 
C 236.16 174.528 236.16 174.528 236.16 174.528 
C 236.16 174.528 236.16 174.528 236.16 174.528 
C 236.16 174.528 236.16 174.528 236.16 174.528 
C 236.16 174.528 236.16 174.528 236.16 174.528 
C 236.16 174.528 236.16 174.528 236.16 174.528 
C 236.16 174.528 236.16 174.528 236.16 174.528 
C 236.16 174.528 236.16 174.528 236.16 174.528 
C 236.16 174.528 236.16 174.528 236.16 174.528 
C 236.16 174.528 236.16 174.528 236.16 174.528 
C 236.16 174.528 236.16 174.528 236.16 174.528 
C 236.16 174.528 236.16 174.528 236.16 174.528 
C 236.16 174.528 236.16 174.528 236.16 174.528 
C 236.16 174.528 236.16 174.528 236.16 174.528 
C 236.16 174.528 236.16 174.528 236.16 174.528 
M 369.216 174.528 
z
"/>
  </clipPath>
 </defs>
</svg>
